<svg width="40" height="40" viewBox="0 0 40 40" fill="none" xmlns="http://www.w3.org/2000/svg">
<g clip-path="url(#clip0)">
<path d="M34.1431 5.85789C30.3656 2.08039 25.3432 0 20.0009 0C14.6587 0 9.6364 2.08039 5.85882 5.85789C2.0814 9.63539 0.00100708 14.6578 0.00100708 20C0.00100708 25.3422 2.0814 30.3646 5.8589 34.1422C9.6364 37.9196 14.6588 40 20.001 40C23.3151 40 26.5985 39.1723 29.4962 37.6064C30.0808 37.2905 30.2987 36.5605 29.9827 35.9759C29.6669 35.3913 28.937 35.1735 28.3523 35.4894C25.8047 36.866 22.9169 37.5936 20.001 37.5936C10.2998 37.5936 2.40733 29.7012 2.40733 20C2.40733 10.2988 10.2998 2.40641 20.0009 2.40641C29.7021 2.40641 37.5945 10.2989 37.5945 20C37.5945 22.296 37.0368 25.0278 36.5362 26.0437C36.0923 26.9445 34.8347 28.213 33.4284 28.213C31.6082 28.213 30.1273 26.7322 30.1273 24.912V12.2253C30.1273 11.5609 29.5885 11.0221 28.924 11.0221C28.2596 11.0221 27.7208 11.5608 27.7208 12.2253V13.4547C25.8619 11.2655 23.0912 9.87367 20.0009 9.87367C14.4173 9.87367 9.8746 14.4163 9.8746 20C9.8746 25.5836 14.4172 30.1263 20.0009 30.1263C23.1915 30.1263 26.0417 28.6427 27.8991 26.3294C28.5311 28.793 30.7704 30.6194 33.4283 30.6194C35.7495 30.6194 37.8348 28.8526 38.6947 27.1073C39.4272 25.6211 40.0008 22.4992 40.0008 20.0001C40.0009 14.6578 37.9205 9.63539 34.1431 5.85789ZM20.0009 27.7199C15.7442 27.7199 12.281 24.2568 12.281 20C12.281 15.7432 15.7441 12.2801 20.0009 12.2801C24.2577 12.2801 27.7208 15.7432 27.7208 20C27.7208 24.2568 24.2577 27.7199 20.0009 27.7199Z" fill="#11998E"/>
</g>
<defs>
<clipPath id="clip0">
<rect width="40" height="40" fill="white"/>
</clipPath>
</defs>
</svg>
