<svg width="20" height="21" viewBox="0 0 20 21" fill="none" xmlns="http://www.w3.org/2000/svg">
<path d="M10.0169 1.45902e-05C4.49409 -0.0093186 0.00934742 4.46027 1.42387e-05 9.98313C-0.00458957 12.7135 1.1074 15.327 3.07787 17.217C3.08361 17.2227 3.08574 17.2313 3.09143 17.2363C3.14927 17.292 3.21214 17.3391 3.27073 17.3927C3.43145 17.5356 3.59216 17.6834 3.76146 17.8213C3.85215 17.8927 3.94644 17.9641 4.03932 18.0298C4.19932 18.1491 4.35932 18.2684 4.52644 18.3784C4.64003 18.4499 4.75718 18.5213 4.87357 18.5927C5.02784 18.6856 5.18144 18.7791 5.34073 18.8641C5.47575 18.9356 5.61357 18.997 5.75072 19.062C5.90072 19.1334 6.04859 19.2048 6.20215 19.2691C6.3557 19.3334 6.51002 19.3834 6.66571 19.4391C6.8214 19.4948 6.95571 19.5463 7.105 19.592C7.27358 19.6427 7.44643 19.6819 7.61786 19.7241C7.7607 19.7591 7.89928 19.7991 8.04643 19.8277C8.24356 19.867 8.44358 19.892 8.64359 19.9191C8.76718 19.9363 8.88789 19.9606 9.01286 19.9727C9.34002 20.0048 9.66999 20.0227 10.0028 20.0227C10.3357 20.0227 10.6657 20.0048 10.9928 19.9727C11.1178 19.9606 11.2386 19.9363 11.3621 19.9191C11.5621 19.892 11.7621 19.867 11.9593 19.8277C12.1021 19.7991 12.245 19.7562 12.3878 19.7241C12.5593 19.6819 12.7321 19.6426 12.9007 19.592C13.05 19.5463 13.1943 19.4906 13.34 19.4391C13.4857 19.3877 13.6514 19.332 13.8035 19.2691C13.9557 19.2062 14.105 19.1327 14.255 19.062C14.3921 18.997 14.53 18.9355 14.665 18.8641C14.8243 18.7791 14.9778 18.6856 15.1321 18.5927C15.2486 18.5213 15.3657 18.4563 15.4792 18.3784C15.6464 18.2684 15.8064 18.1492 15.9664 18.0298C16.0592 17.9584 16.1535 17.8941 16.2442 17.8213C16.4135 17.6856 16.5742 17.5413 16.735 17.3927C16.7935 17.3391 16.8564 17.292 16.9143 17.2363C16.92 17.2313 16.9221 17.2227 16.9278 17.217C18.8912 15.3366 20.001 12.7355 20 10.017C20.0094 4.49409 15.5398 0.00934778 10.0169 1.45902e-05ZM16.9815 14.972C16.5231 12.834 15.1153 11.0215 13.1572 10.0484C14.7578 8.30475 14.6419 5.59365 12.8983 3.99299C11.1546 2.39232 8.44353 2.50826 6.84287 4.25189C5.33809 5.8911 5.33809 8.40921 6.84287 10.0484C4.88479 11.0215 3.47694 12.834 3.01857 14.972C0.274485 11.1238 1.16955 5.77964 5.01779 3.03556C6.47193 1.99866 8.21405 1.44264 10 1.44549C14.7264 1.43795 18.564 5.26335 18.5715 9.98975C18.5744 11.7757 18.0184 13.5179 16.9815 14.972Z" fill="#0030AA"/>
</svg>
