<svg width="29" height="40" viewBox="0 0 29 40" fill="none" xmlns="http://www.w3.org/2000/svg">
<path d="M25.0159 17.0108V10.6763C25.0329 7.81005 23.8881 5.05406 21.8444 3.04431C19.8686 1.07696 17.2822 0 14.5431 0C14.5007 0 14.4499 0 14.4075 0C8.56477 0.00847997 3.81599 4.79118 3.81599 10.6763V17.0108C1.61119 17.2737 0 19.1223 0 21.361V35.5904C0 38.0072 1.93343 40 4.35022 40H24.4901C26.9069 40 28.8404 38.0072 28.8404 35.5904V21.361C28.8319 19.1308 27.2207 17.2737 25.0159 17.0108ZM5.5035 10.6763H5.51198C5.51198 5.72398 9.50604 1.67055 14.4159 1.67055H14.4244C16.7564 1.66207 18.9951 2.58639 20.6487 4.2315C22.3702 5.93598 23.3284 8.25949 23.3114 10.6763V17.0193H21.4458V10.6763C21.4628 8.75133 20.6996 6.90269 19.3343 5.5459C18.0454 4.25694 16.2985 3.52767 14.4753 3.52767H14.4244C10.5236 3.52767 7.36909 6.73309 7.36909 10.6678V17.0193H5.5035V10.6763ZM19.7583 10.6763V17.0193H9.07357V10.6763C9.07357 7.67437 11.4649 5.23214 14.4329 5.23214H14.4838C15.8575 5.23214 17.1804 5.78334 18.1556 6.75853C19.1902 7.79309 19.7753 9.20924 19.7583 10.6763ZM27.2207 35.6159C27.2207 37.0999 26.0165 38.304 24.5325 38.304H4.38414C2.90015 38.304 1.69599 37.0999 1.69599 35.6159V21.4034C1.69599 19.9194 2.90015 18.7153 4.38414 18.7153H24.5325C26.0165 18.7153 27.2207 19.9194 27.2207 21.4034V35.6159Z" fill="#11998E"/>
<path d="M17.3501 27.9838C16.977 26.6694 15.7813 25.7705 14.416 25.7705C12.7285 25.7705 11.3547 27.1358 11.3547 28.8318C11.3547 30.197 12.2536 31.3927 13.568 31.7658V34.1402C13.568 34.6066 13.9496 34.9882 14.416 34.9882C14.8824 34.9882 15.264 34.6066 15.264 34.1402V31.7658C16.8837 31.2994 17.825 29.6035 17.3501 27.9838ZM14.416 30.1886C13.6613 30.1886 13.0507 29.578 13.0507 28.8233C13.0507 28.0686 13.6613 27.458 14.416 27.458C15.1708 27.458 15.7813 28.0686 15.7813 28.8233C15.7813 29.578 15.1708 30.1886 14.416 30.1886Z" fill="#11998E"/>
</svg>
