<svg width="26" height="20" viewBox="0 0 26 20" fill="none" xmlns="http://www.w3.org/2000/svg">
<path d="M14.465 14.7348C14.0089 15.0023 13.4248 15.1496 12.8203 15.1496C12.2158 15.1496 11.6318 15.0024 11.1757 14.7348L3.72992 10.3684C3.72992 10.3684 3.05786 9.97453 3.05786 10.8668C3.05786 11.8801 3.05786 14.9199 3.05786 14.9199C3.05786 14.9605 3.05786 15.1639 3.05786 15.227C3.05786 17.5239 7.4286 20 12.8201 20C18.2117 20 22.5824 17.5239 22.5824 15.227C22.5824 15.1639 22.5824 14.9605 22.5824 14.9199C22.5824 14.9199 22.5824 11.6958 22.5824 10.621C22.5824 9.90477 22.1046 10.2547 22.1046 10.2547L14.465 14.7348Z" fill="#11998E"/>
<path d="M25.2033 6.89516C25.7754 6.55968 25.7754 6.01066 25.2033 5.67511L13.8605 0.251616C13.2884 -0.0838718 12.3522 -0.0838718 11.7801 0.251616L0.437392 5.67511C-0.134729 6.0106 -0.134729 6.55961 0.437392 6.89516L11.7801 13.5469C12.3522 13.8824 13.2884 13.8824 13.8605 13.5469" fill="#11998E"/>
<path d="M24.734 16.7546C24.734 14.918 24.734 9.4083 24.734 9.4083C24.734 9.4083 24.7394 9.06035 24.5234 9.17525C24.3502 9.26743 23.9256 9.49372 23.7761 9.61814C23.6034 9.76166 23.6423 10.0838 23.6423 10.0838C23.6423 10.0838 23.6423 15.0869 23.6423 16.7546C23.6423 16.8493 23.5572 16.8945 23.5166 16.9173C23.1245 17.1377 22.8608 17.5446 22.8608 18.011C22.8608 18.7119 23.4551 19.2802 24.1882 19.2802C24.9213 19.2802 25.5155 18.7119 25.5155 18.011C25.5155 17.5428 25.2499 17.1347 24.8553 16.9148C24.8161 16.8929 24.734 16.8492 24.734 16.7546Z" fill="#11998E"/>
</svg>
