<svg width="16" height="20" viewBox="0 0 16 20" fill="none" xmlns="http://www.w3.org/2000/svg">
<path d="M11.0408 1.25H9.6302C9.36262 0.5225 8.64042 0 7.79352 0C6.94662 0 6.22441 0.5225 5.95553 1.25H4.54619C4.18769 1.25 3.89673 1.53 3.89673 1.875V4.375C3.89673 4.72 4.18769 5 4.54619 5H11.0408C11.3993 5 11.6903 4.72 11.6903 4.375V1.875C11.6903 1.53 11.3993 1.25 11.0408 1.25Z" fill="#0030AA"/>
<path d="M14.2879 2.5H12.989V4.375C12.989 5.40875 12.1148 6.25 11.0406 6.25H4.54615C3.47196 6.25 2.5978 5.40875 2.5978 4.375V2.5H1.2989C0.583206 2.5 0 3.06125 0 3.75V18.75C0 19.4512 0.570217 20 1.2989 20H14.2879C15.0166 20 15.5868 19.4512 15.5868 18.75V3.75C15.5868 3.04875 15.0166 2.5 14.2879 2.5ZM7.60376 13.5675L5.00596 16.0675C4.87867 16.1887 4.71241 16.25 4.54615 16.25C4.37989 16.25 4.21363 16.1887 4.08634 16.0675L2.78744 14.8175C2.53415 14.5737 2.53415 14.1775 2.78744 13.9337C3.04072 13.69 3.45247 13.69 3.70576 13.9337L4.54615 14.7412L6.68414 12.6837C6.93742 12.44 7.34917 12.44 7.60246 12.6837C7.85574 12.9275 7.85704 13.3225 7.60376 13.5675ZM7.60376 8.56749L5.00596 11.0675C4.87867 11.1887 4.71241 11.25 4.54615 11.25C4.37989 11.25 4.21363 11.1887 4.08634 11.0675L2.78744 9.81749C2.53415 9.57374 2.53415 9.17749 2.78744 8.93374C3.04072 8.68999 3.45247 8.68999 3.70576 8.93374L4.54615 9.74124L6.68414 7.68374C6.93742 7.44 7.34917 7.44 7.60246 7.68374C7.85574 7.92749 7.85704 8.32249 7.60376 8.56749ZM12.3395 15H9.74174C9.38325 15 9.09229 14.72 9.09229 14.375C9.09229 14.03 9.38325 13.75 9.74174 13.75H12.3395C12.698 13.75 12.989 14.03 12.989 14.375C12.989 14.72 12.698 15 12.3395 15ZM12.3395 9.99999H9.74174C9.38325 9.99999 9.09229 9.71999 9.09229 9.37499C9.09229 9.02999 9.38325 8.74999 9.74174 8.74999H12.3395C12.698 8.74999 12.989 9.02999 12.989 9.37499C12.989 9.71999 12.698 9.99999 12.3395 9.99999Z" fill="#0030AA"/>
</svg>
