<svg width="16" height="20" viewBox="0 0 16 20" fill="none" xmlns="http://www.w3.org/2000/svg">
<path d="M11.158 1.25H9.74742C9.47985 0.5225 8.75766 0 7.91077 0C7.06388 0 6.34168 0.5225 6.07281 1.25H4.66349C4.30499 1.25 4.01404 1.53 4.01404 1.875V4.375C4.01404 4.72 4.30499 5 4.66349 5H11.158C11.5165 5 11.8075 4.72 11.8075 4.375V1.875C11.8075 1.53 11.5165 1.25 11.158 1.25Z" fill="white"/>
<path d="M14.4052 2.5H13.1063V4.375C13.1063 5.40875 12.2321 6.25 11.158 6.25H4.66346C3.58927 6.25 2.71511 5.40875 2.71511 4.375V2.5H1.41621C0.700515 2.5 0.11731 3.06125 0.11731 3.75V18.75C0.11731 19.4512 0.687526 20 1.41621 20H14.4052C15.1339 20 15.7041 19.4512 15.7041 18.75V3.75C15.7041 3.04875 15.1339 2.5 14.4052 2.5ZM7.72107 13.5675L5.12327 16.0675C4.99598 16.1887 4.82972 16.25 4.66346 16.25C4.4972 16.25 4.33094 16.1887 4.20365 16.0675L2.90475 14.8175C2.65146 14.5737 2.65146 14.1775 2.90475 13.9337C3.15803 13.69 3.56978 13.69 3.82307 13.9337L4.66346 14.7412L6.80145 12.6837C7.05473 12.44 7.46648 12.44 7.71977 12.6837C7.97305 12.9275 7.97435 13.3225 7.72107 13.5675ZM7.72107 8.56749L5.12327 11.0675C4.99598 11.1887 4.82972 11.25 4.66346 11.25C4.4972 11.25 4.33094 11.1887 4.20365 11.0675L2.90475 9.81749C2.65146 9.57374 2.65146 9.17749 2.90475 8.93374C3.15803 8.68999 3.56978 8.68999 3.82307 8.93374L4.66346 9.74124L6.80145 7.68374C7.05473 7.44 7.46648 7.44 7.71977 7.68374C7.97305 7.92749 7.97435 8.32249 7.72107 8.56749ZM12.4569 15H9.85905C9.50056 15 9.2096 14.72 9.2096 14.375C9.2096 14.03 9.50056 13.75 9.85905 13.75H12.4569C12.8153 13.75 13.1063 14.03 13.1063 14.375C13.1063 14.72 12.8153 15 12.4569 15ZM12.4569 9.99999H9.85905C9.50056 9.99999 9.2096 9.71999 9.2096 9.37499C9.2096 9.02999 9.50056 8.74999 9.85905 8.74999H12.4569C12.8153 8.74999 13.1063 9.02999 13.1063 9.37499C13.1063 9.71999 12.8153 9.99999 12.4569 9.99999Z" fill="white"/>
</svg>
