<svg width="20" height="20" viewBox="0 0 20 20" fill="none" xmlns="http://www.w3.org/2000/svg">
<path d="M19.2076 12.1917L17.3708 10.7542C17.3941 10.5325 17.4141 10.2734 17.4141 9.99918C17.4141 9.725 17.3949 9.46586 17.3708 9.24418L19.2093 7.80586C19.5506 7.53586 19.6439 7.05668 19.4266 6.65754L17.5165 3.35C17.3125 2.97668 16.8654 2.785 16.4116 2.9525L14.2443 3.82332C13.8288 3.52332 13.3933 3.27 12.9429 3.0675L12.6132 0.76668C12.559 0.33 12.1794 0 11.7306 0H7.90055C7.45175 0 7.07293 0.33 7.01961 0.76L6.68907 3.06918C6.25277 3.26586 5.82399 3.51586 5.39018 3.825L3.21703 2.95168C2.80983 2.79418 2.32275 2.97082 2.12042 3.3425L0.207903 6.65418C-0.0177257 7.03586 0.0755153 7.53168 0.424399 7.80836L2.26116 9.24586C2.232 9.52668 2.21787 9.77086 2.21787 10C2.21787 10.2292 2.23204 10.4734 2.26116 10.755L0.42272 12.1934C0.0813307 12.4642 -0.0110907 12.9434 0.206225 13.3417L2.11628 16.6492C2.32029 17.0217 2.76323 17.215 3.22116 17.0467L5.3885 16.1759C5.80315 16.475 6.2386 16.7284 6.68907 16.9317L7.01879 19.2317C7.07289 19.67 7.45175 20 7.90136 20H11.7314C12.1802 20 12.5599 19.67 12.6132 19.24L12.9437 16.9317C13.38 16.7342 13.808 16.485 14.2426 16.175L16.4158 17.0483C16.5207 17.0891 16.6298 17.11 16.7422 17.11C17.0652 17.11 17.3625 16.9333 17.5123 16.6583L19.4307 13.3333C19.6439 12.9433 19.5506 12.4642 19.2076 12.1917ZM9.81556 13.3333C7.9788 13.3333 6.48507 11.8383 6.48507 10C6.48507 8.16168 7.9788 6.66668 9.81556 6.66668C11.6523 6.66668 13.146 8.16168 13.146 10C13.146 11.8383 11.6523 13.3333 9.81556 13.3333Z" fill="white"/>
</svg>
