<svg width="204" height="46" viewBox="0 0 204 46" fill="none" xmlns="http://www.w3.org/2000/svg">
<path d="M7.76852 10.4433V36.052H16.3562L24.1257 45.3774H0V10.4433V0H7.76852V10.4433Z" fill="#A7A7A7"/>
<mask id="path-2-inside-1" fill="white">
<path d="M8.9798 29.1113H22.2411L22.2457 18.4321H8.98439"/>
</mask>
<path d="M8.9798 27.1113C7.87523 27.1113 6.9798 28.0068 6.9798 29.1113C6.9798 30.2159 7.87523 31.1113 8.9798 31.1113V27.1113ZM22.2411 29.1113V31.1113C23.3454 31.1113 24.2407 30.2164 24.2411 29.1122L22.2411 29.1113ZM22.2457 18.4321L24.2457 18.433C24.246 17.9024 24.0353 17.3935 23.6602 17.0182C23.2851 16.643 22.7763 16.4321 22.2457 16.4321V18.4321ZM8.98439 16.4321C7.87982 16.4321 6.98439 17.3276 6.98439 18.4321C6.98439 19.5367 7.87982 20.4321 8.98439 20.4321V16.4321ZM8.9798 31.1113H22.2411V27.1113H8.9798V31.1113ZM24.2411 29.1122L24.2457 18.433L20.2457 18.4313L20.2411 29.1105L24.2411 29.1122ZM22.2457 16.4321H8.98439V20.4321H22.2457V16.4321Z" fill="#A7A7A7" mask="url(#path-2-inside-1)"/>
<mask id="path-4-inside-2" fill="white">
<path d="M9.33911 11.2554H31.1348L31.1431 0.574707H9.34738"/>
</mask>
<path d="M9.33911 9.25537C8.23454 9.25537 7.33911 10.1508 7.33911 11.2554C7.33911 12.3599 8.23454 13.2554 9.33911 13.2554V9.25537ZM31.1348 11.2554V13.2554C32.2388 13.2554 33.1339 12.3609 33.1348 11.2569L31.1348 11.2554ZM31.1431 0.574707L33.1431 0.576254C33.1435 0.0455533 32.9329 -0.463552 32.5578 -0.838959C32.1827 -1.21437 31.6738 -1.42529 31.1431 -1.42529V0.574707ZM9.34738 -1.42529C8.24281 -1.42529 7.34738 -0.529863 7.34738 0.574707C7.34738 1.67928 8.24281 2.57471 9.34738 2.57471V-1.42529ZM9.33911 13.2554H31.1348V9.25537H9.33911V13.2554ZM33.1348 11.2569L33.1431 0.576254L29.1431 0.57316L29.1348 11.2538L33.1348 11.2569ZM31.1431 -1.42529H9.34738V2.57471H31.1431V-1.42529Z" fill="#A7A7A7" mask="url(#path-4-inside-2)"/>
<mask id="path-6-inside-3" fill="white">
<path d="M25.7491 44.9932H31.3117V36.3911H18.6823"/>
</mask>
<path d="M25.7491 42.9932C24.6446 42.9932 23.7491 43.8886 23.7491 44.9932C23.7491 46.0977 24.6446 46.9932 25.7491 46.9932V42.9932ZM31.3117 44.9932V46.9932C32.4163 46.9932 33.3117 46.0977 33.3117 44.9932H31.3117ZM31.3117 36.3911H33.3117C33.3117 35.2865 32.4163 34.3911 31.3117 34.3911V36.3911ZM18.6823 34.3911C17.5777 34.3911 16.6823 35.2865 16.6823 36.3911C16.6823 37.4957 17.5777 38.3911 18.6823 38.3911V34.3911ZM25.7491 46.9932H31.3117V42.9932H25.7491V46.9932ZM33.3117 44.9932V36.3911H29.3117V44.9932H33.3117ZM31.3117 34.3911H18.6823V38.3911H31.3117V34.3911Z" fill="#A7A7A7" mask="url(#path-6-inside-3)"/>
<path d="M60.1797 23.6055H53.4297V28.1758H61.3516V31H49.9141V13.9375H61.3282V16.7852H53.4297V20.8516H60.1797V23.6055ZM70.7791 31C70.6229 30.6953 70.5096 30.3164 70.4393 29.8633C69.619 30.7773 68.5526 31.2344 67.2401 31.2344C65.9979 31.2344 64.9666 30.875 64.1463 30.1562C63.3338 29.4375 62.9276 28.5312 62.9276 27.4375C62.9276 26.0938 63.4237 25.0625 64.4158 24.3438C65.4158 23.625 66.8572 23.2617 68.7401 23.2539H70.2987V22.5273C70.2987 21.9414 70.1463 21.4727 69.8416 21.1211C69.5447 20.7695 69.0721 20.5938 68.4237 20.5938C67.8533 20.5938 67.4041 20.7305 67.076 21.0039C66.7557 21.2773 66.5955 21.6523 66.5955 22.1289H63.2088C63.2088 21.3945 63.4354 20.7148 63.8885 20.0898C64.3416 19.4648 64.9822 18.9766 65.8104 18.625C66.6385 18.2656 67.5682 18.0859 68.5994 18.0859C70.1619 18.0859 71.4002 18.4805 72.3143 19.2695C73.2362 20.0508 73.6971 21.1523 73.6971 22.5742V28.0703C73.7049 29.2734 73.8729 30.1836 74.201 30.8008V31H70.7791ZM67.9783 28.6445C68.4783 28.6445 68.9393 28.5352 69.3612 28.3164C69.783 28.0898 70.0955 27.7891 70.2987 27.4141V25.2344H69.033C67.3377 25.2344 66.4354 25.8203 66.326 26.9922L66.3143 27.1914C66.3143 27.6133 66.4627 27.9609 66.7596 28.2344C67.0565 28.5078 67.4627 28.6445 67.9783 28.6445ZM83.4058 27.4961C83.4058 27.082 83.1988 26.7578 82.7847 26.5234C82.3785 26.2812 81.7222 26.0664 80.816 25.8789C77.8004 25.2461 76.2926 23.9648 76.2926 22.0352C76.2926 20.9102 76.7574 19.9727 77.6871 19.2227C78.6246 18.4648 79.8472 18.0859 81.3551 18.0859C82.9644 18.0859 84.2496 18.4648 85.2105 19.2227C86.1793 19.9805 86.6637 20.9648 86.6637 22.1758H83.2769C83.2769 21.6914 83.1207 21.293 82.8082 20.9805C82.4957 20.6602 82.0074 20.5 81.3433 20.5C80.773 20.5 80.3316 20.6289 80.0191 20.8867C79.7066 21.1445 79.5504 21.4727 79.5504 21.8711C79.5504 22.2461 79.7262 22.5508 80.0777 22.7852C80.4371 23.0117 81.0387 23.2109 81.8824 23.3828C82.7262 23.5469 83.4371 23.7344 84.0152 23.9453C85.8043 24.6016 86.6988 25.7383 86.6988 27.3555C86.6988 28.5117 86.2027 29.4492 85.2105 30.168C84.2183 30.8789 82.9371 31.2344 81.3668 31.2344C80.3043 31.2344 79.359 31.0469 78.5308 30.6719C77.7105 30.2891 77.066 29.7695 76.5972 29.1133C76.1285 28.4492 75.8941 27.7344 75.8941 26.9688H79.1051C79.1363 27.5703 79.359 28.0312 79.773 28.3516C80.1871 28.6719 80.7418 28.832 81.4371 28.832C82.0855 28.832 82.5738 28.7109 82.9019 28.4688C83.2379 28.2188 83.4058 27.8945 83.4058 27.4961ZM93.8646 26.207L96.2083 18.3203H99.8412L94.7435 32.9688L94.4622 33.6367C93.7044 35.293 92.4544 36.1211 90.7122 36.1211C90.2201 36.1211 89.7201 36.0469 89.2122 35.8984V33.332L89.7279 33.3438C90.3685 33.3438 90.8451 33.2461 91.1576 33.0508C91.4779 32.8555 91.7279 32.5312 91.9076 32.0781L92.306 31.0352L87.8646 18.3203H91.5091L93.8646 26.207ZM115.034 25.3164C114.901 27.1523 114.222 28.5977 112.995 29.6523C111.776 30.707 110.167 31.2344 108.167 31.2344C105.98 31.2344 104.257 30.5 102.999 29.0312C101.749 27.5547 101.124 25.5312 101.124 22.9609V21.918C101.124 20.2773 101.413 18.832 101.991 17.582C102.569 16.332 103.394 15.375 104.464 14.7109C105.542 14.0391 106.792 13.7031 108.214 13.7031C110.183 13.7031 111.769 14.2305 112.972 15.2852C114.175 16.3398 114.87 17.8203 115.058 19.7266H111.542C111.456 18.625 111.148 17.8281 110.616 17.3359C110.093 16.8359 109.292 16.5859 108.214 16.5859C107.042 16.5859 106.163 17.0078 105.577 17.8516C104.999 18.6875 104.702 19.9883 104.687 21.7539V23.043C104.687 24.8867 104.964 26.2344 105.519 27.0859C106.081 27.9375 106.964 28.3633 108.167 28.3633C109.253 28.3633 110.062 28.1172 110.593 27.625C111.132 27.125 111.441 26.3555 111.519 25.3164H115.034ZM116.833 24.543C116.833 23.2852 117.075 22.1641 117.559 21.1797C118.044 20.1953 118.739 19.4336 119.645 18.8945C120.559 18.3555 121.618 18.0859 122.821 18.0859C124.532 18.0859 125.927 18.6094 127.005 19.6562C128.091 20.7031 128.696 22.125 128.821 23.9219L128.845 24.7891C128.845 26.7344 128.302 28.2969 127.216 29.4766C126.13 30.6484 124.673 31.2344 122.845 31.2344C121.016 31.2344 119.556 30.6484 118.462 29.4766C117.376 28.3047 116.833 26.7109 116.833 24.6953V24.543ZM120.22 24.7891C120.22 25.9922 120.446 26.9141 120.899 27.5547C121.352 28.1875 122.001 28.5039 122.845 28.5039C123.665 28.5039 124.306 28.1914 124.766 27.5664C125.227 26.9336 125.458 25.9258 125.458 24.543C125.458 23.3633 125.227 22.4492 124.766 21.8008C124.306 21.1523 123.657 20.8281 122.821 20.8281C121.993 20.8281 121.352 21.1523 120.899 21.8008C120.446 22.4414 120.22 23.4375 120.22 24.7891ZM134.346 18.3203L134.452 19.7383C135.35 18.6367 136.565 18.0859 138.096 18.0859C139.729 18.0859 140.85 18.7305 141.46 20.0195C142.35 18.7305 143.62 18.0859 145.268 18.0859C146.643 18.0859 147.667 18.4883 148.339 19.293C149.01 20.0898 149.346 21.293 149.346 22.9023V31H145.948V22.9141C145.948 22.1953 145.807 21.6719 145.526 21.3438C145.245 21.0078 144.749 20.8398 144.038 20.8398C143.022 20.8398 142.319 21.3242 141.928 22.293L141.94 31H138.553V22.9258C138.553 22.1914 138.409 21.6602 138.12 21.332C137.831 21.0039 137.339 20.8398 136.643 20.8398C135.682 20.8398 134.987 21.2383 134.557 22.0352V31H131.171V18.3203H134.346ZM163.614 24.7773C163.614 26.7305 163.168 28.2969 162.278 29.4766C161.395 30.6484 160.2 31.2344 158.692 31.2344C157.411 31.2344 156.375 30.7891 155.586 29.8984V35.875H152.2V18.3203H155.34L155.457 19.5625C156.278 18.5781 157.348 18.0859 158.668 18.0859C160.231 18.0859 161.446 18.6641 162.313 19.8203C163.18 20.9766 163.614 22.5703 163.614 24.6016V24.7773ZM160.227 24.5312C160.227 23.3516 160.016 22.4414 159.594 21.8008C159.18 21.1602 158.575 20.8398 157.778 20.8398C156.715 20.8398 155.985 21.2461 155.586 22.0586V27.25C156 28.0859 156.739 28.5039 157.801 28.5039C159.418 28.5039 160.227 27.1797 160.227 24.5312ZM173.311 31C173.154 30.6953 173.041 30.3164 172.971 29.8633C172.151 30.7773 171.084 31.2344 169.772 31.2344C168.529 31.2344 167.498 30.875 166.678 30.1562C165.865 29.4375 165.459 28.5312 165.459 27.4375C165.459 26.0938 165.955 25.0625 166.947 24.3438C167.947 23.625 169.389 23.2617 171.272 23.2539H172.83V22.5273C172.83 21.9414 172.678 21.4727 172.373 21.1211C172.076 20.7695 171.604 20.5938 170.955 20.5938C170.385 20.5938 169.936 20.7305 169.608 21.0039C169.287 21.2773 169.127 21.6523 169.127 22.1289H165.74C165.74 21.3945 165.967 20.7148 166.42 20.0898C166.873 19.4648 167.514 18.9766 168.342 18.625C169.17 18.2656 170.1 18.0859 171.131 18.0859C172.693 18.0859 173.932 18.4805 174.846 19.2695C175.768 20.0508 176.229 21.1523 176.229 22.5742V28.0703C176.236 29.2734 176.404 30.1836 176.733 30.8008V31H173.311ZM170.51 28.6445C171.01 28.6445 171.471 28.5352 171.893 28.3164C172.315 28.0898 172.627 27.7891 172.83 27.4141V25.2344H171.565C169.869 25.2344 168.967 25.8203 168.858 26.9922L168.846 27.1914C168.846 27.6133 168.994 27.9609 169.291 28.2344C169.588 28.5078 169.994 28.6445 170.51 28.6445ZM182.187 18.3203L182.293 19.7852C183.199 18.6523 184.414 18.0859 185.937 18.0859C187.281 18.0859 188.281 18.4805 188.937 19.2695C189.594 20.0586 189.93 21.2383 189.945 22.8086V31H186.559V22.8906C186.559 22.1719 186.402 21.6523 186.09 21.332C185.777 21.0039 185.258 20.8398 184.531 20.8398C183.578 20.8398 182.863 21.2461 182.387 22.0586V31H179V18.3203H182.187ZM197.498 26.207L199.841 18.3203H203.474L198.377 32.9688L198.095 33.6367C197.338 35.293 196.088 36.1211 194.345 36.1211C193.853 36.1211 193.353 36.0469 192.845 35.8984V33.332L193.361 33.3438C194.002 33.3438 194.478 33.2461 194.791 33.0508C195.111 32.8555 195.361 32.5312 195.541 32.0781L195.939 31.0352L191.498 18.3203H195.142L197.498 26.207Z" fill="#A7A7A7"/>
</svg>
