<svg width="592" height="82" viewBox="0 0 592 82" fill="none" xmlns="http://www.w3.org/2000/svg">
<path d="M42.7368 0.973633V13.0413H13.2299V25.545H39.7738V37.0965H13.2299V49.6862H43.6722V61.6679H0V0.973633H42.7368Z" fill="#0030AA"/>
<path d="M92.1968 61.0123H79.5249V55.6805C76.0468 59.674 71.7496 61.6679 66.6274 61.6679C61.5052 61.6679 57.208 60.3133 53.7359 57.6095C50.2637 54.9002 48.5247 51.2915 48.5247 46.7834C48.5247 42.2698 50.3231 38.8941 53.9139 36.6508C57.5107 34.4076 62.4193 33.2859 68.6514 33.2859H78.7177V33.0421C78.7177 28.3388 75.9934 25.9872 70.5388 25.9872C68.2003 25.9872 65.7312 26.4098 63.1255 27.2605C60.5199 28.1112 58.3179 29.1625 56.5195 30.4196L50.5011 22.4652C56.8519 18.255 64.099 16.1472 72.2482 16.1472C78.1182 16.1472 82.908 17.4856 86.6235 20.1678C90.339 22.8499 92.1968 27.0871 92.1968 32.8849V61.0123ZM78.6286 44.1933V42.0585H70.1827C64.7934 42.0585 62.0928 43.5919 62.0928 46.6533C62.0928 48.2409 62.7338 49.4547 64.0218 50.3054C65.3098 51.1561 67.1497 51.5787 69.5476 51.5787C71.9454 51.5787 74.0525 50.9123 75.8806 49.5685C77.7146 48.2301 78.6286 46.4366 78.6286 44.1933Z" fill="#0030AA"/>
<path d="M135.869 47.271C135.869 51.6167 134.184 55.1062 130.809 57.7287C127.439 60.3513 123.156 61.6679 117.97 61.6679C114.509 61.6679 110.911 61.0827 107.164 59.9069C103.417 58.7311 100.042 56.9972 97.0493 54.6998L102.755 46.9893C107.598 50.5438 112.755 52.321 118.233 52.321C119.906 52.321 121.231 52.0068 122.208 51.3782C123.184 50.7497 123.675 49.9152 123.675 48.8749C123.675 47.8345 122.996 46.8809 121.642 46.0031C120.289 45.1308 118.324 44.3071 115.765 43.5431C113.201 42.7791 111.242 42.1235 109.888 41.5762C108.535 41.0289 106.993 40.2378 105.262 39.1975C101.744 37.1222 99.9906 34.0445 99.9906 29.9698C99.9906 25.8951 101.721 22.5736 105.177 19.9998C108.638 17.4315 113.104 16.1472 118.581 16.1472C124.058 16.1472 129.529 17.8974 135.007 21.3978L130.163 29.6014C126.126 26.9788 122.105 25.6621 118.101 25.6621C114.092 25.6621 112.093 26.7025 112.093 28.7777C112.093 29.9265 112.727 30.8259 113.995 31.487C115.263 32.1426 117.364 32.912 120.306 33.7844C123.247 34.6622 125.332 35.3287 126.577 35.7947C127.816 36.2606 129.301 36.9867 131.032 37.9675C134.253 39.8206 135.869 42.9254 135.869 47.271Z" fill="#0030AA"/>
<path d="M149.214 81.8994C144.824 81.8994 140.683 80.0289 136.788 76.2878L142.456 66.5587C144.566 68.7188 146.736 69.8017 148.961 69.8017C150.129 69.8017 151.131 69.1995 151.963 68.0065C152.794 66.8077 153.213 65.5395 153.213 64.1902C153.213 62.8466 147.43 46.8285 135.869 16.1472H149.209L160.131 45.5197L171.053 16.1472H184.393L163.546 71.7302C162.323 74.9443 160.417 77.4402 157.834 79.2239C155.262 81.0075 152.387 81.8994 149.214 81.8994Z" fill="#0030AA"/>
<path d="M194.099 61.6622V0.973633H204.58V51.9413H232.918V61.6679H194.099V61.6622Z" fill="#7FFFA0"/>
<path d="M276.59 61.0041H268.185V55.1062C264.559 59.4789 259.698 61.6679 253.596 61.6679C249.034 61.6679 245.256 60.3676 242.262 57.7616C239.268 55.161 237.771 51.6827 237.771 47.3374C237.771 42.9922 239.366 39.7388 242.55 37.5772C245.735 35.4155 250.052 34.3402 255.49 34.3402H267.439V32.6778C267.439 26.8073 264.195 23.8721 257.711 23.8721C253.645 23.8721 249.415 25.3699 245.022 28.36L240.901 22.5444C246.23 18.2814 252.273 16.1472 259.034 16.1472C264.2 16.1472 268.414 17.464 271.685 20.092C274.952 22.72 276.59 26.8622 276.59 32.5077V61.0041ZM267.358 44.5558V40.8196H256.971C250.324 40.8196 246.998 42.9264 246.998 47.1344C246.998 49.2961 247.82 50.942 249.469 52.0777C251.119 53.2134 253.411 53.7785 256.35 53.7785C259.29 53.7785 261.859 52.9501 264.053 51.2877C266.258 49.6253 267.358 47.3813 267.358 44.5558Z" fill="#7FFFA0"/>
<path d="M300.022 37.3902V61.6679H291.148V16.821H300.022V25.0008C301.45 22.2501 303.413 20.084 305.924 18.5082C308.431 16.9379 311.141 16.1472 314.045 16.1472C318.796 16.1472 322.642 17.6952 325.572 20.7856C328.502 23.876 329.967 28.3473 329.967 34.1885V61.6679H321.093V37.0506C321.093 28.7872 317.87 24.6611 311.429 24.6611C308.363 24.6611 305.699 25.7414 303.428 27.9074C301.157 30.0679 300.022 33.2307 300.022 37.3902Z" fill="#7FFFA0"/>
<path d="M383.345 16.8442V57.3092C383.345 65.5059 381.224 71.652 376.981 75.7533C372.739 79.8545 367.287 81.8994 360.632 81.8994C353.977 81.8994 347.96 79.722 342.58 75.3616L346.987 67.9483C351.312 71.3756 355.681 73.0921 360.088 73.0921C364.495 73.0921 367.991 71.8997 370.573 69.515C373.151 67.1303 374.442 63.3228 374.442 58.0926V52.1597C373.057 54.8958 371.073 57.0731 368.496 58.7032C365.919 60.3333 363.017 61.1455 359.802 61.1455C353.922 61.1455 349.097 58.997 345.327 54.6942C341.558 50.3913 339.673 45.0459 339.673 38.6464C339.673 32.2526 341.558 26.9014 345.327 22.5986C349.097 18.2957 353.911 16.1472 359.764 16.1472C365.617 16.1472 370.37 18.6759 374.03 23.7334V16.8442H383.345ZM348.817 38.2489C348.817 42.0564 349.938 45.3397 352.186 48.1045C354.433 50.8694 357.456 52.2461 361.253 52.2461C365.051 52.2461 368.128 50.9097 370.485 48.237C372.843 45.5643 374.019 42.2349 374.019 38.2489C374.019 34.2687 372.827 30.8932 370.442 28.1341C368.056 25.375 364.979 23.9925 361.209 23.9925C357.439 23.9925 354.428 25.4153 352.18 28.2666C349.938 31.1179 348.817 34.4415 348.817 38.2489Z" fill="#7FFFA0"/>
<path d="M427.847 40.422V16.1472H436.722V60.9887H427.847V52.8154C426.419 55.5714 424.451 57.7316 421.945 59.3073C419.433 60.8829 416.728 61.6679 413.824 61.6679C409.073 61.6679 405.227 60.1257 402.297 57.0301C399.367 53.9401 397.902 49.4749 397.902 43.6289V16.1528H406.776V40.7672C406.776 49.0295 409.999 53.1607 416.441 53.1607C419.502 53.1607 422.17 52.0805 424.441 49.9147C426.712 47.7434 427.847 44.581 427.847 40.422Z" fill="#7FFFA0"/>
<path d="M485.246 61.0041H476.841V55.1062C473.215 59.4789 468.354 61.6679 462.251 61.6679C457.689 61.6679 453.911 60.3676 450.917 57.7616C447.923 55.161 446.426 51.6827 446.426 47.3374C446.426 42.9922 448.021 39.7388 451.206 37.5772C454.391 35.4155 458.707 34.3402 464.146 34.3402H476.095V32.6778C476.095 26.8073 472.85 23.8721 466.367 23.8721C462.3 23.8721 458.071 25.3699 453.677 28.36L449.556 22.5444C454.886 18.2814 460.929 16.1472 467.69 16.1472C472.856 16.1472 477.069 17.464 480.341 20.092C483.607 22.72 485.246 26.8622 485.246 32.5077V61.0041ZM476.019 44.5558V40.8196H465.632C458.985 40.8196 455.659 42.9264 455.659 47.1344C455.659 49.2961 456.481 50.942 458.13 52.0777C459.78 53.2134 462.072 53.7785 465.011 53.7785C467.951 53.7785 470.52 52.9501 472.714 51.2877C474.919 49.6253 476.019 47.3813 476.019 44.5558Z" fill="#7FFFA0"/>
<path d="M538.623 16.8442V57.3092C538.623 65.5059 536.502 71.652 532.26 75.7533C528.017 79.8545 522.566 81.8994 515.911 81.8994C509.256 81.8994 503.238 79.722 497.858 75.3616L502.266 67.9483C506.59 71.3756 510.959 73.0921 515.367 73.0921C519.774 73.0921 523.269 71.8997 525.852 69.515C528.429 67.1303 529.721 63.3228 529.721 58.0926V52.1597C528.336 54.8958 526.352 57.0731 523.775 58.7032C521.197 60.3333 518.296 61.1455 515.081 61.1455C509.201 61.1455 504.376 58.997 500.606 54.6942C496.836 50.3913 494.951 45.0459 494.951 38.6464C494.951 32.2526 496.836 26.9014 500.606 22.5986C504.376 18.2957 509.19 16.1472 515.042 16.1472C520.895 16.1472 525.649 18.6759 529.309 23.7334V16.8442H538.623ZM504.095 38.2489C504.095 42.0564 505.217 45.3397 507.464 48.1045C509.712 50.8694 512.734 52.2461 516.532 52.2461C520.329 52.2461 523.406 50.9097 525.764 48.237C528.122 45.5643 529.298 42.2349 529.298 38.2489C529.298 34.2687 528.105 30.8932 525.72 28.1341C523.335 25.375 520.258 23.9925 516.488 23.9925C512.718 23.9925 509.706 25.4153 507.459 28.2666C505.217 31.1179 504.095 34.4415 504.095 38.2489Z" fill="#7FFFA0"/>
<path d="M591.995 42.979H557.57C557.789 46.1889 559.25 48.7789 561.944 50.7487C564.637 52.7131 567.724 53.6953 571.192 53.6953C576.694 53.6953 580.876 51.9504 583.739 48.4606L589.023 54.2769C584.29 59.2042 578.128 61.6679 570.532 61.6679C564.37 61.6679 559.125 59.6048 554.806 55.4786C550.487 51.3523 548.328 45.8158 548.328 38.8637C548.328 31.9171 550.531 26.3915 554.931 22.2927C559.332 18.1939 564.523 16.1472 570.494 16.1472C576.465 16.1472 581.541 17.9635 585.724 21.5904C589.906 25.2174 592 30.2161 592 36.5865V42.979H591.995ZM557.57 35.6647H582.752C582.752 31.9554 581.596 29.1022 579.284 27.1104C576.972 25.1186 574.125 24.1199 570.739 24.1199C567.353 24.1199 564.316 25.157 561.617 27.2366C558.917 29.3107 557.57 32.1255 557.57 35.6647Z" fill="#7FFFA0"/>
</svg>
