<svg width="122" height="16" viewBox="0 0 122 16" fill="none" xmlns="http://www.w3.org/2000/svg">
<path d="M8.80723 0V2.38593H2.72643V4.85806H8.19662V7.14194H2.72643V9.63107H9V12H0V0H8.80723Z" fill="white"/>
<path d="M19 11.8704H16.3886V10.8162C15.6718 11.6058 14.7862 12 13.7306 12C12.675 12 11.7895 11.7322 11.0739 11.1976C10.3584 10.6619 10 9.94846 10 9.05714C10 8.16475 10.3706 7.49733 11.1106 7.05381C11.8519 6.61029 12.8634 6.38853 14.1477 6.38853H16.2222V6.34032C16.2222 5.41043 15.6608 4.94549 14.5367 4.94549C14.0548 4.94549 13.5459 5.02904 13.009 5.19724C12.472 5.36543 12.0182 5.57327 11.6476 5.82182L10.4073 4.24914C11.7161 3.41674 13.2096 3 14.889 3C16.0987 3 17.0858 3.26462 17.8515 3.79491C18.6171 4.3252 19 5.16296 19 6.30925V11.8704ZM16.2039 8.54505V8.12297H14.4633C13.3527 8.12297 12.7961 8.42614 12.7961 9.03143C12.7961 9.34532 12.9282 9.58529 13.1937 9.75348C13.4591 9.92168 13.8383 10.0052 14.3324 10.0052C14.8266 10.0052 15.2608 9.87347 15.6375 9.60779C16.0155 9.34318 16.2039 8.98857 16.2039 8.54505Z" fill="white"/>
<path d="M28 9.15356C28 10.0127 27.6528 10.7027 26.9572 11.2212C26.2628 11.7397 25.38 12 24.3113 12C23.5981 12 22.8566 11.8843 22.0845 11.6518C21.3123 11.4194 20.6167 11.0765 20 10.6223L21.1758 9.09785C22.1739 9.80062 23.2367 10.152 24.3655 10.152C24.7103 10.152 24.9834 10.0899 25.1846 9.9656C25.3859 9.84133 25.4871 9.67635 25.4871 9.47066C25.4871 9.26497 25.3471 9.07643 25.0681 8.90288C24.7892 8.7304 24.3843 8.56756 23.857 8.4165C23.3285 8.26545 22.9248 8.13582 22.6459 8.02762C22.3669 7.91942 22.0491 7.76301 21.6925 7.55732C20.9675 7.14701 20.6062 6.53851 20.6062 5.73289C20.6062 4.92727 20.9628 4.27057 21.6749 3.76171C22.3881 3.25391 23.3085 3 24.4373 3C25.566 3 26.6935 3.34604 27.8223 4.0381L26.8242 5.66005C25.9921 5.14154 25.1635 4.88121 24.3384 4.88121C23.5121 4.88121 23.1002 5.0869 23.1002 5.49721C23.1002 5.72432 23.2308 5.90216 23.4921 6.03286C23.7534 6.16249 24.1866 6.31461 24.7927 6.48709C25.3989 6.66064 25.8285 6.79241 26.085 6.88454C26.3404 6.97667 26.6465 7.12023 27.0031 7.31413C27.6669 7.68052 28 8.29438 28 9.15356Z" fill="white"/>
<path d="M30.7503 16C29.8456 16 28.9921 15.6302 28.1896 14.8905L29.3575 12.967C29.7923 13.394 30.2395 13.6082 30.6981 13.6082C30.9387 13.6082 31.1453 13.4891 31.3167 13.2532C31.4881 13.0162 31.5743 12.7655 31.5743 12.4987C31.5743 12.233 30.3825 9.06606 28 3H30.7491L33 8.80729L35.2509 3H38L33.7037 13.9894C33.4518 14.6249 33.059 15.1184 32.5267 15.471C31.9966 15.8237 31.4041 16 30.7503 16Z" fill="white"/>
<path d="M40 11.9989V0H42.1599V10.0769H48V12H40V11.9989Z" fill="#7FFFA0"/>
<path d="M57 11.8688H55.2678V10.7027C54.5207 11.5672 53.5189 12 52.2613 12C51.3211 12 50.5426 11.7429 49.9255 11.2277C49.3085 10.7135 49 10.0258 49 9.16669C49 8.30758 49.3287 7.66434 49.985 7.23696C50.6413 6.80958 51.5309 6.59697 52.6517 6.59697H55.1141V6.26829C55.1141 5.10763 54.4455 4.52729 53.1094 4.52729C52.2714 4.52729 51.3997 4.82343 50.4943 5.41461L49.6451 4.2648C50.7434 3.42196 51.9886 3 53.382 3C54.4466 3 55.315 3.26034 55.9892 3.77993C56.6623 4.29951 57 5.11848 57 6.23467V11.8688ZM55.0973 8.61673V7.87803H52.9568C51.587 7.87803 50.9016 8.29456 50.9016 9.12655C50.9016 9.55394 51.071 9.87936 51.4109 10.1039C51.7508 10.3284 52.2231 10.4402 52.8289 10.4402C53.4347 10.4402 53.9642 10.2764 54.4163 9.9477C54.8707 9.61903 55.0973 9.17537 55.0973 8.61673Z" fill="#7FFFA0"/>
<path d="M61.8288 7.2V12H60V3.13321H61.8288V4.75046C62.1232 4.20661 62.5276 3.77835 63.0452 3.46679C63.5617 3.15633 64.1202 3 64.7187 3C65.6978 3 66.4904 3.30605 67.0942 3.91706C67.6981 4.52807 68 5.41211 68 6.56698V12H66.1712V7.13285C66.1712 5.49909 65.5069 4.68331 64.1795 4.68331C63.5476 4.68331 62.9988 4.89688 62.5308 5.32514C62.0628 5.75229 61.8288 6.37762 61.8288 7.2Z" fill="#7FFFA0"/>
<path d="M79 3.1378V11.1382C79 12.7588 78.5629 13.974 77.6886 14.7848C76.8143 15.5957 75.6908 16 74.3194 16C72.9479 16 71.7078 15.5695 70.5991 14.7074L71.5074 13.2417C72.3986 13.9193 73.299 14.2587 74.2073 14.2587C75.1155 14.2587 75.8358 14.023 76.3681 13.5515C76.8992 13.08 77.1653 12.3272 77.1653 11.2931V10.1201C76.88 10.6611 76.4711 11.0915 75.94 11.4138C75.4088 11.7361 74.8109 11.8967 74.1484 11.8967C72.9366 11.8967 71.9422 11.4719 71.1653 10.6212C70.3884 9.77048 70 8.71363 70 7.44836C70 6.18424 70.3884 5.12623 71.1653 4.27551C71.9422 3.42479 72.9343 3 74.1404 3C75.3466 3 76.3262 3.49996 77.0804 4.49987V3.1378H79ZM71.8845 7.36978C71.8845 8.12256 72.1155 8.7717 72.5787 9.31835C73.0419 9.865 73.6648 10.1372 74.4473 10.1372C75.2299 10.1372 75.8641 9.87297 76.3499 9.34454C76.8358 8.81611 77.0781 8.15786 77.0781 7.36978C77.0781 6.58283 76.8324 5.91547 76.3409 5.36996C75.8494 4.82445 75.2152 4.55112 74.4383 4.55112C73.6614 4.55112 73.0408 4.83242 72.5776 5.39615C72.1155 5.95988 71.8845 6.61699 71.8845 7.36978Z" fill="#7FFFA0"/>
<path d="M88.1712 7.79942V3H90V11.8657H88.1712V10.2498C87.8768 10.7946 87.4714 11.2217 86.9548 11.5333C86.4373 11.8448 85.8798 12 85.2813 12C84.3022 12 83.5096 11.6951 82.9058 11.0831C82.3019 10.4721 82 9.58928 82 8.43346V3.0011H83.8288V7.86767C83.8288 9.50123 84.4931 10.318 85.8205 10.318C86.4513 10.318 87.0012 10.1045 87.4692 9.67625C87.9372 9.24694 88.1712 8.62171 88.1712 7.79942Z" fill="#7FFFA0"/>
<path d="M100 11.8688H98.2678V10.7027C97.5207 11.5672 96.5189 12 95.2613 12C94.3211 12 93.5426 11.7429 92.9255 11.2277C92.3085 10.7135 92 10.0258 92 9.16669C92 8.30758 92.3287 7.66434 92.985 7.23696C93.6413 6.80958 94.5309 6.59697 95.6517 6.59697H98.1141V6.26829C98.1141 5.10763 97.4455 4.52729 96.1094 4.52729C95.2713 4.52729 94.3997 4.82343 93.4943 5.41461L92.6451 4.2648C93.7434 3.42196 94.9886 3 96.382 3C97.4466 3 98.315 3.26034 98.9892 3.77993C99.6623 4.29951 100 5.11848 100 6.23467V11.8688ZM98.0984 8.61673V7.87803H95.9579C94.5881 7.87803 93.9027 8.29456 93.9027 9.12655C93.9027 9.55394 94.0721 9.87936 94.412 10.1039C94.7519 10.3284 95.2242 10.4402 95.83 10.4402C96.4358 10.4402 96.9654 10.2764 97.4175 9.9477C97.8718 9.61903 98.0984 9.17537 98.0984 8.61673Z" fill="#7FFFA0"/>
<path d="M111 3.1378V11.1382C111 12.7588 110.563 13.974 109.689 14.7848C108.814 15.5957 107.691 16 106.319 16C104.948 16 103.708 15.5695 102.599 14.7074L103.507 13.2417C104.399 13.9193 105.299 14.2587 106.207 14.2587C107.116 14.2587 107.836 14.023 108.368 13.5515C108.899 13.08 109.165 12.3272 109.165 11.2931V10.1201C108.88 10.6611 108.471 11.0915 107.94 11.4138C107.409 11.7361 106.811 11.8967 106.148 11.8967C104.937 11.8967 103.942 11.4719 103.165 10.6212C102.388 9.77048 102 8.71363 102 7.44836C102 6.18424 102.388 5.12623 103.165 4.27551C103.942 3.42479 104.934 3 106.14 3C107.347 3 108.326 3.49996 109.08 4.49987V3.1378H111ZM103.884 7.36978C103.884 8.12256 104.116 8.7717 104.579 9.31835C105.042 9.865 105.665 10.1372 106.447 10.1372C107.23 10.1372 107.864 9.87297 108.35 9.34454C108.836 8.81611 109.078 8.15786 109.078 7.36978C109.078 6.58283 108.832 5.91547 108.341 5.36996C107.849 4.82445 107.215 4.55112 106.438 4.55112C105.661 4.55112 105.041 4.83242 104.578 5.39615C104.116 5.95988 103.884 6.61699 103.884 7.36978Z" fill="#7FFFA0"/>
<path d="M121.999 8.30497H114.905C114.95 8.93962 115.251 9.45167 115.806 9.84114C116.361 10.2295 116.997 10.4237 117.712 10.4237C118.846 10.4237 119.708 10.0787 120.298 9.38875L121.386 10.5387C120.411 11.5129 119.141 12 117.576 12C116.306 12 115.225 11.5921 114.335 10.7763C113.445 9.96047 113 8.86584 113 7.49133C113 6.11789 113.454 5.02543 114.361 4.21504C115.268 3.40465 116.337 3 117.568 3C118.798 3 119.845 3.35909 120.707 4.07619C121.568 4.79328 122 5.78158 122 7.04111V8.30497H121.999ZM114.905 6.85884H120.094C120.094 6.12548 119.856 5.56135 119.379 5.16755C118.903 4.77375 118.316 4.57631 117.619 4.57631C116.921 4.57631 116.295 4.78134 115.739 5.1925C115.182 5.60258 114.905 6.15911 114.905 6.85884Z" fill="#7FFFA0"/>
</svg>
