<svg width="504" height="66" viewBox="0 0 504 66" fill="none" xmlns="http://www.w3.org/2000/svg">
<path d="M36.3298 0V9.84196H11.2465V20.0395H33.811V29.4605H11.2465V39.7282H37.125V49.5H0V0H36.3298Z" fill="white"/>
<path d="M78.375 48.9653H67.6028V44.6169C64.6461 47.8738 60.9931 49.5 56.6389 49.5C52.2846 49.5 48.6316 48.3952 45.68 46.1901C42.7283 43.9805 41.25 41.0374 41.25 37.3607C41.25 33.6796 42.7788 30.9265 45.8313 29.097C48.8889 27.2675 53.0616 26.3527 58.3594 26.3527H66.9166V26.1538C66.9166 22.318 64.6007 20.4001 59.9639 20.4001C57.9759 20.4001 55.877 20.7448 53.662 21.4386C51.447 22.1324 49.5751 22.9898 48.0463 24.015L42.9302 17.5277C48.3289 14.0941 54.4895 12.375 61.417 12.375C66.407 12.375 70.4787 13.4665 73.6372 15.654C76.7957 17.8415 78.375 21.2972 78.375 26.0257V48.9653ZM66.8409 35.2484V33.5072H59.6611C55.0798 33.5072 52.7841 34.7578 52.7841 37.2546C52.7841 38.5494 53.329 39.5393 54.4239 40.2331C55.5187 40.9269 57.0829 41.2716 59.1212 41.2716C61.1596 41.2716 62.9508 40.7281 64.5048 39.6321C66.0639 38.5406 66.8409 37.0779 66.8409 35.2484Z" fill="white"/>
<path d="M115.5 37.7584C115.5 41.3026 114.068 44.1485 111.198 46.2873C108.334 48.4262 104.693 49.5 100.284 49.5C97.342 49.5 94.2833 49.0227 91.0984 48.0638C87.9134 47.1048 85.0441 45.6907 82.5 43.817L87.3502 37.5286C91.4673 40.4276 95.8515 41.877 100.508 41.877C101.93 41.877 103.056 41.6207 103.887 41.1081C104.717 40.5955 105.134 39.9149 105.134 39.0665C105.134 38.218 104.557 37.4403 103.406 36.7244C102.255 36.0129 100.585 35.3412 98.4101 34.7181C96.2302 34.095 94.5649 33.5603 93.4142 33.1139C92.2636 32.6676 90.9527 32.0224 89.4816 31.1739C86.4909 29.4814 85.0004 26.9713 85.0004 23.6482C85.0004 20.325 86.4715 17.6161 89.4088 15.517C92.351 13.4224 96.1476 12.375 100.804 12.375C105.46 12.375 110.111 13.8024 114.767 16.6572L110.65 23.3477C107.217 21.2088 103.799 20.135 100.396 20.135C96.9876 20.135 95.2883 20.9835 95.2883 22.676C95.2883 23.6128 95.8272 24.3464 96.905 24.8855C97.9829 25.4203 99.7695 26.0478 102.27 26.7592C104.77 27.4751 106.542 28.0187 107.601 28.3987C108.654 28.7788 109.917 29.3709 111.388 30.1708C114.126 31.6821 115.5 34.2143 115.5 37.7584Z" fill="white"/>
<path d="M126.845 66C123.113 66 119.592 64.4745 116.282 61.4234L121.1 53.4888C122.893 55.2504 124.738 56.1336 126.63 56.1336C127.622 56.1336 128.474 55.6424 129.181 54.6695C129.888 53.6918 130.244 52.6575 130.244 51.5571C130.244 50.4613 125.328 37.3975 115.5 12.375H126.84L136.125 36.3301L145.41 12.375H156.75L139.028 57.7064C137.989 60.3277 136.368 62.3633 134.173 63.818C131.986 65.2727 129.542 66 126.845 66Z" fill="white"/>
<path d="M165 49.4953V0H173.91V41.5673H198V49.5H165V49.4953Z" fill="#7FFFA0"/>
<path d="M235.125 48.9586H227.98V44.1485C224.898 47.7147 220.765 49.5 215.578 49.5C211.7 49.5 208.488 48.4395 205.943 46.3142C203.398 44.1932 202.125 41.3564 202.125 37.8126C202.125 34.2688 203.481 31.6154 206.188 29.8525C208.895 28.0895 212.565 27.2125 217.188 27.2125H227.346V25.8567C227.346 21.069 224.588 18.6751 219.076 18.6751C215.619 18.6751 212.024 19.8967 208.289 22.3353L204.786 17.5923C209.316 14.1156 214.453 12.375 220.201 12.375C224.592 12.375 228.174 13.4489 230.955 15.5922C233.732 17.7355 235.125 21.1137 235.125 25.718V48.9586ZM227.276 35.544V32.4969H218.447C212.796 32.4969 209.969 34.2151 209.969 37.647C209.969 39.41 210.668 40.7523 212.07 41.6786C213.472 42.6048 215.42 43.0657 217.919 43.0657C220.418 43.0657 222.602 42.39 224.467 41.0343C226.342 39.6785 227.276 37.8484 227.276 35.544Z" fill="#7FFFA0"/>
<path d="M255.044 29.7V49.5H247.5V12.9245H255.044V19.5957C256.258 17.3523 257.926 15.5857 260.061 14.3005C262.192 13.0199 264.496 12.375 266.965 12.375C271.003 12.375 274.273 13.6375 276.764 16.1579C279.255 18.6783 280.5 22.325 280.5 27.0888V49.5H272.956V29.423C272.956 22.6837 270.216 19.3186 264.741 19.3186C262.134 19.3186 259.87 20.1996 257.94 21.9662C256.009 23.7282 255.044 26.3077 255.044 29.7Z" fill="#7FFFA0"/>
<path d="M325.875 12.9434V45.9452C325.875 52.6301 324.072 57.6427 320.465 60.9875C316.859 64.3323 312.225 66 306.567 66C300.91 66 295.795 64.2243 291.221 60.668L294.968 54.622C298.644 57.4172 302.358 58.8171 306.105 58.8171C309.852 58.8171 312.823 57.8447 315.018 55.8998C317.209 53.9549 318.307 50.8497 318.307 46.5841V41.7454C317.13 43.9769 315.443 45.7526 313.252 47.0821C311.061 48.4116 308.595 49.0739 305.862 49.0739C300.863 49.0739 296.762 47.3217 293.557 43.8125C290.352 40.3032 288.75 35.9437 288.75 30.7245C288.75 25.51 290.352 21.1457 293.557 17.6365C296.762 14.1272 300.854 12.375 305.829 12.375C310.805 12.375 314.845 14.4373 317.957 18.562V12.9434H325.875ZM296.524 30.4003C296.524 33.5055 297.477 36.1833 299.387 38.4382C301.298 40.6931 303.867 41.8159 307.095 41.8159C310.323 41.8159 312.939 40.726 314.944 38.5462C316.948 36.3665 317.947 33.6512 317.947 30.4003C317.947 27.1542 316.934 24.4013 314.906 22.1511C312.879 19.9008 310.263 18.7734 307.058 18.7734C303.853 18.7734 301.293 19.9337 299.383 22.2591C297.477 24.5845 296.524 27.2951 296.524 30.4003Z" fill="#7FFFA0"/>
<path d="M363.706 32.1726V12.375H371.25V48.946H363.706V42.2802C362.492 44.5279 360.819 46.2897 358.689 47.5747C356.554 48.8598 354.254 49.5 351.785 49.5C347.747 49.5 344.477 48.2422 341.986 45.7176C339.495 43.1975 338.25 39.5558 338.25 34.788V12.3795H345.794V32.4541C345.794 39.1926 348.534 42.5618 354.009 42.5618C356.612 42.5618 358.88 41.6809 360.81 39.9145C362.741 38.1436 363.706 35.5645 363.706 32.1726Z" fill="#7FFFA0"/>
<path d="M412.5 48.9586H405.355V44.1485C402.273 47.7147 398.14 49.5 392.953 49.5C389.075 49.5 385.863 48.4395 383.318 46.3142C380.773 44.1932 379.5 41.3564 379.5 37.8126C379.5 34.2688 380.856 31.6154 383.563 29.8525C386.27 28.0895 389.94 27.2125 394.563 27.2125H404.721V25.8567C404.721 21.069 401.963 18.6751 396.451 18.6751C392.994 18.6751 389.399 19.8967 385.664 22.3353L382.161 17.5923C386.691 14.1156 391.828 12.375 397.576 12.375C401.967 12.375 405.549 13.4489 408.33 15.5922C411.107 17.7355 412.5 21.1137 412.5 25.718V48.9586ZM404.656 35.544V32.4969H395.826C390.176 32.4969 387.349 34.2151 387.349 37.647C387.349 39.41 388.047 40.7523 389.45 41.6786C390.852 42.6048 392.8 43.0657 395.299 43.0657C397.798 43.0657 399.982 42.39 401.847 41.0343C403.721 39.6785 404.656 37.8484 404.656 35.544Z" fill="#7FFFA0"/>
<path d="M457.875 12.9434V45.9452C457.875 52.6301 456.072 57.6427 452.465 60.9875C448.859 64.3323 444.225 66 438.567 66C432.91 66 427.795 64.2243 423.221 60.668L426.968 54.622C430.644 57.4172 434.358 58.8171 438.105 58.8171C441.851 58.8171 444.823 57.8447 447.018 55.8998C449.209 53.9549 450.307 50.8497 450.307 46.5841V41.7454C449.13 43.9769 447.443 45.7526 445.252 47.0821C443.061 48.4116 440.595 49.0739 437.862 49.0739C432.863 49.0739 428.762 47.3217 425.557 43.8125C422.352 40.3032 420.75 35.9437 420.75 30.7245C420.75 25.51 422.352 21.1457 425.557 17.6365C428.762 14.1272 432.854 12.375 437.829 12.375C442.804 12.375 446.845 14.4373 449.957 18.562V12.9434H457.875ZM428.523 30.4003C428.523 33.5055 429.476 36.1833 431.387 38.4382C433.298 40.6931 435.867 41.8159 439.095 41.8159C442.323 41.8159 444.939 40.726 446.944 38.5462C448.948 36.3665 449.947 33.6512 449.947 30.4003C449.947 27.1542 448.934 24.4013 446.906 22.1511C444.879 19.9008 442.263 18.7734 439.058 18.7734C435.853 18.7734 433.293 19.9337 431.382 22.2591C429.476 24.5845 428.523 27.2951 428.523 30.4003Z" fill="#7FFFA0"/>
<path d="M503.245 34.258H473.982C474.167 36.8759 475.41 38.9881 477.7 40.5947C479.99 42.1968 482.613 42.9978 485.561 42.9978C490.238 42.9978 493.794 41.5747 496.227 38.7286L500.719 43.4721C496.696 47.4907 491.458 49.5 485 49.5C479.762 49.5 475.303 47.8174 471.632 44.4522C467.961 41.0869 466.125 36.5716 466.125 30.9017C466.125 25.2363 467.998 20.7299 471.738 17.387C475.479 14.0442 479.892 12.375 484.968 12.375C490.044 12.375 494.359 13.8563 497.915 16.8143C501.47 19.7723 503.25 23.849 503.25 29.0446V34.258H503.245ZM473.982 28.2927H495.388C495.388 25.2676 494.406 22.9406 492.44 21.3161C490.475 19.6917 488.055 18.8773 485.177 18.8773C482.298 18.8773 479.716 19.723 477.421 21.4191C475.127 23.1106 473.982 25.4063 473.982 28.2927Z" fill="#7FFFA0"/>
</svg>
