<?xml version="1.0" encoding="utf-8"?>
<!-- Generator: Adobe Illustrator 23.0.1, SVG Export Plug-In . SVG Version: 6.00 Build 0)  -->
<svg version="1.1" id="Camada_1" xmlns="http://www.w3.org/2000/svg" xmlns:xlink="http://www.w3.org/1999/xlink" x="0px" y="0px"
	 viewBox="0 0 1100 750" style="enable-background:new 0 0 1100 750;" xml:space="preserve">
<style type="text/css">
	.st0{fill:#FFFFFF;}
	.st1{fill:none;}
	.st2{fill:#7FFFA0;}
</style>
<g>
	<g>
		<polygon class="st0" points="464.59,333.8 464.59,96.69 464.59,0 379.99,0 379.99,96.69 379.99,420.14 642.69,420.14 558.1,333.8 
					"/>
		<path class="st0" d="M720.95,333.65c0,0-114.36,0-135.24,0c-0.31-0.1-1.94,0-2.28,0c-1.81,0-3.29,1.47-3.29,3.29
			c0,1.81,1.47,3.29,3.29,3.29h134.23v73.07h-57.29c-1.81,0-3.29,1.47-3.29,3.29c0,1.81,1.47,3.29,3.29,3.29h60.57
			c1.81,0,3.29-1.47,3.29-3.29v-79.64C724.23,335.12,722.76,333.65,720.95,333.65z"/>
		<path class="st0" d="M477.78,266.25c-1.81,0-3.29,1.47-3.29,3.29c0,1.81,1.47,3.29,3.29,3.29h144.45c1.81,0,3.29-1.47,3.29-3.29
			v-98.88c0-1.81-1.47-3.29-3.29-3.29H477.78c-1.81,0-3.29,1.47-3.29,3.29c0,1.81,1.47,3.29,3.29,3.29h141.16v92.31H477.78z"/>
		<path class="st0" d="M720.95,0H481.68c-1.81,0-3.29,1.47-3.29,3.29c0,1.81,1.47,3.29,3.29,3.29h235.98v92.31H481.68
			c-1.81,0-3.29,1.47-3.29,3.29c0,1.81,1.47,3.29,3.29,3.29h239.26c1.81,0,3.29-1.47,3.29-3.29V3.29C724.23,1.47,722.76,0,720.95,0z
			"/>
	</g>
	<g>
		<path class="st0" d="M162.29,635.89c-6.26-4.94-14.33-7.42-24.22-7.42c-13.73,0-25.94,3.89-36.64,11.66l10.14,14.68
			c3.03-2.32,6.74-4.26,11.13-5.83c4.39-1.56,8.55-2.35,12.49-2.35c9.18,0,13.78,4.34,13.78,13.02v0.45h-16.96
			c-10.5,0-18.77,2.07-24.83,6.21c-6.06,4.14-9.08,10.37-9.08,18.7c0,8.33,2.93,14.99,8.78,19.98c5.85,5,13.1,7.49,21.72,7.49
			c8.63,0,15.87-3.68,21.73-11.05v9.84h21.35v-51.93C171.67,648.66,168.54,640.84,162.29,635.89z M148.81,680.25
			c0,4.14-1.54,7.44-4.62,9.92c-3.08,2.47-6.64,3.71-10.67,3.71c-4.04,0-7.14-0.78-9.31-2.35c-2.17-1.56-3.25-3.81-3.25-6.74
			c0-5.65,4.54-8.48,13.63-8.48h14.23V680.25z"/>
		<polygon class="st0" points="30.42,668.44 77.81,668.44 77.81,648.3 30.42,648.3 30.42,626.5 83.11,626.5 83.11,605.46 
			6.8,605.46 6.8,711.28 84.77,711.28 84.77,690.39 30.42,690.39 		"/>
		<path class="st0" d="M245.25,668.74c-3.03-1.82-5.63-3.15-7.8-4.01c-2.17-0.86-5.83-2.09-10.98-3.71
			c-5.15-1.61-8.83-3.03-11.05-4.24c-2.22-1.21-3.33-2.88-3.33-5c0-3.83,3.51-5.75,10.52-5.75c7.01,0,14.05,2.42,21.12,7.27
			l8.48-15.14c-9.59-6.46-19.18-9.69-28.76-9.69c-9.59,0-17.41,2.37-23.47,7.11c-6.06,4.75-9.08,10.88-9.08,18.4
			c0,7.52,3.08,13.2,9.23,17.03c3.03,1.92,5.73,3.38,8.1,4.39c2.37,1.01,5.8,2.22,10.29,3.63c4.49,1.41,7.92,2.93,10.29,4.54
			c2.37,1.62,3.56,3.38,3.56,5.3c0,1.92-0.86,3.46-2.57,4.62c-1.72,1.16-4.04,1.74-6.96,1.74c-9.59,0-18.62-3.28-27.1-9.84
			l-9.99,14.23c5.25,4.24,11.15,7.44,17.71,9.61c6.56,2.17,12.87,3.25,18.92,3.25c9.08,0,16.58-2.42,22.48-7.27
			c5.9-4.84,8.86-11.28,8.86-19.3C253.73,677.9,250.9,672.17,245.25,668.74z"/>
		<path class="st0" d="M324.12,629.83l-19.83,50.72l-19.83-50.72h-24.22c20.99,52.99,31.49,80.64,31.49,82.96
			c0,2.32-0.76,4.52-2.27,6.59c-1.51,2.07-3.33,3.1-5.45,3.1c-4.04,0-7.97-1.87-11.81-5.6l-10.29,16.8
			c7.06,6.46,14.58,9.69,22.56,9.69c5.75,0,10.98-1.54,15.67-4.62c4.69-3.08,8.15-7.39,10.37-12.94l37.85-95.98H324.12z"/>
	</g>
	<g>
		<path class="st1" d="M953.46,643.16c-6.86,0-12.34,2.47-16.43,7.42c-4.09,4.95-6.13,10.73-6.13,17.33
			c0,6.61,2.04,12.31,6.13,17.11c4.09,4.8,9.59,7.19,16.5,7.19c6.91,0,12.51-2.32,16.8-6.96c4.29-4.64,6.43-10.42,6.43-17.34
			c0-6.91-2.17-12.77-6.51-17.56C965.93,645.55,960.32,643.16,953.46,643.16z"/>
		<path class="st1" d="M457.8,686c0,3.94,1.51,6.94,4.54,9.01c3.03,2.07,7.24,3.1,12.64,3.1c5.4,0,10.12-1.51,14.15-4.54
			c4.04-3.03,6.06-7.12,6.06-12.26v-6.81h-19.08C463.91,674.49,457.8,678.33,457.8,686z"/>
		<path class="st1" d="M841.28,686c0,3.94,1.51,6.94,4.54,9.01c3.03,2.07,7.24,3.1,12.64,3.1c5.4,0,10.12-1.51,14.15-4.54
			c4.04-3.03,6.06-7.12,6.06-12.26v-6.81H859.6C847.39,674.49,841.28,678.33,841.28,686z"/>
		<path class="st1" d="M667.78,643.16c-6.86,0-12.34,2.47-16.43,7.42c-4.09,4.95-6.13,10.73-6.13,17.33
			c0,6.61,2.04,12.31,6.13,17.11c4.09,4.8,9.59,7.19,16.5,7.19c6.91,0,12.51-2.32,16.8-6.96c4.29-4.64,6.43-10.42,6.43-17.34
			c0-6.91-2.17-12.77-6.51-17.56C680.25,645.55,674.65,643.16,667.78,643.16z"/>
		<path class="st1" d="M1069.88,649.51c-4.24-3.63-9.46-5.45-15.67-5.45c-6.21,0-11.78,1.89-16.73,5.68
			c-4.95,3.79-7.42,8.91-7.42,15.37h46.18C1076.24,658.35,1074.12,653.15,1069.88,649.51z"/>
		<polygon class="st2" points="381.5,605.46 363.64,605.46 363.64,711.28 429.8,711.28 429.8,694.33 381.5,694.33 		"/>
		<path class="st2" d="M503.15,636.72c-6.01-4.79-13.75-7.19-23.24-7.19c-12.41,0-23.52,3.89-33.31,11.66l7.57,10.6
			c8.07-5.45,15.84-8.18,23.31-8.18c11.91,0,17.87,5.35,17.87,16.05v3.03H473.4c-9.99,0-17.92,1.97-23.77,5.9
			c-5.85,3.94-8.78,9.87-8.78,17.79c0,7.92,2.75,14.26,8.25,19c5.5,4.75,12.44,7.12,20.82,7.12c11.2,0,20.14-3.99,26.8-11.96v10.75
			h15.44v-51.93C512.15,649.06,509.15,641.52,503.15,636.72z M495.2,681.31c0,5.15-2.02,9.23-6.06,12.26
			c-4.04,3.03-8.76,4.54-14.15,4.54c-5.4,0-9.61-1.03-12.64-3.1c-3.03-2.07-4.54-5.07-4.54-9.01c0-7.67,6.11-11.51,18.32-11.51
			h19.08V681.31z"/>
		<path class="st2" d="M579.52,629.53c-5.55,0-10.72,1.42-15.52,4.24c-4.8,2.83-8.55,6.71-11.28,11.66v-14.69h-16.96v80.54h16.96
			v-43.6c0-7.47,2.17-13.14,6.51-17.03c4.34-3.88,9.44-5.83,15.29-5.83c12.31,0,18.47,7.42,18.47,22.25v44.21h16.96v-49.35
			c0-10.5-2.8-18.52-8.4-24.07C595.95,632.31,588.61,629.53,579.52,629.53z"/>
		<path class="st2" d="M691.1,642.7c-6.66-8.78-15.32-13.17-25.96-13.17c-10.65,0-19.4,3.74-26.27,11.2
			c-6.86,7.47-10.29,16.75-10.29,27.86c0,11.1,3.43,20.39,10.29,27.86c6.86,7.47,15.64,11.2,26.34,11.2
			c5.85,0,11.13-1.41,15.82-4.24c4.69-2.83,8.3-6.61,10.82-11.36v10.3c0,9.08-2.35,15.69-7.04,19.83
			c-4.69,4.14-11.05,6.21-19.08,6.21c-8.02,0-15.97-2.98-23.84-8.93l-8.02,12.87c9.79,7.57,20.74,11.35,32.85,11.35
			c12.11,0,22.03-3.56,29.75-10.67c7.72-7.12,11.58-17.79,11.58-32.02v-70.25H691.1V642.7z M684.66,685.24
			c-4.29,4.64-9.89,6.96-16.8,6.96c-6.91,0-12.41-2.4-16.5-7.19c-4.09-4.79-6.13-10.5-6.13-17.11c0-6.61,2.04-12.39,6.13-17.33
			c4.09-4.94,9.56-7.42,16.43-7.42c6.86,0,12.46,2.4,16.8,7.19c4.34,4.8,6.51,10.65,6.51,17.56
			C691.1,674.82,688.95,680.6,684.66,685.24z"/>
		<path class="st2" d="M788.9,674.34c0,7.47-2.17,13.15-6.51,17.03c-4.34,3.89-9.44,5.83-15.29,5.83
			c-12.31,0-18.47-7.42-18.47-22.26v-44.21h-16.96v49.35c0,10.5,2.8,18.52,8.4,24.07c5.6,5.55,12.94,8.33,22.03,8.33
			c5.55,0,10.72-1.41,15.52-4.24c4.79-2.82,8.55-6.71,11.28-11.66v14.68h16.96v-80.54H788.9V674.34z"/>
		<path class="st2" d="M886.62,636.72c-6.01-4.79-13.75-7.19-23.24-7.19c-12.41,0-23.52,3.89-33.31,11.66l7.57,10.6
			c8.07-5.45,15.84-8.18,23.31-8.18c11.91,0,17.87,5.35,17.87,16.05v3.03h-21.95c-9.99,0-17.92,1.97-23.77,5.9
			c-5.85,3.94-8.78,9.87-8.78,17.79c0,7.92,2.75,14.26,8.25,19c5.5,4.75,12.44,7.12,20.82,7.12c11.2,0,20.14-3.99,26.8-11.96v10.75
			h15.44v-51.93C895.63,649.06,892.63,641.52,886.62,636.72z M878.67,681.31c0,5.15-2.02,9.23-6.06,12.26
			c-4.04,3.03-8.76,4.54-14.15,4.54c-5.4,0-9.61-1.03-12.64-3.1c-3.03-2.07-4.54-5.07-4.54-9.01c0-7.67,6.11-11.51,18.32-11.51
			h19.08V681.31z"/>
		<path class="st2" d="M976.78,642.7c-6.66-8.78-15.32-13.17-25.96-13.17c-10.65,0-19.4,3.74-26.27,11.2
			c-6.86,7.47-10.29,16.75-10.29,27.86c0,11.1,3.43,20.39,10.29,27.86c6.86,7.47,15.64,11.2,26.34,11.2
			c5.85,0,11.13-1.41,15.82-4.24c4.69-2.83,8.3-6.61,10.82-11.36v10.3c0,9.08-2.35,15.69-7.04,19.83
			c-4.69,4.14-11.05,6.21-19.08,6.21c-8.02,0-15.97-2.98-23.84-8.93l-8.02,12.87c9.79,7.57,20.74,11.35,32.85,11.35
			c12.11,0,22.03-3.56,29.75-10.67c7.72-7.12,11.58-17.79,11.58-32.02v-70.25h-16.96V642.7z M970.34,685.24
			c-4.29,4.64-9.89,6.96-16.8,6.96c-6.91,0-12.41-2.4-16.5-7.19c-4.09-4.79-6.13-10.5-6.13-17.11c0-6.61,2.04-12.39,6.13-17.33
			c4.09-4.94,9.56-7.42,16.43-7.42c6.86,0,12.46,2.4,16.8,7.19c4.34,4.8,6.51,10.65,6.51,17.56
			C976.78,674.82,974.63,680.6,970.34,685.24z"/>
		<path class="st2" d="M1093.2,666.77c0-11.6-3.84-20.72-11.51-27.33c-7.67-6.61-16.98-9.92-27.93-9.92
			c-10.95,0-20.46,3.74-28.54,11.2c-8.08,7.47-12.11,17.54-12.11,30.2c0,12.67,3.96,22.76,11.88,30.28
			c7.92,7.52,17.54,11.28,28.84,11.28c13.93,0,25.23-4.49,33.91-13.47l-9.69-10.6c-5.25,6.36-12.92,9.54-23.01,9.54
			c-6.36,0-12.01-1.79-16.96-5.37c-4.95-3.58-7.62-8.3-8.02-14.16h63.13V666.77z M1030.06,665.11c0-6.46,2.47-11.58,7.42-15.37
			c4.94-3.79,10.52-5.68,16.73-5.68c6.21,0,11.43,1.82,15.67,5.45c4.24,3.63,6.36,8.83,6.36,15.59H1030.06z"/>
	</g>
</g>
</svg>
