<svg width="1440" height="780" viewBox="0 0 1440 780" fill="none" xmlns="http://www.w3.org/2000/svg">
<path d="M713.06 308.907C714.596 308.688 714.752 300.824 713.875 300.73C710.742 300.448 709.551 309.44 713.06 308.907Z" stroke="#808080" stroke-opacity="0.6" stroke-miterlimit="10"/>
<path d="M380.403 422.915C382.972 421.975 399.546 425.453 399.546 420.19C399.546 416.806 382.502 412.357 380.403 413.924C380.569 416.176 381.51 418.302 383.066 419.939C383.066 421.599 375.892 419.751 375.265 421.505C375.764 422.369 376.583 423.001 377.545 423.265C378.506 423.529 379.533 423.403 380.403 422.915Z" stroke="#808080" stroke-opacity="0.6" stroke-miterlimit="10"/>
<path d="M530.754 526.554C523.799 526.929 517.094 518.001 509.481 516.935C502.714 515.995 502.307 515.275 496.354 517.719C502.996 514.993 485.639 506.973 485.545 506.941C482.632 506.158 479.655 514.053 477.024 512.925C477.556 513.144 480.157 506.659 477.494 504.216C474.831 501.772 470.1 507.662 469.849 507.505C470.288 507.756 477.274 490.023 468.753 485.387C460.544 479.998 453.808 481 446.352 477.272C439.397 473.763 438.77 465.148 428.995 465.774C432.974 465.524 421.288 455.341 424.515 456.626C419.315 454.558 409.258 458.944 402.585 457.441C399.922 456.877 398.199 450.047 394.345 450.047C388.455 450.047 390.053 460.605 389.113 462.579C386.387 468.563 385.291 446.914 388.048 448.668C386.074 447.415 372.383 456.939 370.848 458.067C367.715 460.386 366.524 464.897 363.329 465.837C368.717 464.239 346.097 461.733 350.797 463.519C336.479 458.067 343.027 456.219 339.142 443.593C338.014 440.021 341.743 438.33 338.704 435.071C335.665 431.813 323.603 431.312 319.906 433.693C317.274 435.134 320.251 423.793 321.41 422.602C326.078 417.871 327.676 406.937 320.345 406.687C308.345 406.373 314.267 416.994 306.81 420.691C284.378 431.844 283.376 400.295 284.096 387.043C283.821 386.848 283.527 386.68 283.219 386.542C283.527 386.68 283.821 386.848 284.096 387.043C285.318 363.703 302.142 370.031 316.178 371.66C312.481 371.222 315.614 365.645 319.875 365.394C323.849 365.541 327.765 366.401 331.435 367.932C338.516 370.031 336.73 367.932 341.993 376.861C344.061 380.433 344.876 389.393 349.512 390.865C349.92 390.865 349.262 358.22 351.925 354.304C355.277 349.354 363.297 343.213 365.835 339.955C371.631 332.53 366.054 340.895 366.775 332.279C366.775 331.37 364.457 319.089 368.404 319.089C366.869 319.089 369.751 330.619 369.595 330.713C373.542 327.987 370.973 323.977 371.161 320.875C371.161 318.4 383.944 314.171 384.977 311.915C385.416 310.975 378.868 311.915 378.868 311.727C378.868 308.406 389.144 308.97 390.648 307.936C391.246 303.686 392.73 299.609 395.003 295.968C399.64 291.175 411.2 292.24 414.772 284.909C414.333 285.817 416.307 289.452 418.782 288.731C409.665 291.394 405.31 296.25 416.244 294.621C421.821 293.775 430.28 288.355 434.447 285.222C434.697 285.034 432.536 282.34 432.849 280.46C432.661 281.65 425.956 286.945 424.39 286.726C413.738 284.783 418.813 277.64 414.678 274.883C413.576 275.41 412.355 275.637 411.138 275.541C410.01 271.719 424.014 268.837 410.542 267.082C401.144 265.86 396.601 279.395 390.209 279.395C393.342 279.395 407.472 262.226 414.145 260.597C416.808 259.72 454.404 256.994 451.271 248.692C450.409 248.193 449.52 247.743 448.608 247.345C446.007 244.932 455.406 242.551 444.974 241.329C444.723 240.188 444.628 239.018 444.692 237.852C443.689 237.163 433.162 241.517 433.162 241.486C432.348 237.664 442.906 237.225 444.096 235.22C444.096 235.377 421.508 224.411 423.544 221.717C427.711 216.328 427.68 222.344 424.985 213.979C424.233 211.692 414.177 197.593 414.897 196.935C410.01 201.353 412.767 211.41 404.245 211.441C394.846 211.441 395.755 200.664 395.755 194.492C395.755 191.766 372.414 184.811 370.691 184.874C357.501 185.218 362.921 186.064 362.107 196.528C361.95 198.314 360.008 205.739 360.196 206.804C361.762 214.919 368.467 217.519 364.363 227.92C363.109 231.053 355.622 231.962 354.964 233.81C354.243 236.285 357.877 238.792 357.313 241.737C357.094 242.927 358.535 254.112 357.783 253.767C352.802 251.417 354.995 256.054 349.418 251.073C343.153 245.465 347.507 237.351 343.842 233.09C342.401 231.367 324.198 224.474 320.157 222.626C314.835 219.613 308.601 218.633 302.612 219.869C304.21 219.618 301.108 210.47 300.419 209.436C296.471 202.731 292.211 210.188 294.592 196.904C295.187 193.583 310.037 177.636 310.256 178.106C310.256 177.448 298.101 172.906 298.195 172.686C299.886 168.645 310.194 179.892 313.014 171.402C311.729 175.318 329.336 167.58 324.95 164.415C323.102 163.1 312.763 164.415 313.389 159.559C312.982 162.692 335.539 163.945 326.579 155.956C326.266 155.674 334.788 155.956 336.511 155.956C337.701 155.956 333.378 151.821 333.66 151.414C334.944 150.129 339.456 157.68 345.377 151.1C349.951 145.994 342.996 145.461 342.714 140.511C342.714 139.947 349.763 138.036 347.413 134.496C345.628 131.801 336.26 128.574 333.158 129.577C330.997 130.266 333.942 140.793 328.083 144.208C327.305 143.44 326.706 142.509 326.329 141.482C323.854 141.639 328.553 150.63 325.389 149.158C322.224 147.685 321.942 141.294 321.441 140.856C320.188 139.759 318.527 135.717 316.428 133.838C314.329 131.958 312.324 140.824 311.51 140.981C308.377 141.545 311.917 133.305 312.136 132.929C313.577 130.235 304.523 131.112 304.68 131.269C301.798 128.762 306.654 127.384 307.155 126.601C306.528 127.603 300.2 116.293 300.2 116.356C296.033 106.957 298.853 116.356 297.787 105.672C298.289 110.654 317.149 97.3701 310.601 95.2084C304.053 93.0467 294.435 92.3261 292.963 97.6208C292.148 100.754 292.618 112.659 291.396 117.452C290.989 118.988 285.851 121.463 287.637 127.572C288.357 129.953 302.079 133.054 295.626 138.286C295.674 137.624 295.98 137.007 296.478 136.568C296.975 136.129 297.626 135.902 298.289 135.937C298.477 136.344 291.271 149.534 292.023 148.97C289.097 146.32 286.335 143.495 283.752 140.511C283.376 139.822 292.931 138.349 293.433 137.879C297.129 134.276 288.013 134.339 288.013 133.806C288.013 132.773 292.9 133.399 291.145 132.052C289.974 131.173 288.635 130.541 287.212 130.195C285.789 129.849 284.31 129.796 282.865 130.04C281.421 130.283 280.04 130.817 278.809 131.61C277.577 132.403 276.519 133.438 275.7 134.652C274.008 136.908 289.14 142.673 270.938 145.022C262.636 146.088 259.252 141.889 252.14 140.229C250.041 139.728 250.135 137.535 246.344 137.096C245.028 137.096 236.005 140.918 238.762 142.171C240.768 143.049 248.161 137.973 249.383 139.258C244.496 133.9 243.587 154.359 240.423 152.698C239.013 151.946 239.89 147.027 235.598 145.618C229.708 143.644 216.362 149.722 211.976 144.897C209.845 142.579 217.584 142.015 216.988 140.636C214.827 135.623 202.546 135.279 198.191 134.214C193.836 133.148 190.515 130.673 186.536 130.235C181.743 129.734 179.926 133.148 175.477 133.148C174.819 133.148 176.385 127.196 174.318 126.883C172.891 129.262 171.068 131.381 168.929 133.148C164.668 132.835 165.232 122.371 160.157 123.154C163.603 122.622 152.92 130.736 153.64 130.329C149.104 133.214 144.407 135.84 139.573 138.193C136.91 138.036 154.58 127.196 154.549 127.603C154.737 125.473 139.26 132.021 137.537 132.96C135.814 133.9 137.537 130.235 134.404 131.3C127.01 133.963 132.273 136.25 130.488 138.193C131.208 137.441 84.7778 127.259 81.7075 127.008C77.1647 126.632 48.9368 123.436 47.245 121.494C44.112 118.11 36.0603 121.713 32.3634 125.755C29.3871 128.888 7.29979 133.869 6.32857 138.662C4.07284 148.719 27.5387 150.599 29.3245 156.082C29.3245 156.52 2.91365 155.079 0 162.034C1.00255 159.653 7.39378 169.647 8.0517 169.898C11.1847 171.026 27.2254 167.58 27.288 167.674C31.7995 172.154 21.9933 178.232 19.581 180.487C16.6673 183.182 16.448 178.827 12.9391 183.401C10.8726 185.35 8.66293 187.14 6.32857 188.758C7.08048 188.069 11.6546 198.314 11.8112 198.439C14.5996 200.883 23.1525 200.852 22.15 199.849C24.8443 202.543 21.8994 208.183 24.4057 209.499C26.0975 210.407 31.9561 209.687 35.1831 211.002C32.3008 209.843 44.0493 205.896 43.3601 207.869C41.7623 212.694 22.4946 236.066 19.675 232.933C23.0585 236.661 57.803 213.195 57.803 207.65C56.8812 206.869 55.8174 206.274 54.6701 205.896C53.8868 203.922 73.4678 187.631 72.7785 193.959C72.7785 193.301 61.0926 202.888 63.787 205.363C64.6015 206.084 77.5406 201.603 79.4517 200.852C81.3628 200.1 74.7523 194.241 79.4517 193.395C81.0495 193.113 87.2215 196.747 87.4721 196.528C87.1774 196.439 86.8671 196.415 86.562 196.455C86.2569 196.496 85.9641 196.602 85.7031 196.765C85.4421 196.928 85.2189 197.145 85.0485 197.401C84.8782 197.658 84.7645 197.947 84.7151 198.251C85.3104 200.131 112.348 198.941 114.04 200.444C113.225 199.724 131.396 215.42 131.208 211.034C130.436 209.481 130.236 207.706 130.644 206.021C139.291 212.287 126.603 214.041 126.634 213.665C126.634 214.104 133.213 223.378 132.9 223.472C134.122 222.814 131.208 215.075 133.182 215.796C133.626 216.777 133.809 217.856 133.715 218.929C135.908 221.748 136.284 212.663 136.002 213.289C136.472 212.068 136.691 225.257 135.312 225.069C133.307 224.787 146.81 223.91 142.831 225.853C144.085 225.226 137.913 221.56 141.328 221.278C146.591 220.84 142.455 225.727 138.947 226.041C138.922 228.613 139.132 231.182 139.573 233.716C140.638 234.5 145.463 229.957 147.907 230.395C150.35 230.834 149.912 239.794 151.259 241.674C152.23 243.021 158.997 249.82 159.875 251.073C164.109 255.485 168.889 259.338 174.098 262.539C173.628 262.164 191.893 277.578 181.837 277.578C181.461 277.578 170.934 249.224 159.248 257.464C161.692 255.741 174.913 274.758 175.821 277.202C180.709 291.237 172.688 307.56 178.14 322.88C181.868 333.376 191.705 340.017 198.347 347.223C202.418 352.164 205.957 357.519 208.905 363.201C213.574 371.096 214.607 373.101 213.668 377.613C213.668 377.832 234.721 399.857 233.906 400.452C235.911 399.011 213.041 357.719 213.699 357.625C221.97 356.779 222.69 369.718 224.226 372.099C228.455 378.647 236.162 384.631 240.799 390.709C248.725 400.891 249.79 411.574 256.871 418.905C261.57 423.761 272.536 427.991 278.802 429.965C287.073 432.596 295.814 430.121 302.487 436.638C305.62 439.551 310.35 439.771 312.481 441.807C318.34 447.196 320.752 444.501 326.235 450.141C329.931 453.932 330.997 457.409 333.127 459.54C336.636 462.986 342.526 469.534 347.821 469.91C353.115 470.286 351.424 464.082 354.087 464.709C365.866 467.497 363.736 483.287 358.974 492.906C353.836 503.401 347.257 505.218 353.053 515.807C353.46 516.559 347.319 526.522 347.915 529.624C349.042 535.514 362.201 552.964 365.271 559.074C371.161 570.666 378.68 571.856 387.014 581.318C394.627 589.965 392.215 596.982 390.899 608.762C388.988 626.025 388.486 643.005 384.821 659.735C383.348 666.409 370.691 701.153 375.422 707.826C377.584 710.959 378.555 699.085 380.56 698.427C382.565 697.769 379.276 724.337 377.176 722.864C376.08 722.081 378.398 714.249 375.516 715.533C378.148 714.374 370.127 726.593 370.096 726.718C370.409 723.272 374.2 730.916 374.357 732.138C374.607 734.268 378.994 730.728 378.774 733.83C379.088 729.193 365.616 739.156 371.976 738.185C373.028 737.57 373.997 736.823 374.858 735.96C375.798 735.772 368.216 743.887 373.292 744.701C374.294 744.858 374.827 739.5 376.237 740.91C379.213 743.887 370.566 750.309 372.602 752.753C373.01 753.254 377.239 750.842 378.054 752.534C378.304 753.066 375.203 755.479 375.704 755.666C377.396 756.293 381.249 754.006 381.97 756.45C382.69 758.893 374.451 756.638 377.27 760.648C378.336 762.152 385.04 755.792 386.293 759.959C385.949 758.768 378.774 763.718 378.524 764.031C381.427 763.183 384.377 762.503 387.359 761.995C387.985 763.374 377.552 767.415 377.27 766.225C377.584 767.572 383.536 771.3 384.539 770.36C386.168 768.7 382.377 769.514 383.724 767.76C384.664 766.506 392.685 762.058 393.123 760.867C392.416 761.294 391.836 761.903 391.444 762.63C391.053 763.358 390.864 764.177 390.899 765.003C392.097 765.221 393.319 765.284 394.533 765.191C393.53 764.063 392.121 770.454 392.497 770.266C391.992 769.808 391.585 769.253 391.3 768.634C391.014 768.015 390.857 767.344 390.836 766.663C389.05 765.88 389.959 770.423 389.708 770.235C389.526 769.64 389.122 769.138 388.579 768.835C388.036 768.531 387.397 768.449 386.795 768.606C388.267 766.538 384.977 774.872 384.977 772.021C384.977 770.423 390.053 776.689 389.928 776.563C390.615 775.539 391.094 774.389 391.337 773.18C394.038 775.274 396.852 777.22 399.765 779.007C401.331 779.477 398.637 775.341 399.546 775.467C403.682 775.114 407.763 774.273 411.702 772.96C406.062 770.893 399.17 760.867 398.105 760.429C397.259 760.209 394.063 760.898 394.533 758.737C395.003 756.575 398.011 759.489 398.794 758.737C399.577 757.985 395.254 751.312 396.162 749.338C397.572 746.205 400.047 745.328 401.645 742.414C403.775 738.529 409.039 735.553 409.352 731.229C409.634 727.814 404.433 727.752 404.684 726.781C405.655 723.021 408.067 713.81 411.952 708.923C413.425 707.043 418.437 702.124 418.406 702.093C417.184 701.059 407.597 701.905 412.641 694.292C411.044 696.673 424.077 692.224 423.419 692.6C425.205 691.566 423.168 685.551 424.077 684.58C428.526 679.849 444.911 686.71 446.759 674.084C447.167 671.296 439.491 661.553 439.334 661.74C441.935 659.015 454.059 664.873 460.732 657.793C462.393 656.038 470.695 641.345 470.664 641.784C469.856 643.933 468.805 645.983 467.531 647.893C467.531 644.979 477.274 636.927 478.527 633.544C480.345 628.719 478.152 622.422 480.658 617.879C485.702 609.044 497.012 610.736 503.278 606.788C511.33 601.682 513.648 594.257 516.123 584.858C517.658 579.03 516.123 564.18 519.256 559.512C518.817 560.452 550.648 525.426 530.754 526.554Z" stroke="#808080" stroke-opacity="0.6" stroke-miterlimit="10"/>
<path d="M376.08 413.391C380.685 407.126 328.616 395.91 335.132 405.402C331.999 400.86 355.904 406.938 357.063 407.564C360.948 409.789 370.409 421.005 376.08 413.391Z" stroke="#808080" stroke-opacity="0.6" stroke-miterlimit="10"/>
<path d="M359.475 421.944C360.196 423.292 366.931 425.078 367.621 423.511C368.31 421.944 358.598 420.253 359.475 421.944Z" stroke="#808080" stroke-opacity="0.6" stroke-miterlimit="10"/>
<path d="M405.06 422.32C406.626 425.046 411.326 423.417 411.608 422.32C412.328 420.378 403.462 419.626 405.06 422.32Z" stroke="#808080" stroke-opacity="0.6" stroke-miterlimit="10"/>
<path d="M430.405 757.734C432.536 758.893 436.953 753.066 435.011 752.69C433.068 752.314 428.369 756.638 430.405 757.734Z" stroke="#808080" stroke-opacity="0.6" stroke-miterlimit="10"/>
<path d="M435.606 758.142C437.016 758.893 442.843 756.23 442.154 754.821C440.869 751.907 434.29 757.358 435.606 758.142Z" stroke="#808080" stroke-opacity="0.6" stroke-miterlimit="10"/>
<path d="M307.343 503.402C305.557 506.315 309.097 509.166 309.818 507.882C310.538 506.597 309.129 500.488 307.343 503.402Z" stroke="#808080" stroke-opacity="0.6" stroke-miterlimit="10"/>
<path d="M466.528 131.833C466.904 124.815 456.158 128.23 454.56 128.7C452.962 129.17 466.027 140.417 466.528 131.833Z" stroke="#808080" stroke-opacity="0.6" stroke-miterlimit="10"/>
<path d="M586.959 127.039C585.675 127.823 569.853 125.348 569.759 125.629C570.167 124.564 575.492 118.455 574.803 118.204C578.281 119.52 588.275 131.394 588.745 120.397C589.121 113.975 579.722 113.975 578.343 108.649C577.936 107.176 590.562 112.722 588.024 104.889C586.614 100.441 574.208 108.022 574.709 103.26C574.521 104.921 579.001 97.4329 578.218 98.2788C582.166 93.924 600.149 108.931 588.526 93.8613C588.056 93.2661 598.958 93.454 599.491 91.2296C600.024 89.0052 588.651 89.3185 591.22 84.9637C594.353 79.6377 602.593 87.3761 597.486 76.4734C597.674 76.8494 584.359 72.3066 586.395 70.2075C588.432 68.1084 604.065 70.2075 603.47 67.7951C601.966 62.0932 594.228 68.1084 593.601 63.221C593.256 60.6833 598.3 63.221 599.052 61.9052C601.872 57.4564 586.834 61.0593 587.366 61.4666C583.294 58.3336 604.034 39.0033 604.629 39.8179C600.838 34.7425 597.361 43.2014 594.666 40.5384C591.972 37.8754 609.673 35.651 610.143 35.3377C611.647 34.3978 600.744 32.2048 600.212 32.9253C602.123 29.7924 627.656 30.0744 627.656 23.0252C627.656 13.6263 603.439 22.6492 600.744 23.5265C598.614 24.1844 595.543 21.4274 594.071 21.9913C589.215 23.8398 584.672 31.7348 579.534 32.4867C584.641 31.7348 590.437 19.391 582.103 17.9185C580.787 17.6992 566.689 28.1006 565.812 24.9676C565.122 22.4926 574.302 21.3334 574.083 19.2657C573.644 14.8795 544.132 21.7407 544.069 21.0828C543.63 15.0988 585.173 17.5112 589.34 11.8719C591.659 8.73895 536.519 -0.158645 531.537 1.12587C530.284 1.43916 522.796 4.10217 521.95 4.25882C520.225 4.04601 518.488 3.95179 516.75 3.97684C507.351 5.04205 498.234 4.41545 488.866 6.20124C487.707 6.42054 492.939 9.92946 492.877 10.2428C492.814 10.556 484.668 11.0886 485.796 12.5611C485.545 12.2478 497.325 20.9261 496.511 21.1141C489.9 22.5239 477.713 7.4231 471.134 12.3105C469.505 13.501 475.99 17.4799 475.99 18.3884C475.99 22.0227 462.706 14.2529 463.082 14.2529C462.111 14.2529 462.487 22.1793 460.607 23.3698C466.34 19.7983 453.527 14.7542 451.522 14.5662C449.353 14.3872 447.181 14.8729 445.295 15.9587C443.409 17.0444 441.898 18.6787 440.963 20.6442C437.987 21.678 433.601 18.0751 429.747 19.6416C426.99 20.7695 432.191 25.4063 428.369 27.5053C427.335 28.0693 400.548 28.7272 404.12 36.9042C406.814 43.1701 421.289 36.6222 408.443 47.1176C404.934 49.9686 394.784 48.8094 390.366 51.8171C369.845 65.8214 409.352 56.5792 408.945 64.3489C408.945 65.2261 387.985 65.2574 388.392 67.1999C388.925 70.0509 403.055 76.5987 406.814 76.9434C414.427 77.6639 421.727 71.962 431.878 76.9434C440.775 81.2355 449.767 90.0391 452.43 99.9706C455.563 111.594 448.169 113.066 460.356 113.066C463.398 117.168 466.887 120.92 470.758 124.251C470.319 124.596 457.161 119.05 457.161 122.403C457.161 130.235 475.52 124.502 470.633 138.475C469.881 140.542 464.085 137.597 462.362 141.827C461.016 144.623 460.31 147.684 460.294 150.787C460.012 156.426 468.471 175.851 474.705 184.498C479.718 191.359 482.694 192.424 489.775 195.62C500.866 200.601 498.297 201.228 504.562 191.954C506.975 188.32 503.247 184.811 504.218 181.991C504.719 180.519 509.513 180.55 510.233 177.386C511.142 173.313 510.578 166.577 511.11 164.854C512.45 164.702 513.806 164.885 515.058 165.387C515.59 165.073 522.483 155.8 523.298 155.8C523.813 156.258 524.15 156.884 524.247 157.566C524.345 158.249 524.197 158.944 523.83 159.528C525.177 163.758 540.999 149.659 541.312 149.409C547.359 145.022 546.481 144.741 551.87 142.359C563.807 137.253 577.247 132.773 586.959 127.039Z" stroke="#808080" stroke-opacity="0.6" stroke-miterlimit="10"/>
<path d="M183.027 78.5723C186.474 76.6926 186.474 78.5724 189.074 75.8467C189.807 77.1686 190.761 78.3553 191.894 79.3556C195.998 79.3556 197.658 70.5207 200.227 69.9567C202.796 69.3928 201.011 77.7891 206.932 72.0558C209.188 69.8941 208.686 67.889 210.879 65.4766C211.475 64.8187 198.348 65.2573 196.593 65.8526C191.612 67.607 182.839 78.6977 183.027 78.5723Z" stroke="#808080" stroke-opacity="0.6" stroke-miterlimit="10"/>
<path d="M209.281 75.0634C203.36 75.5333 212.414 79.3869 212.226 78.447C209.798 78.4678 207.423 79.1619 205.365 80.4521C204.3 81.9559 211.287 81.392 210.535 81.6739C207.966 81.8014 205.492 82.6841 203.423 84.2116C207.214 89.7569 213.668 84.4936 216.675 82.6138C215.109 83.585 225.886 86.248 226.607 85.1515C225.573 86.6867 215.453 88.0965 215.61 89.7256C216.174 94.989 235.818 88.0025 238.731 86.5927C248.475 82.3318 251.263 85.7781 246.752 77.1938C247.159 77.883 236.225 70.3326 234.502 71.2412C229.426 73.8729 237.635 79.1362 236.413 80.9847C233.499 85.7781 223.662 75.596 221.343 75.0007C215.359 73.7475 214.232 74.6874 209.281 75.0634Z" stroke="#808080" stroke-opacity="0.6" stroke-miterlimit="10"/>
<path d="M275.606 116.857C282.781 122.246 291.271 102.101 286.634 101.85C286.023 102.347 285.604 103.041 285.45 103.813C285.296 104.585 285.415 105.386 285.788 106.08C286.29 105.015 279.898 102.947 280.024 102.947C278.645 100.785 289.141 98.8113 282.342 94.2059C277.298 90.7596 277.893 97.1509 277.987 97.1195C278.864 96.6809 262.886 95.2711 267.962 99.8452C269.676 100.321 271.426 100.656 273.194 100.848C279.209 106.08 262.73 103.26 264.422 102.947C259.628 103.949 274.134 115.761 275.606 116.857Z" stroke="#808080" stroke-opacity="0.6" stroke-miterlimit="10"/>
<path d="M175.069 113.38C177.084 115.561 178.977 117.852 180.74 120.241C185.063 120.241 189.606 113.975 191.737 112.346C197.313 108.179 205.24 104.106 210.879 99.4381C212.978 97.715 185.157 89.726 181.523 90.8538C169.869 94.5194 180.019 92.013 176.228 98.4356C175.038 100.409 168.772 110.748 169.555 111.719C171.265 112.633 173.139 113.197 175.069 113.38V113.38Z" stroke="#808080" stroke-opacity="0.6" stroke-miterlimit="10"/>
<path d="M196.342 81.486C199.475 81.862 202.608 78.7603 202.608 77.0059C202.608 75.2514 194.744 81.298 196.342 81.486Z" stroke="#808080" stroke-opacity="0.6" stroke-miterlimit="10"/>
<path d="M384.476 120.241C384.931 120.241 385.382 120.15 385.801 119.972C386.22 119.794 386.598 119.534 386.914 119.206C387.23 118.879 387.477 118.491 387.639 118.066C387.802 117.64 387.877 117.187 387.86 116.732C388.612 119.301 374.482 111.907 373.198 111.469C370.065 110.404 372.039 107.521 366.932 106.362C363.454 105.579 358.128 110.748 358.285 110.78C353.585 109.119 355.559 111.124 350.233 111.124C346.317 111.124 352.927 89.6634 335.916 99.9395C325.639 106.205 334.161 109.338 334.631 115.98C334.631 117.077 326.955 113.693 327.269 108.712C327.551 104.2 333.19 100.159 333.19 97.3078C333.19 92.0444 314.674 103.574 313.766 107.772C312.544 113.286 320.501 124.314 323.76 119.99C322.914 121.087 315.081 118.957 315.301 121.024C316.429 132.334 357.188 125.285 358.066 127.572C357.524 127.22 357.061 126.76 356.705 126.221C356.349 125.682 356.109 125.075 355.998 124.439C356.562 122.559 370.347 132.992 370.441 133.838C368.857 134.738 367.514 136.006 366.525 137.535C369.156 139.728 372.07 135.311 376.456 139.853C381.406 144.991 381.312 143.926 382.503 151.727C382.753 153.356 397.478 148.594 394.815 155.393C392.152 162.191 388.236 153.638 386.293 154.265C384.351 154.892 379.307 155.08 376.613 155.894C376.816 157.637 377.37 159.321 378.242 160.844C374.075 162.881 367.308 161.064 364.112 163.977C352.364 174.034 376.644 167.925 379.996 168.99C383.348 170.055 403.65 194.868 408.913 187.788C410.229 185.97 399.984 174.88 398.073 175.256C405.843 173 417.247 185.845 413.174 172.843C411.357 167.047 397.509 162.567 403.587 155.33C406.094 152.197 416.558 165.136 418.312 165.074C418.312 165.074 428.588 154.296 428.588 154.359C428.588 147.153 400.204 143.268 401.112 136.282C402.839 135.493 404.699 135.037 406.595 134.935C405.344 133.653 403.741 132.77 401.99 132.397C401.52 128.105 406.532 128.324 399.327 128.324C404.559 128.324 392.089 122.653 391.619 122.465C390.147 121.996 384.476 120.241 384.476 120.241Z" stroke="#808080" stroke-opacity="0.6" stroke-miterlimit="10"/>
<path d="M140.701 238.98C137.411 240.891 144.805 249.945 146.779 248.598C147.374 248.159 145.526 236.16 140.701 238.98Z" stroke="#808080" stroke-opacity="0.6" stroke-miterlimit="10"/>
<path d="M258.406 85.3708C259.628 83.8044 255.743 80.5148 254.678 83.2404C253.613 85.9661 257.027 86.9686 258.406 85.3708Z" stroke="#808080" stroke-opacity="0.6" stroke-miterlimit="10"/>
<path d="M354.149 189.604C355.402 189.385 357.877 184.529 354.682 184.717C351.486 184.905 352.238 189.886 354.149 189.604Z" stroke="#808080" stroke-opacity="0.6" stroke-miterlimit="10"/>
<path d="M371.882 148.187C381.563 146.401 362.483 139.414 365.616 142.109C367.715 143.832 360.227 150.317 371.882 148.187Z" stroke="#808080" stroke-opacity="0.6" stroke-miterlimit="10"/>
<path d="M338.484 185.312C341.335 187.255 345.565 182.023 345.22 180.456C344.875 178.89 335.132 182.9 338.484 185.312Z" stroke="#808080" stroke-opacity="0.6" stroke-miterlimit="10"/>
<path d="M304.492 85.7785C306.121 90.7912 346.63 92.8589 351.33 89.444C370.127 75.8783 311.635 82.6768 312.418 78.2593C313.318 77.0795 314.371 76.0258 315.551 75.1264C316.992 73.2153 283.752 66.5107 286.289 70.4583C293.276 81.1103 299.824 71.0535 304.492 85.7785Z" stroke="#808080" stroke-opacity="0.6" stroke-miterlimit="10"/>
<path d="M263.732 129.326C264.672 128.105 269.215 131.833 269.403 129.138C269.403 127.227 255.9 117.609 254.709 114.539C254.045 110.396 253.741 106.203 253.8 102.007C255.398 100.566 255.242 98.8742 253.268 97.4644C251.92 96.9931 250.463 96.9258 249.077 97.2709C247.691 97.616 246.437 98.3583 245.467 99.4068C247.329 100.721 248.996 102.293 250.417 104.075C250.417 103.166 241.551 99.9707 240.673 101.725C239.42 104.232 244.715 113.317 243.023 114.257C242.71 114.257 231.055 101.161 230.491 104.138C231.729 105.192 232.788 106.44 233.624 107.834C233.624 108.304 227.17 108.022 227.515 108.931C222.847 96.5871 218.993 111.375 214.764 107.396C214.325 106.957 222.032 101.13 212.947 101.13C209.438 101.13 200.415 106.174 199.256 109.119C193.992 121.651 205.804 112.44 210.754 116.262C211.004 116.45 200.29 119.238 200.29 120.711C200.29 127.29 225.635 120.053 225.635 125.598C225.635 126.945 202.796 125.598 203.705 129.295C206.054 139.509 235.034 137.472 240.924 136.658C244.002 135.897 247.153 135.466 250.323 135.373C252.297 135.373 268.525 140.95 266.583 134.339C265.016 129.17 261.288 135.906 260.004 132.397C261.064 131.17 262.325 130.132 263.732 129.326V129.326Z" stroke="#808080" stroke-opacity="0.6" stroke-miterlimit="10"/>
<path d="M416.213 263.104C416.558 264.639 426.865 269.37 427.21 267.176C427.554 264.983 415.9 261.756 416.213 263.104Z" stroke="#808080" stroke-opacity="0.6" stroke-miterlimit="10"/>
<path d="M313.421 62.8137C310.288 61.0592 306.215 64.7561 309.536 66.1346C312.481 67.2938 316.742 64.5681 313.421 62.8137Z" stroke="#808080" stroke-opacity="0.6" stroke-miterlimit="10"/>
<path d="M285.882 60.307C306.747 60.307 282.122 48.6838 280.744 50.9081C279.365 53.1325 283.438 60.307 285.882 60.307Z" stroke="#808080" stroke-opacity="0.6" stroke-miterlimit="10"/>
<path d="M288.013 41.0394C288.201 41.0394 304.461 48.6525 303.677 46.0835C304.116 47.3993 296.19 49.2164 296.597 49.7803C301.798 55.5136 309.975 59.1792 317.337 57.1741C317.838 57.1741 332.657 43.8277 332.219 46.0835C331.623 49.2164 321.285 35.6194 320.721 35.1808C320.157 34.7422 298.195 23.2129 296.064 24.842C296.227 25.4411 296.564 25.9783 297.033 26.3855C297.501 26.7927 298.08 27.0515 298.696 27.1291C298.696 28.3509 293.307 27.3797 292.806 28.3823C293.809 29.1759 294.78 29.9905 295.72 30.826C294.654 32.8937 288.451 29.8234 288.671 33.9589C289.985 35.5392 291.647 36.7938 293.527 37.6245C293.652 39.8175 281.778 37.6245 288.013 41.0394Z" stroke="#808080" stroke-opacity="0.6" stroke-miterlimit="10"/>
<path d="M349.732 97.6207C345.252 108.21 367.809 105.766 367.809 103.448C367.809 99.9077 351.016 94.613 349.732 97.6207Z" stroke="#808080" stroke-opacity="0.6" stroke-miterlimit="10"/>
<path d="M300.262 61.2784C299.886 60.0879 286.446 61.8737 288.545 63.5968C292.085 66.5105 300.607 62.4376 300.262 61.2784Z" stroke="#808080" stroke-opacity="0.6" stroke-miterlimit="10"/>
<path d="M218.492 61.0591C219.401 58.7407 212.634 59.1167 213.198 59.8999C214.419 61.6543 217.615 63.4088 218.492 61.0591Z" stroke="#808080" stroke-opacity="0.6" stroke-miterlimit="10"/>
<path d="M296.346 82.2692C293.495 79.9195 285.067 85.5588 286.226 86.53C290.832 90.4462 306.779 90.8535 296.346 82.2692Z" stroke="#808080" stroke-opacity="0.6" stroke-miterlimit="10"/>
<path d="M255.399 66.699C256.808 64.7566 249.697 58.5534 249.352 61.467C249.007 64.3806 253.895 68.7667 255.399 66.699Z" stroke="#808080" stroke-opacity="0.6" stroke-miterlimit="10"/>
<path d="M271.001 70.1136C266.771 68.3278 272.786 76.3795 272.129 76.3795C270.167 74.8102 267.857 73.7357 265.393 73.2466C263.889 74.4684 267.586 78.1653 266.364 78.7606C264.453 79.6692 259.785 70.7089 257.153 70.5522C251.514 70.2389 259.158 78.5726 259.409 78.7293C264.14 81.5803 267.868 79.3872 272.598 80.6717C271.941 80.4837 277.831 95.6786 283.376 82.2382C287.417 72.3067 275.825 72.056 271.001 70.1136Z" stroke="#808080" stroke-opacity="0.6" stroke-miterlimit="10"/>
<path d="M233.217 60.0878C236.35 59.5865 220.685 55.8583 220.685 61.8423C220.623 71.993 233.248 60.0878 233.217 60.0878Z" stroke="#808080" stroke-opacity="0.6" stroke-miterlimit="10"/>
<path d="M224.539 56.3912C225.98 57.0491 236.068 56.9238 236.068 54.856C236.068 47.3056 219.338 55.6706 219.745 56.0152C221.318 56.3603 222.931 56.4868 224.539 56.3912V56.3912Z" stroke="#808080" stroke-opacity="0.6" stroke-miterlimit="10"/>
<path d="M278.425 41.2275C279.679 38.9091 270.969 37.0606 273.131 39.0971C274.353 40.2562 277.204 43.5772 278.425 41.2275Z" stroke="#808080" stroke-opacity="0.6" stroke-miterlimit="10"/>
<path d="M254.145 50.3759C256.996 49.436 258.782 50.3759 259.471 53.1016C259.127 53.9475 252.892 53.6969 253.205 54.2608C253.519 54.8247 287.323 68.1397 270.061 51.1279C267.77 48.9631 264.95 47.4396 261.884 46.7104C246.626 44.8306 255.398 49.4674 254.145 50.3759Z" stroke="#808080" stroke-opacity="0.6" stroke-miterlimit="10"/>
<path d="M351.33 174.629C351.674 172.592 334.004 160.499 333.064 160.624C331.373 160.844 323.133 171.903 324.198 175.412C325.263 178.921 351.486 173.689 351.33 174.629Z" stroke="#808080" stroke-opacity="0.6" stroke-miterlimit="10"/>
<path d="M309.473 21.8038C315.739 17.2924 310.57 23.6836 310.632 23.7776C311.904 23.8329 313.165 24.0326 314.392 24.3728C307.312 32.6752 327.613 31.328 327.519 29.7615C328.428 42.6693 353.397 25.438 356.405 27.5684C362.17 31.6726 341.241 35.7141 341.743 36.4034C341.743 36.4034 348.479 42.1054 347.633 42.1367C343.654 42.45 322.851 27.6624 326.36 40.8209C327.174 43.9538 343.529 50.2197 343.529 53.102C343.529 53.102 322.914 46.8361 322.412 55.8277C322.099 61.4044 333.785 54.8252 333.91 55.1698C332.093 51.1283 335.727 67.7016 335.727 64.5686C335.727 68.3282 319.749 54.7938 320.407 62.2502C321.868 63.5931 323.44 64.809 325.107 65.8845C325.107 67.169 311.384 68.2968 314.611 71.5551C318.308 75.346 360.008 76.5052 362.107 71.5551C364.206 66.6051 346.442 67.8582 345.659 66.5424C348.134 70.4273 361.324 59.4932 362.358 58.992C368.999 55.3264 371.756 60.7151 375.265 50.345C376.299 47.2121 363.767 47.2121 363.893 47.2121C371.193 42.0427 380.811 44.0791 387.453 40.9462C391.494 38.9411 415.43 26.5659 415.649 24.7488C415.868 22.9317 404.433 24.2788 403.775 23.9969C409.289 26.4093 428.839 13.4075 429.152 13.4702C427.586 12.9689 404.903 5.26184 404.527 11.0891C405.427 9.71836 406.699 8.63179 408.193 7.95618C403.744 9.71063 381.469 8.5201 378.461 8.67674C368.248 9.20934 358.379 7.32957 349.387 9.80461C347.57 10.3059 305.776 24.0282 304.993 22.3364C305.705 22.716 306.516 22.8684 307.317 22.7732C308.118 22.678 308.87 22.3397 309.473 21.8038V21.8038Z" stroke="#808080" stroke-opacity="0.6" stroke-miterlimit="10"/>
<path d="M451.271 254.958C447.5 257.299 444.529 260.729 442.749 264.795C442.31 265.735 434.509 273.568 437.674 275.447C444.848 279.645 451.459 269.181 452.211 278.58C451.96 275.447 462.612 279.739 463.082 278.831C462.894 279.238 459.949 270.685 461.359 271.312C463.27 272.189 447.229 261.098 447.448 262.947C448.016 260 449.332 257.249 451.271 254.958V254.958Z" stroke="#808080" stroke-opacity="0.6" stroke-miterlimit="10"/>
<path d="M2.3497 242.426C4.48011 241.455 5.48265 240.264 4.48011 239.105C3.47756 237.946 0.720562 243.241 2.3497 242.426Z" stroke="#808080" stroke-opacity="0.6" stroke-miterlimit="10"/>
<path d="M17.4191 233.716C14.9441 232.745 12.4377 236.693 12.0931 236.661C11.0279 236.473 19.8002 234.688 17.4191 233.716Z" stroke="#808080" stroke-opacity="0.6" stroke-miterlimit="10"/>
<path d="M59.2753 212.13C55.2025 217.268 51.8503 227.106 60.5285 218.396C61.813 217.08 63.6928 206.585 59.2753 212.13Z" stroke="#808080" stroke-opacity="0.6" stroke-miterlimit="10"/>
<path d="M5.88985 199.411C4.22938 198.408 3.03886 198.878 2.34961 200.758C3.00802 201.563 3.88199 202.165 4.86945 202.492C5.85692 202.819 6.91713 202.859 7.92626 202.606C13.9415 200.413 5.85852 199.066 5.88985 199.411Z" stroke="#808080" stroke-opacity="0.6" stroke-miterlimit="10"/>
<path d="M689.376 318.118C689.094 315.925 685.021 318.776 685.898 319.403C687.684 320.75 689.689 320.311 689.376 318.118Z" stroke="#808080" stroke-opacity="0.6" stroke-miterlimit="10"/>
<path d="M779.416 340.143C779.416 338.702 767.95 340.143 768.2 340.143C766.728 340.018 779.761 343.903 779.416 340.143Z" stroke="#808080" stroke-opacity="0.6" stroke-miterlimit="10"/>
<path d="M809.399 341.772C810.301 340.468 811.285 339.223 812.344 338.044C809.192 338.687 806.137 339.74 803.258 341.177C801.692 344.184 809.743 343.84 809.399 341.772Z" stroke="#808080" stroke-opacity="0.6" stroke-miterlimit="10"/>
<path d="M614.874 171.12C627.406 170.431 615.626 151.289 609.61 154.797C608.232 155.581 599.397 160.499 597.799 160.029C597.603 159.426 597.229 158.896 596.725 158.51C596.222 158.124 595.613 157.9 594.98 157.868C587.116 167.267 595.262 155.173 584.422 155.173C582.166 155.173 585.581 158.306 584.985 158.306C582.792 158.056 579.471 157.398 578.939 161.439C578.688 163.225 587.962 162.818 587.617 162.473C587.273 162.128 586.709 165.794 587.022 165.606C586.771 165.763 579.597 165.919 580.223 167.204C580.443 167.643 586.771 167.862 587.868 169.146C589.873 171.465 585.706 174.347 585.267 173.877C592.849 182.273 606.759 171.59 614.874 171.12Z" stroke="#808080" stroke-opacity="0.6" stroke-miterlimit="10"/>
<path d="M638.339 253.047C648.866 253.047 651.748 245.465 650.714 237.382C650.37 234.625 656.009 234.249 649.681 230.771C646.843 230.876 644.045 231.47 641.41 232.526C641.222 238.165 641.817 233.184 635.802 236.473C635.614 236.661 635.739 253.047 638.339 253.047Z" stroke="#808080" stroke-opacity="0.6" stroke-miterlimit="10"/>
<path d="M670.578 200.413C671.58 199.317 672.771 195.087 671.236 195.557C669.7 196.027 670.17 200.883 670.578 200.413Z" stroke="#808080" stroke-opacity="0.6" stroke-miterlimit="10"/>
<path d="M650.402 210.595C649.618 209.749 646.548 214.511 647.739 214.48C648.929 214.449 651.153 211.441 650.402 210.595Z" stroke="#808080" stroke-opacity="0.6" stroke-miterlimit="10"/>
<path d="M649.399 216.423C653.252 213.039 649.618 229.424 649.618 227.325C649.618 224.38 654.694 228.767 654.13 228.861C655.24 227.999 656.043 226.801 656.417 225.446C658.202 225.728 655.258 232.463 655.289 232.902C655.633 235.534 662.056 231.242 662.432 231.931C666.661 239.293 659.048 242.364 659.299 247.22C658.188 247.453 657.173 248.018 656.39 248.84C655.607 249.663 655.092 250.704 654.913 251.825C658.151 252.609 661.455 253.092 664.782 253.266C665.001 254.457 650.84 257.37 654.318 262.007C654.318 262.007 679.757 256.431 681.261 254.895C682.765 253.36 678.661 254.331 678.786 253.235C679.475 248.128 683.485 250.509 681.261 244.933C679.348 244.014 677.658 242.688 676.311 241.048C673.46 236.223 670.672 225.853 663.779 226.354C663.779 226.354 668.228 218.96 667.758 217.801C665.816 212.851 662.15 218.49 659.393 215.17C658.453 214.073 665.064 209.656 663.121 207.838C661.774 206.335 649.681 216.172 649.399 216.423Z" stroke="#808080" stroke-opacity="0.6" stroke-miterlimit="10"/>
<path d="M721.864 232.432C721.112 232.244 731.89 229.518 726.752 226.009C722.365 223.001 721.426 232.338 721.864 232.432Z" stroke="#808080" stroke-opacity="0.6" stroke-miterlimit="10"/>
<path d="M750.531 214.229C748.275 214.229 747.398 219.117 747.805 219.931C748.212 220.746 752.755 214.041 750.531 214.229Z" stroke="#808080" stroke-opacity="0.6" stroke-miterlimit="10"/>
<path d="M763.063 212.789C764.647 212.119 766.06 211.102 767.198 209.812C770.081 206.617 758.614 213.039 763.063 212.789Z" stroke="#808080" stroke-opacity="0.6" stroke-miterlimit="10"/>
<path d="M766.415 207.086C766.885 206.115 763 206.554 763.877 207.431C764.057 207.597 764.271 207.721 764.504 207.795C764.738 207.868 764.985 207.889 765.227 207.857C765.47 207.824 765.702 207.737 765.907 207.604C766.112 207.471 766.286 207.294 766.415 207.086V207.086Z" stroke="#808080" stroke-opacity="0.6" stroke-miterlimit="10"/>
<path d="M749.058 38.4079C752.41 41.2902 758.958 37.9693 763.125 40.5697C762.969 40.5697 754.76 43.7026 754.792 43.7026C756.828 48.966 786.121 46.2716 784.147 38.1573C783.897 37.1861 765.036 34.523 765.788 34.2724C765.22 34.8073 764.844 35.5151 764.719 36.2857C764.594 37.0562 764.728 37.8464 765.099 38.5332C763.532 39.6924 755.951 33.4579 754.259 33.6772C753.205 34.6881 752.335 35.8756 751.69 37.1861L748.557 34.8363C745.205 34.805 748.557 38.0006 749.058 38.4079Z" stroke="#808080" stroke-opacity="0.6" stroke-miterlimit="10"/>
<path d="M724.496 46.303C718.48 44.8932 727.629 55.7019 729.07 56.4224C731.858 58.0203 734.083 51.2531 736.088 50.4698C738.093 49.6866 735.242 54.1667 737.184 54.0414C738.505 53.2254 739.942 52.6128 741.445 52.2243C743.168 54.9186 728.913 60.1193 730.824 60.6206C734.427 61.5292 738.312 59.1795 742.04 60.088C738.269 60.8948 734.585 62.0701 731.044 63.5969C730.699 67.1058 737.31 66.9492 738.939 67.5758C738.778 67.9917 738.516 68.3611 738.177 68.651C737.838 68.9408 737.432 69.1419 736.996 69.2363C736.088 70.4581 741.978 71.0534 742.917 70.4894C745.199 67.4895 747.292 64.3505 749.183 61.0906C749.904 60.182 755.606 46.5223 759.146 52.1303C758.206 50.6265 760.587 64.0356 759.303 63.7849C760.807 64.0982 774.341 66.3853 773.808 60.088C774.09 63.221 759.804 49.6553 760.055 49.8432C755.606 46.209 748.964 45.6138 745.8 44.8305C747.648 45.2691 742.855 38.8779 740.568 38.126C737.247 37.0295 741.32 49.9372 741.539 48.9034C744.672 35.6196 732.297 46.0524 732.391 46.021C731.273 44.8489 730.034 43.7987 728.694 42.8881C729.745 42.2824 730.873 41.8188 732.046 41.5096C731.012 41.9169 709.176 42.7628 724.496 46.303Z" stroke="#808080" stroke-opacity="0.6" stroke-miterlimit="10"/>
<path d="M720.862 54.1665C721.718 54.9807 722.664 55.6953 723.681 56.2968C722.365 56.2968 720.924 49.4983 718.355 50.2816C718.202 51.1263 718.376 51.9975 718.841 52.7188C719.307 53.4401 720.029 53.9576 720.862 54.1665V54.1665Z" stroke="#808080" stroke-opacity="0.6" stroke-miterlimit="10"/>
<path d="M1432.67 177.355C1430.87 177.238 1429.09 177.834 1427.72 179.015C1428.5 179.986 1440 182.681 1440 180.08C1437.96 178.319 1435.36 177.351 1432.67 177.355Z" stroke="#808080" stroke-opacity="0.6" stroke-miterlimit="10"/>
<path d="M1237.64 299.446C1237.05 295.498 1228.24 312.416 1232.66 309.973C1231.88 310.411 1236.36 307.466 1236.23 308.124C1235.48 307.028 1234.7 305.931 1233.88 304.991C1233.88 305.931 1259.38 305.712 1258.1 294.621C1258.79 300.636 1236.77 290.674 1239.3 288.951C1239.55 288.731 1237.64 298.819 1237.64 299.446Z" stroke="#808080" stroke-opacity="0.6" stroke-miterlimit="10"/>
<path d="M1190.46 354.022C1191.71 356.559 1192.9 350.481 1193.59 353.52C1193.59 353.959 1191.9 363.107 1194.85 362.449C1197.26 361.917 1201.61 353.207 1197.98 351.641C1196.91 351.296 1187.26 347.599 1190.46 354.022Z" stroke="#808080" stroke-opacity="0.6" stroke-miterlimit="10"/>
<path d="M1204.53 352.988C1205.4 349.135 1210.79 353.709 1210.79 347.662C1210.79 344.529 1204.53 347.662 1204.21 348.226C1203.18 350.137 1203.65 356.748 1204.53 352.988Z" stroke="#808080" stroke-opacity="0.6" stroke-miterlimit="10"/>
<path d="M1213.27 339.892C1213.27 339.892 1193.78 340.77 1195.28 347.6C1195.47 348.477 1211.7 346.064 1212.86 345.814C1209.23 346.66 1216.34 348.383 1217.18 348.32C1219.94 348.101 1217.84 344.31 1218.34 343.997C1221.48 342.086 1230.88 345.688 1234.01 341.334C1236.51 337.919 1242.22 314.422 1237.8 311.884C1232.25 308.751 1229.5 326.546 1226.9 330.18C1224.8 333.063 1213.86 333.846 1213.27 339.892Z" stroke="#808080" stroke-opacity="0.6" stroke-miterlimit="10"/>
<path d="M1112.67 420.377C1113.49 418.704 1114.21 416.977 1114.8 415.208C1114.33 413.422 1104.3 414.769 1106.34 418.623C1106.56 419.093 1112.32 426.925 1112.67 420.377Z" stroke="#808080" stroke-opacity="0.6" stroke-miterlimit="10"/>
<path d="M1154.15 404.713C1156.09 403.241 1160.67 393.341 1159.13 391.085C1153.99 383.597 1149.92 408.066 1154.15 404.713Z" stroke="#808080" stroke-opacity="0.6" stroke-miterlimit="10"/>
<path d="M1150.48 431.782C1147.76 440.805 1176.89 452.866 1170.88 459.79C1180.56 448.668 1159.76 444.125 1157.63 439.05C1155.5 433.975 1165.11 426.706 1157.63 422.351C1152.61 419.375 1150.61 431.406 1150.48 431.782Z" stroke="#808080" stroke-opacity="0.6" stroke-miterlimit="10"/>
<path d="M1145.41 460.041C1143.3 462.143 1141.58 464.605 1140.33 467.31C1139.83 466.338 1150.58 459.571 1148.6 455.248C1147.75 455.757 1147.02 456.452 1146.46 457.282C1145.91 458.111 1145.55 459.054 1145.41 460.041V460.041Z" stroke="#808080" stroke-opacity="0.6" stroke-miterlimit="10"/>
<path d="M1152.74 445.003C1153.08 446.82 1153.93 450.579 1156.53 449.671C1159.13 448.762 1152.49 443.718 1152.74 445.003Z" stroke="#808080" stroke-opacity="0.6" stroke-miterlimit="10"/>
<path d="M1169.41 460.574C1168.47 459.289 1166.12 461.67 1166.46 462.642C1166.81 463.613 1170.35 461.733 1169.41 460.574Z" stroke="#808080" stroke-opacity="0.6" stroke-miterlimit="10"/>
<path d="M1173.32 462.767C1173.32 462.767 1156.09 473.951 1159.01 473.669C1161.92 473.387 1163.11 469.315 1166.09 471.414C1169.06 473.513 1167.24 480.28 1172.95 480.28C1168.69 480.28 1177.49 471.163 1177.08 472.761C1177.51 470.91 1177.39 468.973 1176.72 467.194C1176.05 465.415 1174.87 463.875 1173.32 462.767V462.767Z" stroke="#808080" stroke-opacity="0.6" stroke-miterlimit="10"/>
<path d="M1159.13 451.614C1158.39 452.447 1158 453.534 1158.04 454.65C1158.08 455.765 1158.55 456.821 1159.35 457.598C1166.78 455.968 1156.75 463.237 1162.48 464.584C1167.4 465.775 1167.75 449.734 1159.13 451.614Z" stroke="#808080" stroke-opacity="0.6" stroke-miterlimit="10"/>
<path d="M1278.53 526.146C1278.53 531.284 1265.34 528.089 1265.15 529.655C1264.43 537.112 1285.45 529.906 1281.13 524.486C1279.69 524.047 1278.81 524.58 1278.53 526.146Z" stroke="#808080" stroke-opacity="0.6" stroke-miterlimit="10"/>
<path d="M1283.85 525.645C1287.39 524.611 1281.1 520.131 1280.34 519.943C1281.5 520.194 1282.69 525.959 1283.85 525.645Z" stroke="#808080" stroke-opacity="0.6" stroke-miterlimit="10"/>
<path d="M1261.14 534.699C1264.27 534.919 1250.96 523.609 1247.89 521.854C1240.99 517.938 1227.62 511.86 1220.72 512.268C1218.72 512.268 1215.93 518.533 1213.49 518.095C1208.57 517.186 1211.39 511.829 1207.88 510.482C1204.75 509.26 1204.75 505.908 1199.45 506.691C1198.54 506.848 1193.41 510.889 1195.22 511.296C1196.22 511.516 1206.63 517.312 1206.69 515.526C1206.69 516.34 1200.42 516.309 1199.73 516.403C1196.85 516.936 1210.57 523.671 1211.45 524.079C1217.5 527.024 1221.88 526.397 1225.39 532.569C1228.9 538.741 1220.47 538.396 1221.88 541.185C1224.48 546.291 1243.6 541.78 1245.63 541.811C1251.21 541.811 1251.11 541.623 1258.16 545.101C1257.98 545.101 1275.3 553.748 1273.45 550.677C1272.61 549.456 1257.66 534.511 1261.14 534.699Z" stroke="#808080" stroke-opacity="0.6" stroke-miterlimit="10"/>
<path d="M995.872 461.482C993.303 461.796 993.241 476.74 996.217 477.93C1004.52 481.314 1002.67 460.668 995.872 461.482Z" stroke="#808080" stroke-opacity="0.6" stroke-miterlimit="10"/>
<path d="M870.21 557.131C870.21 557.288 864.664 566.812 863.724 567.783C861.218 570.29 854.639 571.825 852.665 574.049C847.214 580.315 850.879 583.166 849.939 592.44C849.25 598.988 841.543 625.43 859.338 616.814C869.52 611.864 867.421 582.759 871.244 573.203C871.745 571.95 874.376 576.023 874.376 570.728C874.376 565.434 871.369 561.737 870.21 557.131Z" stroke="#808080" stroke-opacity="0.6" stroke-miterlimit="10"/>
<path d="M887.566 448.857C888.882 450.36 891.482 448.606 891.639 448.011C891.796 447.415 886.062 447.165 887.566 448.857Z" stroke="#808080" stroke-opacity="0.6" stroke-miterlimit="10"/>
<path d="M1310.98 546.667C1311.33 548.609 1314.12 549.8 1315.06 549.111C1316 548.422 1310.61 544.662 1310.98 546.667Z" stroke="#808080" stroke-opacity="0.6" stroke-miterlimit="10"/>
<path d="M1298.39 534.699C1298.39 535.2 1301.12 538.208 1301.74 537.832C1302.37 537.456 1298.55 533.791 1298.39 534.699Z" stroke="#808080" stroke-opacity="0.6" stroke-miterlimit="10"/>
<path d="M1311.67 542.5C1312.65 541.811 1306.19 537.926 1306.1 539.179C1306 540.432 1310.7 543.189 1311.67 542.5Z" stroke="#808080" stroke-opacity="0.6" stroke-miterlimit="10"/>
<path d="M1290.9 529.28C1290.68 530.439 1294.47 536.611 1295.88 535.545C1298.39 533.791 1291.06 528.12 1290.9 529.28Z" stroke="#808080" stroke-opacity="0.6" stroke-miterlimit="10"/>
<path d="M1315.15 542.313C1314.24 544.443 1317.78 548.14 1318.28 548.234C1318.79 548.328 1315.97 540.652 1315.15 542.313Z" stroke="#808080" stroke-opacity="0.6" stroke-miterlimit="10"/>
<path d="M1318.25 550.96C1318.25 551.43 1320.73 553.779 1321.89 552.902C1323.05 552.025 1317.94 550.114 1318.25 550.96Z" stroke="#808080" stroke-opacity="0.6" stroke-miterlimit="10"/>
<path d="M1191.56 557.163C1192.43 557.946 1196.85 556.975 1196.69 555.815C1196.54 554.656 1190.21 556.003 1191.56 557.163Z" stroke="#808080" stroke-opacity="0.6" stroke-miterlimit="10"/>
<path d="M1285.51 631.947C1285.51 631.947 1283.38 619.102 1284.48 619.603C1276.93 616.063 1265.93 600.335 1260.48 592.033C1256.38 585.767 1255.12 579.094 1251.83 571.293C1250.14 567.251 1246.63 570.29 1245.57 567.658C1243.81 563.805 1245.57 555.753 1241.78 552.213C1238.9 549.519 1237.36 571.481 1237.33 571.575C1233.32 582.979 1235.7 583.167 1225.42 579.532C1222.48 578.467 1213.61 573.924 1212.89 570.133C1212.23 566.844 1219.97 561.298 1218.94 559.231C1219.72 560.797 1200.33 553.717 1199.92 553.905C1199.42 555.158 1199.92 556.129 1201.43 556.818C1196.1 550.552 1187.33 572.859 1189.96 572.483C1191.21 572.327 1182.03 571.042 1184.57 572.483C1177.99 568.661 1178.99 564.87 1171.13 570.509C1166.02 574.206 1167.84 579.156 1164.86 582.446C1164.08 583.323 1163.55 577.966 1162.33 578.78C1158.1 581.631 1161.39 585.297 1157.56 588.43C1152.83 592.283 1150.45 592.534 1145.25 595.134C1138.42 598.487 1133.57 599.521 1127.64 605.097C1127.35 604.715 1127.16 604.265 1127.08 603.79C1127.01 603.314 1127.05 602.827 1127.21 602.372C1127.21 603.781 1125.51 608.199 1125.33 610.549C1125.14 612.898 1127.58 621.984 1126.92 623.362C1125.89 622.929 1125.05 622.14 1124.54 621.138C1125.02 622.145 1125.41 623.194 1125.7 624.271C1124.73 623.519 1123.79 622.736 1122.85 621.953C1121.72 624.772 1130.24 639.779 1131.06 643.131C1131.47 644.854 1131.37 661.083 1130.65 659.579C1136.1 670.764 1144 663.12 1153.02 660.457C1160.42 658.295 1165.18 656.728 1172.32 654.034C1177.83 651.966 1189.55 647.768 1195.57 648.771C1199.26 649.366 1217.75 663.84 1213.52 665.751C1214.8 665.187 1222.42 655.726 1222.92 656.164C1225.3 658.389 1219.06 664.404 1218.75 665.783C1217.62 671.203 1225.02 661.522 1223.01 663.088C1225.67 660.958 1224.42 669.699 1224.17 669.01C1223.92 668.32 1232.91 680.57 1233.76 681.259C1238.83 685.646 1251.46 681.573 1251.33 681.51C1251.52 682.483 1251.52 683.482 1251.33 684.455C1250.17 683.014 1255.53 686.241 1256.82 687.588C1254.22 685.113 1271.67 679.662 1271.17 680.226C1273.83 677.093 1275.36 663.339 1277.43 658.859C1278.72 655.193 1283.98 633.2 1285.51 631.947Z" stroke="#808080" stroke-opacity="0.6" stroke-miterlimit="10"/>
<path d="M1216.65 670.92C1217.62 671.891 1220.88 671.609 1221.41 670.231C1221.95 668.852 1215.71 670.043 1216.65 670.92Z" stroke="#808080" stroke-opacity="0.6" stroke-miterlimit="10"/>
<path d="M1256.72 697.958C1254.37 697.494 1252.08 696.769 1249.89 695.796C1251.08 695.451 1250.11 714.155 1260.11 708.892C1265.15 706.103 1267.09 696.704 1256.72 697.958Z" stroke="#808080" stroke-opacity="0.6" stroke-miterlimit="10"/>
<path d="M1342.53 730.603C1343.16 730.791 1345.2 730.227 1344.04 728.661C1342.88 727.094 1341.03 730.164 1342.53 730.603Z" stroke="#808080" stroke-opacity="0.6" stroke-miterlimit="10"/>
<path d="M1382.6 681.416C1380.22 685.771 1375.02 674.868 1374.55 674.899C1374.32 675.265 1374.2 675.689 1374.2 676.121C1374.2 676.554 1374.32 676.977 1374.55 677.343C1374.96 676.716 1366.69 665.469 1364.97 665.469C1364.78 665.469 1370.92 677.625 1371.45 679.129C1373.3 684.518 1367.22 684.298 1367.44 687.243C1367.44 687.024 1371.86 699.775 1371.61 699.493C1376.68 709.017 1387.49 672.456 1382.6 681.416Z" stroke="#808080" stroke-opacity="0.6" stroke-miterlimit="10"/>
<path d="M1368.16 697.08C1363.18 693.196 1333.23 719.951 1342.28 726.029C1351.34 732.107 1372.36 700.464 1368.16 697.08Z" stroke="#808080" stroke-opacity="0.6" stroke-miterlimit="10"/>
<path d="M1387.84 580.785C1388.81 581.192 1392 580.033 1392 578.373C1392 576.712 1386.36 580.315 1387.84 580.785Z" stroke="#808080" stroke-opacity="0.6" stroke-miterlimit="10"/>
<path d="M1382.35 586.048C1383.86 587.615 1386.87 587.49 1386.96 584.701C1387.05 581.913 1381.01 584.67 1382.35 586.048Z" stroke="#808080" stroke-opacity="0.6" stroke-miterlimit="10"/>
<path d="M868.424 34.3665C866.934 34.6837 865.603 35.5156 864.664 36.7162C866.325 40.3504 881.645 33.0506 881.708 32.0168C881.958 27.192 869.332 32.988 868.424 34.3665Z" stroke="#808080" stroke-opacity="0.6" stroke-miterlimit="10"/>
<path d="M890.542 36.4345C890.542 34.3668 884.276 36.6538 885.592 37.0924C886.908 37.531 890.542 38.5022 890.542 36.4345Z" stroke="#808080" stroke-opacity="0.6" stroke-miterlimit="10"/>
<path d="M862.753 33.3327C864.87 32.3777 867.167 31.8863 869.489 31.8915C870.272 29.7611 855.829 31.8915 856.268 33.082C856.658 33.5539 857.144 33.938 857.693 34.2094C858.242 34.4807 858.842 34.6332 859.454 34.6569C860.066 34.6806 860.677 34.5748 861.245 34.3466C861.813 34.1185 862.327 33.7729 862.753 33.3327V33.3327Z" stroke="#808080" stroke-opacity="0.6" stroke-miterlimit="10"/>
<path d="M868.8 136.908C872.246 140.386 874.345 135.342 876.131 134.59C878.575 133.618 862.44 130.454 868.8 136.908Z" stroke="#808080" stroke-opacity="0.6" stroke-miterlimit="10"/>
<path d="M894.208 97.7462C889.379 102.446 884.878 107.47 880.736 112.784C880.736 113.16 887.566 118.862 887.002 119.05C886.407 117.828 886.626 116.92 887.66 116.356C887.033 116.356 904.766 131.206 905.549 122.622C905.768 120.335 897.748 115.416 897.403 112.22C897.059 109.025 900.536 105.735 901.884 102.822C904.069 98.9299 906.778 95.3563 909.935 92.2009C915.199 87.3448 953.358 71.3354 951.666 69.8942C947.593 66.4166 913.569 77.5386 908.055 80.9849C905.079 83.0526 894.302 97.7462 894.208 97.7462Z" stroke="#808080" stroke-opacity="0.6" stroke-miterlimit="10"/>
<path d="M1267.41 89.6004C1269.06 90.0395 1270.79 90.0781 1272.45 89.713C1274.12 89.3478 1275.68 88.5896 1276.99 87.5013C1277.81 78.5724 1238.43 87.5013 1267.41 89.6004Z" stroke="#808080" stroke-opacity="0.6" stroke-miterlimit="10"/>
<path d="M1237.14 94.1122C1237.14 92.1697 1230.88 94.8327 1233.38 95.804C1234.79 96.3366 1237.14 96.0546 1237.14 94.1122Z" stroke="#808080" stroke-opacity="0.6" stroke-miterlimit="10"/>
<path d="M1069.4 59.399C1071.78 60.8715 1093.03 57.3312 1093.75 53.1331C1094.47 48.9349 1081.43 47.7444 1081.84 51.0026C1079.49 32.5182 1072.47 61.3101 1069.4 59.399Z" stroke="#808080" stroke-opacity="0.6" stroke-miterlimit="10"/>
<path d="M1051.07 41.1027C1049.9 42.1884 1048.97 43.513 1048.35 44.9876C1054.3 50.6895 1068.81 55.0757 1070.06 44.9876C1071.13 36.4346 1051.07 38.7843 1051.07 41.1027Z" stroke="#808080" stroke-opacity="0.6" stroke-miterlimit="10"/>
<path d="M1044.81 37.4682C1048.66 39.254 1041.43 39.442 1040.99 39.6926C1038.92 40.7265 1048.66 40.1626 1050.39 39.442C1052.11 38.7214 1065.05 34.9305 1062.67 32.0169C1053.11 19.9864 1042.96 36.6223 1044.81 37.4682Z" stroke="#808080" stroke-opacity="0.6" stroke-miterlimit="10"/>
<path d="M1120.47 91.7936C1117.74 97.7775 1125.26 93.5793 1125.33 92.5768C1125.1 92.1632 1124.77 91.8072 1124.39 91.5356C1124 91.2639 1123.56 91.0836 1123.09 91.0082C1122.62 90.9329 1122.14 90.9644 1121.69 91.1004C1121.24 91.2364 1120.82 91.4734 1120.47 91.7936V91.7936Z" stroke="#808080" stroke-opacity="0.6" stroke-miterlimit="10"/>
<path d="M893.268 31.6406C895.179 33.771 906.708 33.9903 907.21 30.2307C907.366 28.9462 897.623 27.0977 897.027 27.3171C898.688 27.0664 894.302 32.7684 893.268 31.6406Z" stroke="#808080" stroke-opacity="0.6" stroke-miterlimit="10"/>
<path d="M1041.74 28.2886C1042.21 26.3461 1034.38 27.192 1036.41 29.0405C1037.13 29.6984 1041.27 30.231 1041.74 28.2886Z" stroke="#808080" stroke-opacity="0.6" stroke-miterlimit="10"/>
<path d="M1395.32 122.121C1395.86 122.528 1406.29 121.807 1404.22 119.364C1399.33 113.505 1388.87 121.839 1389.65 122.246C1391.53 122.152 1393.41 122.121 1395.32 122.121Z" stroke="#808080" stroke-opacity="0.6" stroke-miterlimit="10"/>
<path d="M1221.98 86.0918C1225.83 88.4864 1230.41 89.4099 1234.89 88.6921C1238.02 88.0969 1246.2 83.2721 1243.09 82.1756C1244.57 82.7082 1248.89 92.577 1251.43 84.9326C1253.56 78.6667 1247.54 80.1079 1242.03 78.3221C1241.56 78.1654 1231.85 77.9148 1231.78 77.9148C1233.26 77.6328 1212.8 81.1104 1221.98 86.0918Z" stroke="#808080" stroke-opacity="0.6" stroke-miterlimit="10"/>
<path d="M1246.6 102.665C1252.87 101.161 1230.37 93.6416 1234.79 100.597C1236.2 102.853 1244.5 103.197 1246.6 102.665Z" stroke="#808080" stroke-opacity="0.6" stroke-miterlimit="10"/>
<path d="M1429.56 174.513L1434.04 175.547C1435.2 175.547 1432.57 174.012 1432.91 173.793C1431.57 174.638 1440.84 171.443 1438.71 170.66C1438.87 170.66 1420.54 159.757 1420.29 163.548C1420.57 159.318 1422.14 170.378 1421.51 168.341C1418.13 157.157 1395.26 144.907 1382.44 142.15C1375.33 140.615 1363.21 140.865 1358.88 142.87C1359.23 142.682 1361.8 148.353 1358.29 150.515C1356.66 151.517 1348.89 144.687 1350.71 143.841C1352.52 142.996 1354.81 146.818 1355.28 143.184C1355.62 140.239 1340.27 144.374 1338.05 144.687C1334.32 144.651 1330.59 144.369 1326.9 143.841C1322.04 143.372 1324.64 147.664 1322.63 148.635C1324.36 147.82 1316.37 140.928 1316.37 140.99C1309.38 135.069 1310.38 133.973 1297.38 132.97C1293.4 132.657 1273.95 132.97 1271.97 127.049C1271.41 125.294 1277.9 127.393 1276.17 124.511C1272.35 118.245 1256.84 125.42 1256.65 126.078C1257.75 125.44 1258.79 124.728 1259.79 123.947C1258.37 123.255 1256.86 122.75 1255.31 122.443C1253.96 120.25 1261.57 122.443 1261.57 121.284C1262.7 114.58 1229.21 118.527 1232.5 123.101C1232.99 123.346 1233.52 123.474 1234.07 123.474C1234.61 123.474 1235.15 123.346 1235.63 123.101C1233.5 121.911 1236.01 131.216 1235.79 128.396C1235.79 128.929 1228.18 127.519 1226.92 128.396C1227.57 129.051 1228.35 129.564 1229.21 129.9C1229.21 129.9 1208.06 125.89 1206.62 125.545C1205.18 125.2 1202.77 134.38 1199.57 134.192C1194.81 133.91 1191.18 122.569 1188.76 122.725C1190.1 123.379 1191.58 123.671 1193.06 123.571C1199.1 120.031 1177.99 107.499 1173.47 108.439C1170.18 109.128 1169.5 116.177 1168.31 116.365C1166.52 116.679 1149.51 115.958 1149.04 113.984C1148.72 112.919 1151.32 111.603 1150.23 111.321C1141.46 109.034 1134.56 113.139 1129.11 113.671C1127.67 113.671 1129.39 108.564 1127.26 108.188C1126.23 108 1111.94 108.188 1113.23 109.786C1114.01 110.068 1114.83 110.288 1115.64 110.507C1115.86 112.387 1097.75 115.269 1097.38 116.271C1101.26 106.277 1130.55 103.74 1128.17 93.1816C1127.45 90.0486 1129.39 87.4483 1122.91 84.3466C1114.64 80.4618 1108.4 86.665 1100.98 84.8166C1101.77 83.3463 1102.74 81.9785 1103.86 80.7437C1103.86 81.5583 1093.49 78.7387 1092.21 79.2713C1093.08 78.8953 1099.35 77.8614 1097.97 75.6997C1093.24 68.4939 1082.31 77.6735 1078.36 80.5558C1080.39 79.0833 1070.74 91.8657 1070.4 85.8505C1071.19 86.6753 1072.06 87.4204 1073 88.0748C1073.44 86.6963 1061.91 89.2654 1061.31 89.0461C1061.66 88.2002 1062.04 87.3856 1062.44 86.571C1058.08 87.0425 1053.76 87.8703 1049.53 89.0461C1050.1 89.9342 1050.97 90.5819 1051.98 90.8632C1051.79 89.3907 1032.68 95.9386 1031.27 96.5965C1026.76 98.6956 1029.08 98.5076 1027.13 101.108C1026.01 101.108 1024.85 101.108 1023.72 100.889C1023.31 101.327 1027.64 103.364 1027.67 103.74C1026.63 103.898 1025.58 103.972 1024.53 103.959C1024.53 103.959 1029.3 106.779 1027.13 108.752C1025.85 109.912 1018.42 109.285 1016.29 109.724C986.594 115.989 1016.29 117.995 1010.53 125.858C1008.24 128.991 993.392 116.052 989.038 120.376C988.662 120.752 993.831 124.354 992.672 124.668C990.416 125.294 986.97 122.005 985.341 125.138C984.056 127.644 995.836 131.623 994.927 132.719C994.927 132.719 982.396 130.119 982.396 129.931C979.921 127.111 986.656 119.06 981.393 117.399C976.13 115.739 973.028 141.053 975.127 143.935C980.798 151.643 991.387 147.57 994.959 159.318C996.839 165.584 984.087 150.609 989.633 153.052C985.842 151.423 987.064 148.134 982.051 149.011C974.908 150.233 981.706 154.306 978.918 157.689C975.785 161.668 971.556 167.433 967.201 168.404C966.01 168.686 955.327 168.122 956.298 165.271C956.142 165.647 970.396 163.83 972.777 155.872C974.281 150.828 971.775 146.786 970.678 141.022C970.365 139.361 971.148 121.973 971.274 122.224C962.846 108.345 948.81 124.166 948.09 134.004C948.278 131.278 947.776 144.217 947.15 142.588C947.15 142.588 962.376 152.363 953.416 153.804C947.15 154.869 922.086 132.751 914.348 137.168C916.384 136.009 927.945 157.031 916.792 152.52C912.405 150.734 916.948 150.327 906.86 151.235C906.86 151.235 890.725 153.93 891.979 152.927C893.232 151.924 895.456 150.891 895.112 148.384C895.112 149.982 874.027 156.875 871.082 158.159C866.978 159.945 867.949 167.558 860.367 162.514C852.785 157.47 864.158 157.689 865.098 156.593C868.513 152.488 851.188 148.04 851.814 150.64C851.814 149.919 855.887 163.642 852.629 161.261C860.743 167.119 851.344 166.555 850.812 166.963C841.413 174.482 841.413 166.367 839.564 179.808C839.251 182.064 831.794 177.521 830.635 178.429C829.1 177.458 827.502 176.456 826.093 175.453C823.336 176.737 822.96 178.398 824.839 180.466C829.382 177.897 830.855 190.335 822.928 184.069C820.986 182.533 810.24 159.005 805.854 161.073C808.987 159.569 853.475 180.748 839.846 156.342C837.246 151.643 809.519 139.925 807.169 142.87C808.223 142.78 809.236 142.424 810.114 141.836C809.739 138.703 802.94 141.836 802.188 141.116C800.34 139.079 795.922 143.653 794.575 138.641C794.826 139.612 801.781 137.732 801.969 136.761C803.441 128.647 789.186 135.884 790.941 135.946C789.531 135.946 791.693 131.56 791.567 131.341C788.685 125.796 786.241 136.04 784.644 136.04C784.08 136.04 785.019 131.184 784.017 131.842C782.106 133.879 780.226 135.946 778.315 138.108C776.247 138.515 782.357 131.404 782.325 131.247C781.73 127.55 775.401 134.631 775.433 134.631C777.406 132.939 767.475 140.27 770.389 139.393C766.566 140.552 771.391 130.777 771.861 132.594C772.112 133.44 766.065 133.283 766.159 134.725C767.016 135.577 767.595 136.669 767.82 137.858C766.337 137.54 764.809 137.487 763.308 137.701C763.819 138.645 764.606 139.41 765.564 139.894C763.71 139.588 761.92 138.973 760.269 138.077C760.52 138.077 761.961 143.497 760.269 142.463C757.324 140.521 757.951 137.388 754.003 139.173C753.69 139.173 745.419 145.439 745.576 146.379C745.732 147.319 749.617 145.565 748.99 148.854C748.99 148.854 742.004 148.854 742.255 149.167C742.537 147.946 742.85 146.755 743.226 145.533C739.447 149.26 735.473 152.785 731.321 156.091C734.454 156.091 741.44 148.384 744.761 151.455C744.761 151.455 744.26 154.838 744.197 154.869C734.798 158.629 732.167 173.886 723.488 177.677C722.736 178.022 727.028 180.81 725.587 181.437C720.637 183.348 720.606 185.259 716.502 188.643C716.188 188.893 713.369 185.04 713.181 187.452C712.711 192.402 710.267 188.58 707.792 192.277C708.006 192.702 708.305 193.077 708.672 193.379C709.039 193.681 709.465 193.903 709.923 194.031C707.291 188.204 700.524 203.43 700.774 202.24C699.271 211.451 705.286 208.506 705.756 209.978C707.103 214.709 700.273 212.484 700.586 212.234C700.25 213.592 700.02 214.975 699.897 216.369C699.897 218.092 703.563 214.49 704.252 216.369C704.722 217.623 701.965 218.938 701.589 219.502C696.952 226.583 717.254 221.1 714.841 221.633C717.974 220.912 719.823 215.743 721.702 214.646C722.83 213.957 731.603 241.339 732.48 241.652C736.615 243.219 745.231 230.656 746.609 230.248C746.045 231.689 745.325 232.034 744.416 231.282C745.231 223.92 754.035 218.092 753.815 212.484C753.815 205.153 745.513 208.631 748.207 197.854C749.742 191.588 754.473 191.055 757.606 186.638C760.144 183.035 764.311 172.633 769.104 170.973C791.379 163.61 763.935 189.583 763.246 190.898C761.522 194.031 762.776 206.751 764.311 208.286C770.577 214.552 782.325 209.915 789.124 208.067C789.692 207.132 790.331 206.241 791.035 205.404C790.323 206.236 789.684 207.127 789.124 208.067C791.928 208.398 794.591 209.48 796.831 211.2C798.335 212.954 777.72 215.21 778.628 214.772C765.407 221.037 778.158 220.849 774.837 224.672C770.89 230.938 770.075 226.176 768.571 227.523C768.039 227.993 758.233 228.713 761.867 236.044C765.407 244.002 758.389 245.944 753.972 247.542C754.348 247.542 742.443 248.701 739.592 249.077C733.326 249.829 736.647 250.707 733.639 246.383C732.355 244.566 725.086 251.396 723.739 250.393C723.472 249.419 723.472 248.391 723.739 247.417C722.016 246.947 716.784 247.417 717.473 242.874C717.473 242.06 722.016 245.287 722.392 243.281C723.081 239.491 720.23 241.997 719.259 240.148C718.726 239.303 724.146 230.154 721.326 227.053C719.415 224.954 716.251 232.097 716.251 232.097C714.215 234.133 712.241 230.499 711.928 238.989C711.928 241.715 717.16 247.918 715.813 250.581C714.81 252.618 703.437 254.717 701.307 256.095C697.488 259.389 693.918 262.96 690.624 266.779C688.436 269.396 686.014 271.809 683.386 273.984C680.253 275.457 673.424 274.611 672.39 275.206C670.04 276.522 674.552 280.094 672.39 281.879C670.228 283.665 664.025 278.12 662.584 280.846C658.636 288.145 664.526 282.6 668.004 288.145C672.766 295.758 680.159 304.844 669.1 310.452C663.962 313.084 651.368 306.316 647.169 308.572C639.306 312.864 645.446 312.488 643.755 319.788C640.308 334.67 640.622 340.904 652.871 344.852C661.424 347.64 670.479 345.886 677.59 336.362C683.23 328.78 686.613 315.621 695.229 310.264C693.287 311.486 713.243 308.008 711.583 307.946C720.136 308.384 714.716 307.162 722.11 312.833C721.89 312.645 750.306 338.711 742.286 338.711C746.829 338.711 745.419 327.213 745.732 326.931C746.66 326.769 747.613 326.842 748.505 327.143C749.397 327.444 750.199 327.964 750.839 328.654C747.706 327.715 719.509 297.325 733.294 298.077C735.174 298.077 749.993 314.932 754.724 317.595C754.785 317.222 754.879 316.855 755.006 316.499C754.879 316.855 754.785 317.222 754.724 317.595C750.087 314.869 767.099 343.505 767.099 336.831C767.099 330.942 759.423 351.431 769.449 345.917C769.47 344.416 769.237 342.923 768.759 341.5C769.661 341.749 770.614 341.749 771.516 341.5C772.989 339.682 768.384 339.933 769.386 338.993C770.389 338.053 775.119 340.748 774.43 336.925C773.616 332.289 771.109 336.925 769.386 335.077C769.95 335.704 768.666 325.678 767.851 326.179C769.439 326.634 771.064 326.949 772.707 327.119C775.37 325.929 789.594 326.023 793.04 322.577C792.131 323.485 787.338 314.963 787.651 313.178C789.517 309.35 791.808 305.746 794.481 302.432C796.11 300.113 796.862 294.787 800.246 293.221C802.376 292.218 811.9 292.594 812.433 295.476C810.82 296.776 809.026 297.832 807.107 298.609C806.919 297.607 811.43 304.123 811.305 303.998C811.18 303.873 823.555 300.865 823.837 300.489C824.557 299.236 812.683 299.925 818.385 293.816C819.733 292.406 833.079 287.55 834.05 289.461C834.27 289.931 824.651 298.86 824.996 300.552C826.249 306.536 844.577 309.794 843.982 316.217C843.167 325.052 832.64 321.95 826.469 321.825C823.837 321.825 821.738 318.848 819.169 318.692C810.741 318.159 805.791 320.101 797.833 322.326C787.62 325.177 776.31 330.472 788.152 342.533C793.698 348.204 799.118 345.666 805.384 345.917C807.451 345.917 820.046 343.191 821.738 344.288C823.43 345.384 818.072 360.297 817.414 361.895L819.513 362.866C819.513 363.274 819.513 363.744 819.357 364.151C819.357 363.744 819.357 363.274 819.513 362.866L817.477 361.926C811.211 376.62 799.306 373.612 783.798 370.699C779.694 369.947 776.373 367.973 772.268 367.409C765.626 366.501 769.135 361.143 760.301 365.686C757.387 367.221 758.201 373.111 757.888 373.236C752.656 375.304 730.099 367.628 724.271 361.644C718.444 355.661 728.313 350.554 723.896 344.319C721.201 340.528 702.842 343.943 697.641 344.507C691.234 345.563 684.94 347.221 678.844 349.457C672.421 351.274 667.22 350.742 661.236 352.308C656.161 353.655 658.103 351.525 653.749 353.906C658.448 351.4 643.629 364.934 645.446 362.02C643.191 365.623 641.436 369.602 639.18 373.236C637.551 376.056 637.99 379.753 635.296 383.794C633.541 386.457 629.97 386.927 627.996 388.933C622.482 395.067 618.082 402.118 614.994 409.767C611.548 418.508 613.584 419.917 613.302 427.562C613.02 434.674 610.796 442.255 611.015 449.273C611.266 456.98 614.743 460.082 618.503 466.16C626.962 479.914 636.987 492.633 653.216 494.356C661.828 494.677 670.428 493.479 678.624 490.816C679.69 490.534 690.561 484.55 691.689 485.897C694.673 487.703 697.747 489.356 700.9 490.848C702.341 491.537 701.777 495.014 703.625 495.86C705.474 496.706 707.542 493.886 709.077 494.858C717.692 500.278 714.371 495.578 718.758 505.51C719.603 507.703 717.066 514.721 717.097 515.817C717.285 524.746 720.637 526.062 725.838 535.116C730.13 542.541 735.581 557.047 734.422 565.662C733.169 574.779 726.496 582.674 726.089 592.669C725.399 599.373 734.955 615.163 736.427 622.181C739.09 634.713 742.944 642.389 747.142 654.294C752.844 670.491 747.957 674 765.94 671.744C783.422 669.614 793.353 664.131 802.501 646.681C803.927 642.127 804.975 637.464 805.634 632.739C811.9 623.716 815.597 628.635 817.32 616.855C818.542 608.49 813.31 608.521 817.853 600.501C821.487 594.047 831.481 593.076 835.366 587.28C843.386 575.218 835.053 561.903 832.766 549.684C830.291 536.62 836.964 527.19 845.955 517.478C849.652 513.436 893.921 466.786 880.167 461.711C870.768 458.171 860.148 471.737 849.308 464.844" stroke="#808080" stroke-opacity="0.6" stroke-miterlimit="10"/>
<path d="M926.007 32.2989C929.61 27.2235 910.342 30.0118 914.666 33.834C916.734 35.6511 924.347 34.6173 926.007 32.2989Z" stroke="#808080" stroke-opacity="0.6" stroke-miterlimit="10"/>
<path d="M905.8 34.7428C903.983 35.5261 902.165 36.184 900.317 36.8106C897.905 39.5049 912.536 39.0663 913.475 35.9333C914.071 34.0222 905.549 34.2416 905.8 34.7428Z" stroke="#808080" stroke-opacity="0.6" stroke-miterlimit="10"/>
<path d="M905.205 27.7557C907.758 27.1172 910.221 26.1593 912.536 24.9047C911.001 22.8056 900.223 26.9098 900.004 26.1892C900.698 26.8238 901.525 27.2941 902.426 27.5653C903.326 27.8364 904.276 27.9015 905.205 27.7557V27.7557Z" stroke="#808080" stroke-opacity="0.6" stroke-miterlimit="10"/>
<path d="M1241.18 255.898C1243.69 262.164 1236.2 280.053 1240.12 285.066C1237.45 281.651 1246.07 285.41 1246.13 285.442C1246.2 285.473 1242.69 275.134 1243 274.696C1246.13 267.709 1249.27 270.967 1250.33 269.589C1252.21 267.051 1241.15 238.886 1242.72 237.883C1238.27 240.734 1239.84 252.64 1241.18 255.898Z" stroke="#808080" stroke-opacity="0.6" stroke-miterlimit="10"/>
<path d="M957.462 103.73C959.667 103.923 961.873 103.372 963.728 102.164C966.172 97.245 952.136 102.822 957.462 103.73Z" stroke="#808080" stroke-opacity="0.6" stroke-miterlimit="10"/>
<path d="M995.058 104.232C994.807 102.164 990.484 104.827 991.925 105.673C993.366 106.519 995.277 106.299 995.058 104.232Z" stroke="#808080" stroke-opacity="0.6" stroke-miterlimit="10"/>
<path d="M934.655 31.6409L938.226 29.7611C939.385 25.7822 927.574 30.701 928.013 31.2649C930.107 32.1957 932.469 32.3294 934.655 31.6409V31.6409Z" stroke="#808080" stroke-opacity="0.6" stroke-miterlimit="10"/>
<path d="M1328.75 596.45C1329 598.017 1338.93 606.319 1340.34 605.285C1341.75 604.251 1328.5 594.978 1328.75 596.45Z" stroke="#808080" stroke-opacity="0.6" stroke-miterlimit="10"/>
<path d="M361.355 390.552C359.13 386.353 361.856 398.854 362.859 396.536C362.216 394.579 361.713 392.58 361.355 390.552V390.552Z" stroke="#808080" stroke-opacity="0.6" stroke-miterlimit="10"/>
<path d="M426.739 459.258C429.684 459.916 430.656 458.913 429.59 456.313C427.491 454.371 425.768 458.287 426.739 459.258Z" stroke="#808080" stroke-opacity="0.6" stroke-miterlimit="10"/>
<path d="M1103.55 517.218C1103.55 516.058 1100.42 516.622 1101.45 518.251C1102.49 519.881 1103.55 518.377 1103.55 517.218Z" stroke="#808080" stroke-opacity="0.6" stroke-miterlimit="10"/>
<path d="M1127.99 542.218C1129.53 542.646 1131.15 542.7 1132.72 542.375C1134.82 540.62 1121.35 538.302 1121.72 538.49C1121.84 537.543 1122.33 536.682 1123.08 536.094C1123.83 535.507 1124.79 535.242 1125.73 535.357C1122.22 537.707 1091.55 527.399 1093.59 534.668C1094.37 537.738 1126.61 544.286 1127.99 542.218Z" stroke="#808080" stroke-opacity="0.6" stroke-miterlimit="10"/>
<path d="M1164.33 542.375C1167.46 542.375 1167.81 541.968 1165.62 541.059C1164.05 540.809 1149.39 542.375 1149.67 543.002C1151.58 547.169 1161.67 542.532 1164.33 542.375Z" stroke="#808080" stroke-opacity="0.6" stroke-miterlimit="10"/>
<path d="M1140.52 540.808C1139.39 543.597 1136.64 539.837 1135.19 541.748C1132.25 545.696 1145.31 545.602 1146.44 542.876C1147.13 541.31 1141.08 539.524 1140.52 540.808Z" stroke="#808080" stroke-opacity="0.6" stroke-miterlimit="10"/>
<path d="M1105.81 501.678C1114.74 510.795 1110.38 518.659 1125.11 519.442C1137.36 520.068 1138.05 510.325 1146 500.362C1145.47 501.02 1140.74 489.835 1140.8 488.802C1141.05 484.04 1146.69 484.729 1147.66 481.565C1148.64 478.4 1136.29 476.144 1135.63 476.301C1131.65 477.178 1133.66 484.196 1126.83 483.664C1126.61 483.664 1114.83 497.167 1114.8 497.261C1115.68 495.162 1099.6 495.318 1105.81 501.678Z" stroke="#808080" stroke-opacity="0.6" stroke-miterlimit="10"/>
<path d="M1059.06 498.169C1058.81 499.454 1060.13 503.213 1061.54 501.678C1062.95 500.143 1059.35 496.885 1059.06 498.169Z" stroke="#808080" stroke-opacity="0.6" stroke-miterlimit="10"/>
<path d="M1064.92 509.322C1064.67 509.949 1065.99 512.455 1066.8 511.766C1067.62 511.077 1065.64 507.254 1064.92 509.322Z" stroke="#808080" stroke-opacity="0.6" stroke-miterlimit="10"/>
<path d="M1094.34 523.702C1094 518.251 1097.07 519.692 1097.04 516.183C1097.04 514.648 1092.05 509.917 1091.96 512.831C1092.92 513.773 1093.76 514.824 1094.47 515.964C1093.43 518.564 1081.31 500.08 1080.68 499.391C1077.86 496.258 1053.36 477.46 1052.27 479.904C1051.48 481.721 1071.06 509.917 1073.66 513.489C1076.26 517.061 1095.47 540.996 1094.34 523.702Z" stroke="#808080" stroke-opacity="0.6" stroke-miterlimit="10"/>
<path d="M1153.8 549.456C1153.8 545.947 1146.82 547.827 1146.47 547.263C1146.13 546.699 1153.8 552.589 1153.8 549.456Z" stroke="#808080" stroke-opacity="0.6" stroke-miterlimit="10"/>
<path d="M1145.88 515.934C1145.31 516.967 1153.33 528.685 1150.01 530.063C1153.15 528.779 1150.36 515.777 1153.43 517.281C1159.26 520.132 1152.8 528.183 1160.6 522.105C1156.47 525.238 1160.82 500.676 1163.99 507.631C1164.39 508.571 1146.35 513.302 1150.86 505.939C1155.78 497.888 1166.74 507.099 1171.07 498.17C1168.47 503.558 1157.72 496.979 1154.15 499.392C1148.57 503.151 1148.98 510.42 1145.88 515.934Z" stroke="#808080" stroke-opacity="0.6" stroke-miterlimit="10"/>
<path d="M1183.13 518.91C1186.54 520.188 1190.07 521.143 1193.66 521.761C1198.04 521.761 1181 511.86 1183.13 518.91Z" stroke="#808080" stroke-opacity="0.6" stroke-miterlimit="10"/>
<path d="M1183.72 498.545C1183.72 489.836 1176.49 507.788 1183.13 506.472C1187.52 505.595 1183.72 498.389 1183.72 498.545Z" stroke="#808080" stroke-opacity="0.6" stroke-miterlimit="10"/>
<path d="M1170.41 547.137C1172.45 544.443 1179.28 544.004 1180.18 541.467C1180.69 539.963 1169.69 544.819 1168.65 544.944C1167.06 545.195 1162.39 548.61 1165.52 550.27C1166.55 550.265 1167.56 549.968 1168.42 549.413C1169.29 548.859 1169.98 548.069 1170.41 547.137Z" stroke="#808080" stroke-opacity="0.6" stroke-miterlimit="10"/>
<path d="M1174.98 519.16C1175.48 521.228 1178.9 522.293 1179.84 520.601C1180.78 518.909 1174.42 516.748 1174.98 519.16Z" stroke="#808080" stroke-opacity="0.6" stroke-miterlimit="10"/>
<path d="M708.737 312.291C707.64 314.327 710.116 325.982 714.658 320.248C718.387 315.518 711.588 306.902 708.737 312.291Z" stroke="#808080" stroke-opacity="0.6" stroke-miterlimit="10"/>
<path d="M734.49 326.201C735.336 326.013 725.404 325.324 726.281 327.955C728.837 330.308 731.785 332.196 734.991 333.532C735.746 331.13 736.646 328.776 737.685 326.483C737.27 326.07 736.722 325.815 736.139 325.764C735.555 325.712 734.971 325.867 734.49 326.201V326.201Z" stroke="#808080" stroke-opacity="0.6" stroke-miterlimit="10"/>
</svg>
