<svg width="74" height="74" viewBox="0 0 74 74" fill="none" xmlns="http://www.w3.org/2000/svg">
<path d="M64.2983 15.8684L48.8816 0.45166C48.5926 0.162598 48.2012 0 47.7916 0H15.4166C12.0156 0 9.25 2.76561 9.25 6.16671V67.8334C9.25 71.2344 12.0156 74 15.4167 74H58.5834C61.9844 74 64.75 71.2344 64.75 67.8333V16.9583C64.75 16.5488 64.5874 16.1574 64.2983 15.8684ZM49.3333 5.26339L59.4866 15.4167H52.4166C50.7169 15.4167 49.3333 14.0331 49.3333 12.3334V5.26339ZM61.6667 67.8333C61.6667 69.533 60.2831 70.9166 58.5834 70.9166H15.4167C13.717 70.9166 12.3334 69.533 12.3334 67.8333V6.16671C12.3334 4.46703 13.717 3.08343 15.4167 3.08343H46.25V12.3334C46.25 15.7344 49.0156 18.5 52.4167 18.5H61.6667V67.8333Z" fill="white"/>
<path d="M44.8603 45.2578C43.4331 44.1347 42.0767 42.98 41.1733 42.0767C39.999 40.9024 38.9526 39.7642 38.0434 38.6802C39.4617 34.2976 40.0834 32.0379 40.0834 30.8333C40.0834 25.7161 38.2346 24.6666 35.4584 24.6666C33.3491 24.6666 30.8334 25.7626 30.8334 30.9809C30.8334 33.2814 32.0936 36.0742 34.5912 39.3201C33.98 41.1854 33.2618 43.3369 32.4549 45.7623C32.0664 46.926 31.645 48.0039 31.1992 49.0006C30.8365 49.1618 30.4841 49.3258 30.1439 49.4959C28.9184 50.1087 27.7546 50.6597 26.6751 51.1716C21.752 53.5022 18.5 55.0439 18.5 58.088C18.5 60.2982 20.9014 61.6666 23.125 61.6666C25.9915 61.6666 30.3199 57.838 33.4815 51.3883C36.7635 50.0936 40.8437 49.1345 44.064 48.5338C46.6444 50.5181 49.4944 52.4166 50.875 52.4166C54.6976 52.4166 55.5 50.2065 55.5 48.3531C55.5 44.7082 51.3356 44.7082 49.3333 44.7082C48.7115 44.7083 47.0435 44.892 44.8603 45.2578ZM23.125 58.5833C22.2442 58.5833 21.648 58.1678 21.5833 58.088C21.5833 56.9949 24.8428 55.4503 27.9954 53.9569C28.1956 53.8621 28.3989 53.7671 28.6052 53.6693C26.2897 57.0267 23.9997 58.5833 23.125 58.5833ZM33.9167 30.9809C33.9167 27.7501 34.9195 27.7501 35.4584 27.7501C36.5485 27.7501 37.0001 27.7501 37.0001 30.8333C37.0001 31.4837 36.5666 33.1097 35.7731 35.6481C34.5625 33.7842 33.9167 32.1869 33.9167 30.9809ZM35.0985 47.5508C35.1949 47.2829 35.2883 47.0119 35.3786 46.7378C35.9507 45.0215 36.4657 43.4798 36.9248 42.0917C37.5647 42.7963 38.2542 43.5175 38.9935 44.2567C39.2826 44.5457 39.9992 45.1961 40.9538 46.0106C39.0535 46.4246 37.0317 46.938 35.0985 47.5508ZM52.4167 48.3533C52.4167 49.0459 52.4167 49.3333 50.9864 49.3424C50.5664 49.2521 49.5953 48.6801 48.3969 47.864C48.8319 47.8159 49.1526 47.7918 49.3333 47.7918C51.6112 47.7918 52.2572 48.0145 52.4167 48.3533Z" fill="#7FFFA0"/>
</svg>
