<svg width="500" height="500" viewBox="0 0 500 500" fill="none" xmlns="http://www.w3.org/2000/svg">
<g clip-path="url(#clip0)">
<path d="M311.62 33.07C311.62 33.07 235.68 16.07 165.34 65.42C95.0001 114.77 63.3601 200 35.8901 268.6C8.42008 337.2 30.8301 401.06 88.4301 424.66C146.03 448.26 181.07 399.48 259 388.21C336.93 376.94 358.68 385.32 420.77 334.96C482.86 284.6 488.12 182.14 432.22 113.31C376.32 44.48 311.62 33.07 311.62 33.07Z" fill="#38EF7D"/>
<path opacity="0.7" d="M311.62 33.07C311.62 33.07 235.68 16.07 165.34 65.42C95.0001 114.77 63.3601 200 35.8901 268.6C8.42008 337.2 30.8301 401.06 88.4301 424.66C146.03 448.26 181.07 399.48 259 388.21C336.93 376.94 358.68 385.32 420.77 334.96C482.86 284.6 488.12 182.14 432.22 113.31C376.32 44.48 311.62 33.07 311.62 33.07Z" fill="white"/>
<path d="M217.98 192.41L173.71 360.2L223.69 330.21L252.25 372.34L248.68 195.98L217.98 192.41Z" fill="#38EF7D"/>
<path d="M225.68 321.19L184.41 345.96L222.98 199.75L242.09 201.97L245.09 349.81L225.68 321.19Z" fill="white"/>
<path opacity="0.3" d="M249.5 236.32L248.68 196L218 192.41L208.53 228.3C211.91 235.11 214.23 244.16 220.16 246.09C228.16 248.67 238.81 236.09 247.63 236.09C248.259 236.109 248.885 236.186 249.5 236.32Z" fill="black"/>
<path d="M278.99 193.69L349.54 352.23L302.95 328.69L273.96 376.78L249.26 202.13L278.99 193.69Z" fill="#38EF7D"/>
<path d="M256.72 206.98L275.23 201.73L335.75 337.75L300.42 319.89L277.96 357.16L256.72 206.98Z" fill="white"/>
<path opacity="0.3" d="M279 193.69L249.27 202.13L254 235.47H254.44C263.26 235.47 273.96 248 281.92 245.42C288.02 243.42 290.3 233.89 293.85 227.02L279 193.69Z" fill="black"/>
<path d="M343.31 150C343.31 158.82 327.98 165.11 325.39 173.06C322.72 181.31 331.33 195.39 326.33 202.26C321.33 209.13 305.2 205.33 298.27 210.37C291.34 215.41 290.14 231.89 281.89 234.56C273.89 237.15 263.23 224.56 254.41 224.56C245.59 224.56 234.9 237.1 226.94 234.56C218.69 231.89 217.42 215.37 210.56 210.37C203.7 205.37 187.56 209.19 182.49 202.26C177.42 195.33 186.11 181.31 183.43 173.07C180.85 165.07 165.52 158.82 165.52 150C165.52 141.18 180.85 134.89 183.43 126.94C186.11 118.69 177.5 104.61 182.49 97.74C187.48 90.87 203.62 94.67 210.56 89.63C217.5 84.59 218.69 68.11 226.94 65.44C234.94 62.85 245.59 75.39 254.41 75.39C263.23 75.39 273.93 62.85 281.89 65.44C290.13 68.11 291.4 84.63 298.27 89.63C305.14 94.63 321.27 90.81 326.33 97.74C331.39 104.67 322.72 118.74 325.39 126.93C328 134.85 343.31 141.14 343.31 150Z" fill="#38EF7D"/>
<path opacity="0.6" d="M333.61 150C333.61 157.86 319.95 163.46 317.61 170.55C315.22 177.9 322.89 190.44 318.44 196.55C313.99 202.66 299.62 199.29 293.44 203.78C287.26 208.27 286.2 222.95 278.85 225.34C271.76 227.64 262.23 216.47 254.37 216.47C246.51 216.47 237 227.6 229.94 225.3C222.59 222.91 221.46 208.2 215.34 203.74C209.22 199.28 194.84 202.69 190.34 196.51C185.84 190.33 193.56 177.86 191.18 170.51C188.87 163.42 175.18 157.82 175.18 149.96C175.18 142.1 188.83 136.5 191.18 129.41C193.56 122.06 185.89 109.52 190.34 103.41C194.79 97.3 209.17 100.67 215.34 96.18C221.51 91.69 222.59 77.01 229.94 74.62C237.02 72.32 246.56 83.49 254.41 83.49C262.26 83.49 271.8 72.32 278.89 74.62C286.24 77.01 287.37 91.72 293.48 96.18C299.59 100.64 313.99 97.18 318.48 103.41C322.97 109.64 315.26 122.06 317.65 129.41C320 136.5 333.61 142.1 333.61 150Z" fill="white"/>
<path d="M254.41 216C290.883 216 320.45 186.433 320.45 149.96C320.45 113.487 290.883 83.92 254.41 83.92C217.937 83.92 188.37 113.487 188.37 149.96C188.37 186.433 217.937 216 254.41 216Z" fill="white"/>
<path d="M222.94 119C230.83 115.12 237.06 112.91 247.17 100.86H271.81V179.22H284.68V197.63H229.31V179.26H243.15V127.9L229.31 134.41L222.94 119Z" fill="#263238"/>
<path opacity="0.2" d="M359.21 473.48C411.025 473.48 453.03 465.251 453.03 455.1C453.03 444.949 411.025 436.72 359.21 436.72C307.395 436.72 265.39 444.949 265.39 455.1C265.39 465.251 307.395 473.48 359.21 473.48Z" fill="black"/>
<path d="M445.94 221.44C444.47 214.57 443.65 214.9 435.31 212.28C426.14 209.401 416.617 207.803 407.01 207.53C400.827 207.297 394.645 208.015 388.68 209.66C388.68 209.66 378.2 210.97 370.68 212.66C364.23 225.54 371.51 243.22 371.51 243.22C371.51 243.22 380.67 263.34 380.67 273.65C380.67 283.96 372.81 301.95 372.49 302.44C372.17 302.93 348.28 344.44 342.22 358.55C336.16 372.66 336.01 378.35 339.28 383.91C342.55 389.47 379.85 440.84 379.85 440.84C379.85 440.84 369.85 452.29 365.29 455.24C360.73 458.19 355 458.65 357 461.11C359 463.57 372.21 464.54 375.81 463.72C379.41 462.9 387.59 455.72 392.33 452.44C397.07 449.16 401.33 446.87 399.53 442.78C397.73 438.69 393.8 435.09 392.17 431.78C390.54 428.47 384.64 419.02 381.37 407.24C378.1 395.46 375.65 388.43 371.88 382.05C368.11 375.67 365.5 373.22 365.5 373.22C365.5 373.22 379.57 360.29 387.1 353.75C394.63 347.21 401.33 341.81 401.33 341.81C401.33 341.81 426.85 315.63 429.14 309.9C431.43 304.17 437.65 286.18 442.23 270.48C446.81 254.78 447.41 228.31 445.94 221.44Z" fill="#38EF7D" stroke="#263238" stroke-width="0.967197" stroke-linecap="round" stroke-linejoin="round"/>
<path d="M371.51 243.2C371.51 243.2 364.23 225.52 370.68 212.64C368.909 213.013 367.163 213.493 365.45 214.08C359.24 216.37 328.97 229.08 325.86 230.44C322.75 231.8 317.03 236.49 318.5 241.44C319.97 246.39 322.26 247.82 332.73 247.98C343.2 248.14 371.51 243.2 371.51 243.2Z" fill="#263238" stroke="#263238" stroke-width="0.967197" stroke-linecap="round" stroke-linejoin="round"/>
<path d="M349.26 153.88C349.26 153.88 358.58 158.62 359.07 159.44C359.56 160.26 358.91 162.05 358.25 163.36C357.59 164.67 354 167.78 352.37 168.43C350.74 169.08 352.04 164.18 352.04 161.43C352.04 158.68 347.29 156.36 346.8 155.05C346.31 153.74 348 153.38 349.26 153.88Z" fill="white" stroke="#263238" stroke-width="0.967197" stroke-linecap="round" stroke-linejoin="round"/>
<path d="M331.42 246.8L327.83 247.8C324.23 248.8 318.01 249.27 317.03 247.96C316.05 246.65 312.61 229.31 313.1 219.66C313.59 210.01 327.99 168.78 329.63 165.66C331.27 162.54 345.33 152.41 345.33 152.41C345.33 152.41 347.13 151.92 349.26 153.89C351.39 155.86 357.44 159.94 357.11 161.57C356.78 163.2 353.35 168.12 351.87 169.43C350.39 170.74 348.11 169.43 348.11 169.43C348.11 169.43 346.31 172.53 344.02 173.52C341.73 174.51 336.33 173.35 336.33 173.35C336.33 173.35 331.92 200.84 333.22 211.35C334.52 221.86 337.15 234.09 335.22 239.98" fill="#263238"/>
<path d="M331.42 246.8L327.83 247.8C324.23 248.8 318.01 249.27 317.03 247.96C316.05 246.65 312.61 229.31 313.1 219.66C313.59 210.01 327.99 168.78 329.63 165.66C331.27 162.54 345.33 152.41 345.33 152.41C345.33 152.41 347.13 151.92 349.26 153.89C351.39 155.86 357.44 159.94 357.11 161.57C356.78 163.2 353.35 168.12 351.87 169.43C350.39 170.74 348.11 169.43 348.11 169.43C348.11 169.43 346.31 172.53 344.02 173.52C341.73 174.51 336.33 173.35 336.33 173.35C336.33 173.35 331.92 200.84 333.22 211.35C334.52 221.86 337.15 234.09 335.22 239.98" stroke="#263238" stroke-width="0.967197" stroke-linecap="round" stroke-linejoin="round"/>
<path d="M344 173.51C346.29 172.51 348.09 169.42 348.09 169.42C348.09 169.42 350.38 170.73 351.85 169.42C353.32 168.11 356.76 163.2 357.09 161.56C357.42 159.92 351.36 155.84 349.24 153.88C347.12 151.92 345.31 152.4 345.31 152.4C345.31 152.4 331.24 162.55 329.61 165.65C329.21 166.41 328.06 169.42 326.53 173.65C329.264 175.554 332.43 176.746 335.74 177.12C336.08 174.76 336.31 173.31 336.31 173.31C336.31 173.31 341.73 174.49 344 173.51Z" fill="white" stroke="#263238" stroke-width="0.967197" stroke-linecap="round" stroke-linejoin="round"/>
<path d="M358.57 163.05C358.57 163.05 360.86 163.7 360.21 165.34C359.56 166.98 357.1 168.77 355.63 168.61C354.16 168.45 353.83 166.48 354.81 164.85C355.79 163.22 357.75 162.39 358.57 163.05Z" fill="white" stroke="#263238" stroke-width="0.967197" stroke-linecap="round" stroke-linejoin="round"/>
<path d="M348.11 169.42C348.11 169.42 346.8 167.94 347.62 166.8C348.44 165.66 350.07 166.47 350.07 166.47L347.62 163.36" stroke="#263238" stroke-width="0.967197" stroke-linecap="round" stroke-linejoin="round"/>
<path d="M367.54 288.84C372.654 288.84 376.8 284.694 376.8 279.58C376.8 274.466 372.654 270.32 367.54 270.32C362.426 270.32 358.28 274.466 358.28 279.58C358.28 284.694 362.426 288.84 367.54 288.84Z" fill="white" stroke="#263238" stroke-width="0.967197" stroke-linecap="round" stroke-linejoin="round"/>
<path d="M365.11 270.5C366.08 267.884 367.614 265.513 369.603 263.557C371.593 261.6 373.988 260.106 376.62 259.18C385.78 255.76 400.7 252.18 409.33 240.85C417.96 229.52 414.84 207.85 414.84 207.85L421.55 208.76C421.55 208.76 420.65 230.42 416.34 241.92C412.03 253.42 398.9 259.92 388.48 261.7C378.06 263.48 369.43 263.31 365.11 270.5Z" fill="white" stroke="#263238" stroke-width="0.967197" stroke-linecap="round" stroke-linejoin="round"/>
<path d="M365.11 270.5C365.11 270.5 364.03 263.13 370.68 255.4C377.33 247.67 388.12 239.23 389.92 231.32C391.72 223.41 389.74 209.75 389.74 209.75L395.49 208.13C397.072 215.287 397.134 222.697 395.67 229.88C393.15 241.02 387.04 246.42 379.49 252.17C371.94 257.92 365.11 270.5 365.11 270.5Z" fill="white" stroke="#263238" stroke-width="0.967197" stroke-linecap="round" stroke-linejoin="round"/>
<path d="M439.23 215.55C437.301 217.141 435.713 219.106 434.562 221.326C433.41 223.546 432.719 225.976 432.53 228.47C431.87 236.98 433.34 259.39 433.34 268.23C433.34 277.07 426.8 290.31 427.78 297.18C428.76 304.05 437.78 312.23 442.67 306.84C447.56 301.45 451.34 284.1 453.14 261.68C454.94 239.26 453.47 224.22 450.69 219.68C447.91 215.14 443.32 212.11 439.23 215.55Z" fill="#263238" stroke="#263238" stroke-width="0.967197" stroke-linecap="round" stroke-linejoin="round"/>
<path d="M444.63 300.13C443.63 305.69 440.54 311.13 437.27 312.23C434 313.33 430.27 308.8 425 300.29C419.73 291.78 417 282.46 415 272.64C413.227 263.664 411.919 254.601 411.08 245.49C410.91 241.73 411.08 240.74 413.2 238.49C415.32 236.24 423.02 234.4 423.02 234.4L424.33 232.11C424.98 230.97 428.42 230.31 430.05 231.3C431.68 232.29 432.51 237.68 432.51 237.68C432.51 237.68 437.09 240.29 437.09 242.91C437.09 245.53 434.14 248.31 430.87 252.73C427.6 257.15 426.62 255.51 426.29 259.6C425.96 263.69 428.29 269.09 432.34 272.85C436.39 276.61 442.34 281.19 443.96 288.55" fill="#263238"/>
<path d="M444.63 300.13C443.63 305.69 440.54 311.13 437.27 312.23C434 313.33 430.27 308.8 425 300.29C419.73 291.78 417 282.46 415 272.64C413.227 263.664 411.919 254.601 411.08 245.49C410.91 241.73 411.08 240.74 413.2 238.49C415.32 236.24 423.02 234.4 423.02 234.4L424.33 232.11C424.98 230.97 428.42 230.31 430.05 231.3C431.68 232.29 432.51 237.68 432.51 237.68C432.51 237.68 437.09 240.29 437.09 242.91C437.09 245.53 434.14 248.31 430.87 252.73C427.6 257.15 426.62 255.51 426.29 259.6C425.96 263.69 428.29 269.09 432.34 272.85C436.39 276.61 442.34 281.19 443.96 288.55" stroke="#263238" stroke-width="0.967197" stroke-linecap="round" stroke-linejoin="round"/>
<path d="M426.28 260.46C426.28 260.16 426.28 259.85 426.28 259.56C426.61 255.47 427.59 257.1 430.86 252.69C434.13 248.28 437.08 245.49 437.08 242.87C437.08 240.25 432.5 237.64 432.5 237.64C432.5 237.64 431.68 232.24 430.04 231.26C428.4 230.28 424.97 230.93 424.32 232.07L423 234.36C423 234.36 415.31 236.16 413.18 238.45C411.05 240.74 410.89 241.73 411.06 245.45C411.16 247.89 411.96 254.45 413.06 261.45C417.473 262.347 422.049 262.005 426.28 260.46Z" fill="white" stroke="#263238" stroke-width="0.967197" stroke-linecap="round" stroke-linejoin="round"/>
<path d="M429.3 309.43C409.6 302.84 385.19 299.72 374.15 298.56C373.24 300.82 372.58 302.28 372.49 302.42C372.16 302.91 348.28 344.42 342.22 358.53C336.16 372.64 336.01 378.33 339.28 383.89C342.55 389.45 379.85 440.82 379.85 440.82C385.85 440.09 391.2 436.06 393.52 434.07C392.994 433.359 392.525 432.606 392.12 431.82C390.48 428.55 384.59 419.06 381.32 407.28C378.05 395.5 375.6 388.47 371.83 382.09C368.06 375.71 365.45 373.26 365.45 373.26C365.45 373.26 379.52 360.33 387.05 353.79C394.58 347.25 401.28 341.85 401.28 341.85C401.28 341.85 426.8 315.67 429.09 309.94C429.16 309.78 429.22 309.61 429.3 309.43Z" fill="#787878" stroke="#263238" stroke-width="0.967197" stroke-linecap="round" stroke-linejoin="round"/>
<path d="M393.52 434.07C391.64 437.63 383.78 444.42 383.78 444.42C383.78 444.42 381.78 442.29 380.67 440.82C379.8 439.71 379.5 439.99 379.4 440.2L379.85 440.82C379.85 440.82 369.85 452.27 365.29 455.22C360.73 458.17 355 458.65 357 461.11C359 463.57 372.21 464.54 375.81 463.72C379.41 462.9 387.59 455.72 392.33 452.44C397.07 449.16 401.33 446.87 399.53 442.78C398.08 439.61 395.41 436.73 393.52 434.07Z" fill="#38EF7D" stroke="#263238" stroke-width="0.967197" stroke-linecap="round" stroke-linejoin="round"/>
<path d="M373.14 461.76C369.75 462.64 360.68 460.76 356.64 459.76C356.554 459.986 356.538 460.232 356.593 460.467C356.648 460.703 356.773 460.916 356.95 461.08C358.95 463.53 372.16 464.51 375.76 463.69C379.36 462.87 387.54 455.69 392.28 452.41C397.02 449.13 401.28 446.84 399.48 442.75C399.27 442.28 399.03 441.81 398.77 441.35C397.92 442.49 396.92 443.77 395.88 445.04C392.94 448.67 377.56 460.61 373.14 461.76Z" fill="white" stroke="#263238" stroke-width="0.967197" stroke-linecap="round" stroke-linejoin="round"/>
<path d="M419.28 317.63C419.28 317.63 405 304.87 391.14 300.29C377.28 295.71 351.38 297.02 344.84 299.64C338.3 302.26 341.08 310.64 341.24 320.25C341.4 329.86 347.95 347.73 350.73 357.88C353.51 368.03 354.49 379.31 354.82 383.23C355.15 387.15 355.15 388.63 355.15 388.63C355.15 388.63 336.99 388.47 332.24 387.98C327.49 387.49 324.72 388.98 323.9 390.6C323.415 391.44 323.241 392.425 323.41 393.38C323.41 393.38 335.68 401.38 346.31 405.81C356.94 410.24 367.09 413.01 368.4 412.35C369.71 411.69 371.01 401.72 371.01 394.85C371.01 387.98 373.14 354.93 373.14 349.04V333.83C373.14 333.83 404.88 350.68 417.48 346.75C430.08 342.82 429.3 309.43 429.3 309.43L419.11 306.18" fill="#787878"/>
<path d="M419.28 317.63C419.28 317.63 405 304.87 391.14 300.29C377.28 295.71 351.38 297.02 344.84 299.64C338.3 302.26 341.08 310.64 341.24 320.25C341.4 329.86 347.95 347.73 350.73 357.88C353.51 368.03 354.49 379.31 354.82 383.23C355.15 387.15 355.15 388.63 355.15 388.63C355.15 388.63 336.99 388.47 332.24 387.98C327.49 387.49 324.72 388.98 323.9 390.6C323.415 391.44 323.241 392.425 323.41 393.38C323.41 393.38 335.68 401.38 346.31 405.81C356.94 410.24 367.09 413.01 368.4 412.35C369.71 411.69 371.01 401.72 371.01 394.85C371.01 387.98 373.14 354.93 373.14 349.04V333.83C373.14 333.83 404.88 350.68 417.48 346.75C430.08 342.82 429.3 309.43 429.3 309.43L419.11 306.18" stroke="#263238" stroke-width="0.967197" stroke-linecap="round" stroke-linejoin="round"/>
<path d="M355.15 388.63C355.15 388.63 336.99 388.47 332.24 387.98C327.49 387.49 324.72 388.98 323.9 390.6C323.415 391.44 323.241 392.425 323.41 393.38C323.41 393.38 335.68 401.38 346.31 405.81C356.94 410.24 367.09 413.01 368.4 412.35C369.55 411.78 370.7 403.98 370.96 397.43C364.22 391.69 355.15 388.63 355.15 388.63Z" fill="#38EF7D" stroke="#263238" stroke-width="0.967197" stroke-linecap="round" stroke-linejoin="round"/>
<path d="M368.4 412.35C368.91 412.1 369.4 410.35 369.86 408.03C364.151 407.612 358.533 406.369 353.18 404.34C343.93 400.85 328.86 393.52 323.72 390.99C323.374 391.736 323.265 392.57 323.41 393.38C323.41 393.38 335.68 401.38 346.31 405.81C356.94 410.24 367.09 413 368.4 412.35Z" fill="white" stroke="#263238" stroke-width="0.967197" stroke-linecap="round" stroke-linejoin="round"/>
<path d="M373.14 333.83C373.14 333.83 372.98 319.6 365.78 312.56" stroke="#263238" stroke-width="0.967197" stroke-linecap="round" stroke-linejoin="round"/>
<path d="M362 191.9C362 191.9 365.9 204.69 367.62 209.21C369.34 213.73 369.49 216.21 374.94 221.37C380.39 226.53 381.49 230.57 387.1 231.03C392.71 231.49 394.9 228.03 394.9 228.03C394.9 228.03 395.68 233.18 398.64 234.73C401.6 236.28 408.15 236.6 412.2 228.65C416.25 220.7 413.76 216.81 412.36 213.07C410.96 209.33 409.08 204.65 409.08 204.65C411.114 201.843 412.168 198.445 412.08 194.98C411.77 189.53 410.21 188.9 408.5 188.43C406.79 187.96 401.95 191.08 399.93 190.15C397.91 189.22 401.33 183.91 395.87 183.45C390.41 182.99 384.8 190.45 374.98 191.24C365.16 192.03 361.64 188.94 362 191.9Z" fill="white" stroke="#263238" stroke-width="0.967197" stroke-linecap="round" stroke-linejoin="round"/>
<path d="M394.85 228.07L403.73 218.07C407.63 213.71 407.63 207.16 407.63 207.16" fill="white"/>
<path d="M394.85 228.07L403.73 218.07C407.63 213.71 407.63 207.16 407.63 207.16" stroke="#263238" stroke-width="0.967197" stroke-linecap="round" stroke-linejoin="round"/>
<path d="M377.39 207.18C377.39 207.18 378.48 212.18 377.39 214.66C376.3 217.14 377.23 218.41 379.1 218.56C379.995 218.713 380.915 218.605 381.75 218.25" stroke="#263238" stroke-width="0.967197" stroke-linecap="round" stroke-linejoin="round"/>
<path d="M383.16 207.65C383.16 207.65 384.25 204.38 389.39 205.31" stroke="#263238" stroke-width="1.93439" stroke-linecap="round" stroke-linejoin="round"/>
<path d="M370.22 208.58C370.22 208.58 373.22 206.87 375.36 209.21" stroke="#263238" stroke-width="1.93439" stroke-linecap="round" stroke-linejoin="round"/>
<path d="M367.57 203.6C367.57 203.6 371.15 200.01 375.36 205.6" stroke="#263238" stroke-width="0.967197" stroke-linecap="round" stroke-linejoin="round"/>
<path d="M380.35 204.06C380.35 204.06 382.06 198.3 387.35 199.06" stroke="#263238" stroke-width="0.967197" stroke-linecap="round" stroke-linejoin="round"/>
<path d="M385.18 219.81C385.18 219.81 393.29 218.25 394.85 208.74C394.85 208.74 398.85 215.15 396.08 220.29C393.31 225.43 389.55 224.64 389.55 224.64L385.18 219.81Z" stroke="#263238" stroke-width="0.967197" stroke-linecap="round" stroke-linejoin="round"/>
<path d="M367.25 173.82C367.25 173.82 371.31 168.21 366.79 168.99C362.27 169.77 354.79 178.5 355.72 186.76C356.65 195.02 373.33 196.89 381.44 195.65C386.307 194.891 390.823 192.657 394.38 189.25C394.38 189.25 391.38 195.65 394.54 196.42C397.7 197.19 399.21 196.42 399.21 196.42C399.21 196.42 402.21 203.13 403.11 201.1C404.01 199.07 402.89 197.48 403.42 194.87C404.67 188.79 409.19 188.94 409.19 188.94C409.19 188.94 409.97 173.82 404.36 167.94C398.75 162.06 384.09 161.39 378.01 164.51C371.93 167.63 367.25 173.82 367.25 173.82Z" fill="#263238" stroke="#263238" stroke-width="0.967197" stroke-linecap="round" stroke-linejoin="round"/>
<path opacity="0.2" d="M131.92 473.48C183.735 473.48 225.74 465.251 225.74 455.1C225.74 444.949 183.735 436.72 131.92 436.72C80.1047 436.72 38.1001 444.949 38.1001 455.1C38.1001 465.251 80.1047 473.48 131.92 473.48Z" fill="black"/>
<path d="M69.6499 434.9C69.6499 434.9 57.4399 441.2 52.5599 446.9C47.6799 452.6 53.1699 456.46 63.1399 453.21C73.1099 449.96 76.7699 435.92 76.7699 435.92C76.7699 435.92 73.3099 433.07 69.6499 434.9Z" fill="#38EF7D" stroke="#263238" stroke-width="0.967197" stroke-linecap="round" stroke-linejoin="round"/>
<path d="M199.25 434.9C199.25 434.9 211.46 441.2 216.34 446.9C221.22 452.6 215.73 456.46 205.76 453.21C195.79 449.96 192.13 435.92 192.13 435.92C192.13 435.92 195.59 433.07 199.25 434.9Z" fill="#38EF7D" stroke="#263238" stroke-width="0.967197" stroke-linecap="round" stroke-linejoin="round"/>
<path d="M122.36 176.91L122.21 187.76C117.671 186.702 113.194 185.393 108.8 183.84C101.57 181.28 99.8003 183.54 95.5403 187.15C91.2803 190.76 71.1403 214 69.0003 215.93C66.8603 217.86 60.2603 227.93 60.2603 233.1C60.2603 238.27 64.3303 241.84 72.4603 237.47C80.5903 233.1 95.5103 221.35 95.5103 221.35C95.5103 221.35 103.2 244.25 103.35 248.17C103.5 252.09 98.0703 260.67 95.2103 268.51C92.3503 276.35 91.0003 298.19 89.0603 305.72C87.1203 313.25 82.1303 321.09 78.2203 341.12C74.3103 361.15 74.0003 376.53 73.1003 380.44C72.2003 384.35 71.0003 399.28 69.6303 411C68.2603 422.72 67.3703 435.7 68.8803 437.06C70.3903 438.42 74.7503 439.32 76.8803 437.06C79.0103 434.8 94.7903 394.76 98.0003 385.57C101.21 376.38 122.56 334.79 124.37 330.12C126.18 325.45 129.44 319 129.44 319C129.44 319 140.59 339.79 144.35 350.18C148.11 360.57 168.76 400.65 174.49 411.18C180.22 421.71 189.55 435.73 192.11 437.09C194.67 438.45 198.8 437.61 199.25 434.9C199.7 432.19 195.43 390.54 192.25 382.7C189.07 374.86 186.98 370.5 186.08 364.78C185.18 359.06 176.43 312.2 172.37 303.61C168.31 295.02 167.7 293.37 167.55 292.91C167.4 292.45 164.55 282.37 160.31 272.12C156.07 261.87 151.43 252.69 151.43 252.69L159.11 231.6C159.11 231.6 170.41 254.95 175.68 259.92C180.95 264.89 198.13 286.28 198.13 286.28L203.55 280.86L186.08 250.86C186.08 250.86 182.31 231.43 177.79 219.22C173.27 207.01 169.96 197.98 164.08 195.22C158.2 192.46 145.55 191.75 143.29 190.85C141.03 189.95 141.78 189.19 141.63 188.74C141.48 188.29 142.39 178.2 142.39 178.2C142.39 178.2 134 181.13 130 179.92C127.391 179.083 124.839 178.078 122.36 176.91Z" fill="#263238" stroke="#263238" stroke-width="0.967197" stroke-linecap="round" stroke-linejoin="round"/>
<path d="M154.81 285.19L137.4 307.76" stroke="#696969" stroke-width="0.967197" stroke-linecap="round" stroke-linejoin="round"/>
<path d="M99.3599 287.13L118.71 307.12" stroke="#696969" stroke-width="0.967197" stroke-linecap="round" stroke-linejoin="round"/>
<path d="M102.59 298.73L121.93 310.98" stroke="#696969" stroke-width="0.967197" stroke-linecap="round" stroke-linejoin="round"/>
<path d="M151.44 252.69L159.12 231.6C159.12 231.6 155.05 203 147.3 191.7C145.948 191.55 144.61 191.289 143.3 190.92C141.04 190.02 141.79 189.26 141.64 188.81C141.49 188.36 142.4 178.27 142.4 178.27C142.4 178.27 134 181.13 130 179.92C127.378 179.088 124.812 178.086 122.32 176.92L122.17 187.77C122.17 187.77 120.17 187.32 117.05 186.46C113.74 190.71 100.37 208.34 95.5 221.36C95.5 221.36 103.19 244.26 103.34 248.18C103.45 251.02 100.63 256.3 97.98 261.98C102.89 265.27 111.66 269.16 125.98 269.42C143.17 269.73 152.39 265.77 156.47 263.26C153.69 257.12 151.44 252.69 151.44 252.69Z" fill="#38EF7D" stroke="#263238" stroke-width="0.967197" stroke-linecap="round" stroke-linejoin="round"/>
<path d="M141.26 203C144.26 200.08 145.18 195.65 145.13 191.34C144.508 191.256 143.895 191.112 143.3 190.91C141.04 190.01 141.79 189.25 141.64 188.8C141.49 188.35 142.4 178.26 142.4 178.26C142.4 178.26 134 181.13 130 179.92C127.378 179.088 124.812 178.086 122.32 176.92L122.17 187.77C122.17 187.77 121.54 187.63 120.45 187.36C119.62 190.56 118.02 199.17 123.22 203.89C128.22 208.37 136.59 207.5 141.26 203Z" fill="#B2B2B2" stroke="#263238" stroke-width="0.967197" stroke-linecap="round" stroke-linejoin="round"/>
<path d="M116.63 186.25C116.63 186.25 116.18 197.55 113.32 203.73C110.46 209.91 107.44 210.81 107.44 210.81C108.643 211.573 109.904 212.242 111.21 212.81C113.62 213.81 114.07 213.41 114.07 213.41C114.07 213.41 118.59 210.55 120.7 203.01C121.987 198.049 122.496 192.918 122.21 187.8L116.63 186.25Z" fill="white" stroke="#263238" stroke-width="0.967197" stroke-linecap="round" stroke-linejoin="round"/>
<path d="M125.11 128.51C125.11 128.51 124.92 123.4 134.2 120.94C143.48 118.48 151.64 125.86 152.39 130.79C153.14 135.72 151.64 138.37 150.5 138.79C149.36 139.21 144.44 134.24 137.05 131.79C129.66 129.34 124.16 130.79 125.11 128.51Z" fill="#263238" stroke="#263238" stroke-width="0.967197" stroke-linecap="round" stroke-linejoin="round"/>
<path d="M115.63 153.34C115.63 153.34 114.5 149.93 111.63 152.01C108.76 154.09 110.11 160.54 111.44 162.43C112.77 164.32 115.44 164.33 115.98 163C116.52 161.67 116.55 154.09 116.55 154.09" fill="#B2B2B2"/>
<path d="M115.63 153.34C115.63 153.34 114.5 149.93 111.63 152.01C108.76 154.09 110.11 160.54 111.44 162.43C112.77 164.32 115.44 164.33 115.98 163C116.52 161.67 116.55 154.09 116.55 154.09" stroke="#263238" stroke-width="0.967197" stroke-linecap="round" stroke-linejoin="round"/>
<path d="M115.26 136.85C115.26 136.85 112.03 141.59 113.55 146.33C115.07 151.07 114.31 154.47 114.31 159.97C114.31 165.47 118.31 172.85 120.94 177.4C123.57 181.95 128.88 187.35 134.56 185.65C140.24 183.95 148.56 172.09 150.12 166.6C151.68 161.11 151.07 159.78 152.01 157.5C153.609 153.464 154.384 149.15 154.29 144.81C154.29 138.56 146.9 130.22 137.8 127.57C128.7 124.92 118.67 127.57 115.26 136.85Z" fill="#B2B2B2" stroke="#263238" stroke-width="0.967197" stroke-linecap="round" stroke-linejoin="round"/>
<path d="M149.74 158.83C149.74 158.83 151.26 154.28 154.1 155.61C156.94 156.94 155.8 163.95 153.53 166.03C151.26 168.11 148.79 167.17 148.79 165.84" fill="#B2B2B2"/>
<path d="M149.74 158.83C149.74 158.83 151.26 154.28 154.1 155.61C156.94 156.94 155.8 163.95 153.53 166.03C151.26 168.11 148.79 167.17 148.79 165.84" stroke="#263238" stroke-width="0.967197" stroke-linecap="round" stroke-linejoin="round"/>
<path d="M128.33 164.89C129.253 165.807 130.492 166.337 131.792 166.373C133.093 166.408 134.358 165.946 135.33 165.08" stroke="#263238" stroke-width="0.967197" stroke-linecap="round" stroke-linejoin="round"/>
<path d="M126.67 169.32C126.67 169.32 131.26 173.32 137.58 169.23" stroke="#263238" stroke-width="0.967197" stroke-linecap="round" stroke-linejoin="round"/>
<path d="M125.28 160.31C126.048 160.31 126.67 159.303 126.67 158.06C126.67 156.817 126.048 155.81 125.28 155.81C124.512 155.81 123.89 156.817 123.89 158.06C123.89 159.303 124.512 160.31 125.28 160.31Z" fill="#263238"/>
<path d="M138.79 160.31C139.558 160.31 140.18 159.303 140.18 158.06C140.18 156.817 139.558 155.81 138.79 155.81C138.022 155.81 137.4 156.817 137.4 158.06C137.4 159.303 138.022 160.31 138.79 160.31Z" fill="#263238"/>
<path d="M121.47 152.52C122.385 151.702 123.505 151.149 124.71 150.92C125.915 150.691 127.16 150.795 128.31 151.22" stroke="#263238" stroke-width="0.967197" stroke-linecap="round" stroke-linejoin="round"/>
<path d="M135.41 151.74C135.41 151.74 140.52 149.49 143.29 153.99" stroke="#263238" stroke-width="0.967197" stroke-linecap="round" stroke-linejoin="round"/>
<path d="M137.8 127.57C128.71 124.91 118.67 127.57 115.26 136.85C115.26 136.85 112.03 141.59 113.55 146.33C114.034 147.834 114.329 149.393 114.43 150.97L114.69 151.25C115.826 149.977 116.551 148.392 116.77 146.7C117.15 143.86 123.4 136.7 133.64 137.42C143.88 138.14 148.79 145.42 149.74 150.12C150.69 154.82 148.23 158.26 152.01 157.5C153.609 153.464 154.384 149.15 154.29 144.81C154.29 138.56 146.9 130.22 137.8 127.57Z" fill="#263238" stroke="#263238" stroke-width="0.967197" stroke-linecap="round" stroke-linejoin="round"/>
<path d="M203.56 280.86L213.35 282.86C214.14 283.016 214.849 283.449 215.35 284.08C217 286.15 220.7 290.9 221.05 292.3C221.5 294.11 221.5 294.56 220.9 294.56C220.09 294.526 219.284 294.425 218.49 294.26C217.73 294.11 214.87 290.04 212.61 289.89C210.4 289.553 208.23 288.997 206.13 288.23C206.13 288.23 210.95 291.85 212.01 292.75C213.07 293.65 212.91 294.11 212.16 294.41C211.41 294.71 210.35 294.26 209.3 293.81C208.25 293.36 207.79 293.2 204.17 291.7C200.55 290.2 198.17 286.27 198.17 286.27L203.56 280.86Z" fill="#B2B2B2" stroke="#263238" stroke-width="0.967197" stroke-linecap="round" stroke-linejoin="round"/>
<path d="M165.15 215.48L159.12 231.6L164.54 221.96" stroke="#696969" stroke-width="0.967197" stroke-linecap="round" stroke-linejoin="round"/>
<path d="M95.5403 203.57V221.35L92.5303 208.4" stroke="#696969" stroke-width="0.967197" stroke-linecap="round" stroke-linejoin="round"/>
<path d="M125.37 215.63C126.154 216.169 127.041 216.54 127.976 216.721C128.91 216.902 129.871 216.888 130.8 216.68C133.8 215.93 141.94 210.05 146.92 203.42C151.9 196.79 154.15 193 154.15 193L146.15 190.59C146.15 190.59 141.93 202.04 136.36 207.01C130.79 211.98 122.5 214.39 122.5 214.39L125.37 215.63Z" fill="white" stroke="#263238" stroke-width="0.967197" stroke-linecap="round" stroke-linejoin="round"/>
<path d="M88.1601 161.84C88.1601 161.84 123.72 214.72 125.37 215.63C126.153 216.07 126.957 216.471 127.78 216.83C127.78 216.83 119.35 216.83 116.94 214.83C114.53 212.83 95.2401 177.02 93.5801 173.1C92.2394 170.107 90.7303 167.192 89.0601 164.37L87.5601 161.5L88.1601 161.84Z" fill="white" stroke="#263238" stroke-width="0.967197" stroke-linecap="round" stroke-linejoin="round"/>
<path d="M88.1602 161.84C88.1602 161.84 102.93 204.33 104.16 207.34C105.39 210.35 109.58 212.77 111.84 213.07L114.1 213.37C114.1 213.37 103.41 195.89 98.7402 185.37C94.0702 174.85 88.1602 161.84 88.1602 161.84Z" fill="white" stroke="#263238" stroke-width="0.967197" stroke-linecap="round" stroke-linejoin="round"/>
<path d="M84.1699 163.66C89.2896 163.66 93.4399 159.51 93.4399 154.39C93.4399 149.27 89.2896 145.12 84.1699 145.12C79.0502 145.12 74.8999 149.27 74.8999 154.39C74.8999 159.51 79.0502 163.66 84.1699 163.66Z" fill="white" stroke="#263238" stroke-width="0.967197" stroke-linecap="round" stroke-linejoin="round"/>
<path d="M75.51 235.66C70.69 238.23 61.19 244.25 59.39 241.54C57.59 238.83 57.88 223.46 62.25 214.27C66.62 205.08 74.5 188.65 74.75 185.83C75 183.01 74.37 164.32 74.63 163.55C74.89 162.78 82.69 158.55 82.69 158.55C83.1008 158.449 83.5331 158.48 83.9249 158.64C84.3166 158.8 84.6475 159.08 84.87 159.44C85.64 160.72 89.1 164.44 88.97 165.44C88.84 166.44 88.71 167.23 88.71 167.23C88.71 167.23 90.76 168.39 90.25 170.31C89.74 172.23 88.84 178.12 87.69 178.89C86.7331 179.352 85.6505 179.486 84.61 179.27C84.4814 180.664 84.0912 182.021 83.46 183.27C82.57 184.68 81.67 185.45 81.54 185.83C81.41 186.21 78.67 230.54 77.16 232.05" fill="#263238"/>
<path d="M75.51 235.66C70.69 238.23 61.19 244.25 59.39 241.54C57.59 238.83 57.88 223.46 62.25 214.27C66.62 205.08 74.5 188.65 74.75 185.83C75 183.01 74.37 164.32 74.63 163.55C74.89 162.78 82.69 158.55 82.69 158.55C83.1008 158.449 83.5331 158.48 83.9249 158.64C84.3166 158.8 84.6475 159.08 84.87 159.44C85.64 160.72 89.1 164.44 88.97 165.44C88.84 166.44 88.71 167.23 88.71 167.23C88.71 167.23 90.76 168.39 90.25 170.31C89.74 172.23 88.84 178.12 87.69 178.89C86.7331 179.352 85.6505 179.486 84.61 179.27C84.4814 180.664 84.0912 182.021 83.46 183.27C82.57 184.68 81.67 185.45 81.54 185.83C81.41 186.21 78.67 230.54 77.16 232.05" stroke="#263238" stroke-width="0.967197" stroke-linecap="round" stroke-linejoin="round"/>
<path d="M88.7101 167.26C88.7101 167.26 88.8402 166.5 88.9702 165.47C89.1002 164.44 85.6402 160.73 84.8702 159.47C84.6476 159.11 84.3167 158.83 83.925 158.67C83.5333 158.51 83.1009 158.479 82.6902 158.58C82.6902 158.58 74.8801 162.8 74.6301 163.58C74.3801 164.36 74.8901 179.53 74.8101 184.58C75.7351 185.333 76.8263 185.855 77.9933 186.102C79.1603 186.349 80.3694 186.314 81.5201 186C81.5201 185.91 81.5201 185.85 81.5201 185.83C81.6501 185.45 82.5202 184.68 83.4402 183.27C84.0714 182.021 84.4615 180.664 84.5901 179.27C85.6307 179.486 86.7132 179.352 87.6701 178.89C88.8201 178.12 89.6702 172.23 90.2302 170.31C90.7902 168.39 88.7101 167.26 88.7101 167.26Z" fill="#B2B2B2" stroke="#263238" stroke-width="0.967197" stroke-linecap="round" stroke-linejoin="round"/>
<path d="M88.7102 167.26L82.1802 164.7" stroke="#263238" stroke-width="0.967197" stroke-linecap="round" stroke-linejoin="round"/>
<path d="M81.4102 168.29C81.4102 168.29 88.2001 169.82 88.8401 170.85C89.2402 171.552 89.4601 172.342 89.4802 173.15" stroke="#263238" stroke-width="0.967197" stroke-linecap="round" stroke-linejoin="round"/>
<path d="M81.8003 172C81.8003 172 86.9203 173.15 87.6903 173.79C88.4603 174.43 88.5803 177.12 88.5803 177.12" stroke="#263238" stroke-width="0.967197" stroke-linecap="round" stroke-linejoin="round"/>
<path d="M84.6099 179.3V177.25L86.0199 177.12" stroke="#263238" stroke-width="0.967197" stroke-linecap="round" stroke-linejoin="round"/>
<path d="M125.22 270.47L123.41 295.17L126.28 295.62C126.28 295.62 126.28 269.56 125.22 270.47Z" fill="white" stroke="#263238" stroke-width="0.967197" stroke-linecap="round" stroke-linejoin="round"/>
<path d="M127 271.37L127.9 298.79L132.42 298.64L128.05 271.64C128.05 271.64 127.33 269.11 127 271.37Z" fill="white" stroke="#263238" stroke-width="0.967197" stroke-linecap="round" stroke-linejoin="round"/>
</g>
<defs>
<clipPath id="clip0">
<rect width="500" height="500" fill="white"/>
</clipPath>
</defs>
</svg>
